%TF.GenerationSoftware,KiCad,Pcbnew,7.0.10*%
%TF.CreationDate,2024-01-18T08:47:23+01:00*%
%TF.ProjectId,turbo_go_2,74757262-6f5f-4676-9f5f-322e6b696361,v1.0.0*%
%TF.SameCoordinates,Original*%
%TF.FileFunction,Soldermask,Top*%
%TF.FilePolarity,Negative*%
%FSLAX46Y46*%
G04 Gerber Fmt 4.6, Leading zero omitted, Abs format (unit mm)*
G04 Created by KiCad (PCBNEW 7.0.10) date 2024-01-18 08:47:23*
%MOMM*%
%LPD*%
G01*
G04 APERTURE LIST*
G04 Aperture macros list*
%AMRoundRect*
0 Rectangle with rounded corners*
0 $1 Rounding radius*
0 $2 $3 $4 $5 $6 $7 $8 $9 X,Y pos of 4 corners*
0 Add a 4 corners polygon primitive as box body*
4,1,4,$2,$3,$4,$5,$6,$7,$8,$9,$2,$3,0*
0 Add four circle primitives for the rounded corners*
1,1,$1+$1,$2,$3*
1,1,$1+$1,$4,$5*
1,1,$1+$1,$6,$7*
1,1,$1+$1,$8,$9*
0 Add four rect primitives between the rounded corners*
20,1,$1+$1,$2,$3,$4,$5,0*
20,1,$1+$1,$4,$5,$6,$7,0*
20,1,$1+$1,$6,$7,$8,$9,0*
20,1,$1+$1,$8,$9,$2,$3,0*%
G04 Aperture macros list end*
%ADD10C,0.800000*%
%ADD11C,4.500000*%
%ADD12C,1.801800*%
%ADD13C,3.100000*%
%ADD14C,3.529000*%
%ADD15RoundRect,0.050000X-1.181415X-0.430000X0.430000X-1.181415X1.181415X0.430000X-0.430000X1.181415X0*%
%ADD16RoundRect,0.050000X-0.661409X-0.353606X0.154268X-0.733963X0.661409X0.353606X-0.154268X0.733963X0*%
%ADD17C,2.005000*%
%ADD18RoundRect,0.050000X-0.430000X-1.181415X1.181415X-0.430000X0.430000X1.181415X-1.181415X0.430000X0*%
%ADD19RoundRect,0.050000X-0.154268X-0.733963X0.661409X-0.353606X0.154268X0.733963X-0.661409X0.353606X0*%
%ADD20RoundRect,0.050000X-0.876300X0.876300X-0.876300X-0.876300X0.876300X-0.876300X0.876300X0.876300X0*%
%ADD21C,1.852600*%
%ADD22RoundRect,0.050000X-0.450000X-0.850000X0.450000X-0.850000X0.450000X0.850000X-0.450000X0.850000X0*%
%ADD23RoundRect,0.050000X-1.238136X0.218317X-0.218317X-1.238136X1.238136X-0.218317X0.218317X1.238136X0*%
%ADD24RoundRect,0.050000X-0.749601X0.024473X-0.233382X-0.712764X0.749601X-0.024473X0.233382X0.712764X0*%
%ADD25O,1.800000X1.800000*%
%ADD26C,1.800000*%
%ADD27RoundRect,0.050000X-0.600000X-0.850000X0.600000X-0.850000X0.600000X0.850000X-0.600000X0.850000X0*%
%ADD28O,1.300000X1.800000*%
%ADD29RoundRect,0.050000X-1.252452X-0.109575X0.109575X-1.252452X1.252452X0.109575X-0.109575X1.252452X0*%
%ADD30RoundRect,0.050000X-0.730393X-0.170372X-0.040953X-0.748881X0.730393X0.170372X0.040953X0.748881X0*%
%ADD31RoundRect,0.050000X0.218317X-1.238136X1.238136X0.218317X-0.218317X1.238136X-1.238136X-0.218317X0*%
%ADD32RoundRect,0.050000X0.233382X-0.712764X0.749601X0.024473X-0.233382X0.712764X-0.749601X-0.024473X0*%
%ADD33RoundRect,0.050000X-0.500000X-0.400000X0.500000X-0.400000X0.500000X0.400000X-0.500000X0.400000X0*%
%ADD34C,1.000000*%
%ADD35RoundRect,0.050000X-0.350000X-0.750000X0.350000X-0.750000X0.350000X0.750000X-0.350000X0.750000X0*%
%ADD36RoundRect,0.050000X-0.109575X-1.252452X1.252452X-0.109575X0.109575X1.252452X-1.252452X0.109575X0*%
%ADD37RoundRect,0.050000X0.040953X-0.748881X0.730393X-0.170372X-0.040953X0.748881X-0.730393X0.170372X0*%
G04 APERTURE END LIST*
%TO.C,G\u002A\u002A\u002A*%
G36*
X154405700Y-171067978D02*
G01*
X154541462Y-171071988D01*
X154634884Y-171078439D01*
X154682562Y-171087143D01*
X154688200Y-171092000D01*
X154664322Y-171104369D01*
X154598650Y-171113129D01*
X154500126Y-171117227D01*
X154472300Y-171117400D01*
X154256400Y-171117400D01*
X154256400Y-171650800D01*
X154255213Y-171843362D01*
X154251740Y-171995640D01*
X154246112Y-172104871D01*
X154238461Y-172168296D01*
X154231000Y-172184200D01*
X154221830Y-172159275D01*
X154214579Y-172086343D01*
X154209377Y-171968164D01*
X154206357Y-171807499D01*
X154205600Y-171650800D01*
X154205600Y-171117400D01*
X153989700Y-171117400D01*
X153884557Y-171114590D01*
X153810100Y-171106864D01*
X153775269Y-171095273D01*
X153773800Y-171092000D01*
X153798613Y-171082294D01*
X153870784Y-171074752D01*
X153986909Y-171069561D01*
X154143584Y-171066913D01*
X154231000Y-171066600D01*
X154405700Y-171067978D01*
G37*
G36*
X166270420Y-171053789D02*
G01*
X166279427Y-171084570D01*
X166286675Y-171162059D01*
X166291975Y-171282191D01*
X166295136Y-171440898D01*
X166296000Y-171601499D01*
X166296000Y-172133400D01*
X166461100Y-172133400D01*
X166547374Y-172136988D01*
X166606442Y-172146495D01*
X166626200Y-172158800D01*
X166601581Y-172169272D01*
X166530752Y-172177203D01*
X166418254Y-172182281D01*
X166268629Y-172184192D01*
X166257900Y-172184200D01*
X166106053Y-172182502D01*
X165991045Y-172177617D01*
X165917414Y-172169858D01*
X165889703Y-172159539D01*
X165889600Y-172158800D01*
X165912927Y-172145526D01*
X165974721Y-172136439D01*
X166054700Y-172133400D01*
X166219800Y-172133400D01*
X166219800Y-171710363D01*
X166219543Y-171555379D01*
X166218264Y-171444773D01*
X166215199Y-171372120D01*
X166209587Y-171330999D01*
X166200663Y-171314987D01*
X166187665Y-171317661D01*
X166174420Y-171328394D01*
X166111224Y-171372963D01*
X166036403Y-171408663D01*
X165966114Y-171429666D01*
X165916511Y-171430138D01*
X165907410Y-171424770D01*
X165900895Y-171398648D01*
X165929802Y-171383313D01*
X166059377Y-171327648D01*
X166150253Y-171248589D01*
X166212825Y-171135796D01*
X166230701Y-171084040D01*
X166253123Y-171053131D01*
X166270420Y-171053789D01*
G37*
G36*
X165523008Y-171072541D02*
G01*
X165518028Y-171099203D01*
X165495756Y-171164311D01*
X165459538Y-171259892D01*
X165412718Y-171377972D01*
X165358643Y-171510578D01*
X165300656Y-171649737D01*
X165242105Y-171787475D01*
X165186333Y-171915819D01*
X165136687Y-172026796D01*
X165096512Y-172112433D01*
X165069153Y-172164756D01*
X165059497Y-172177267D01*
X165023215Y-172171875D01*
X165017482Y-172165567D01*
X164999312Y-172128312D01*
X164967149Y-172054591D01*
X164924218Y-171952447D01*
X164873741Y-171829920D01*
X164818941Y-171695051D01*
X164763043Y-171555881D01*
X164709267Y-171420452D01*
X164660838Y-171296804D01*
X164620979Y-171192979D01*
X164592913Y-171117017D01*
X164579862Y-171076959D01*
X164579489Y-171072843D01*
X164592569Y-171067774D01*
X164609192Y-171080127D01*
X164631832Y-171114850D01*
X164662961Y-171176889D01*
X164705054Y-171271190D01*
X164760584Y-171402701D01*
X164832023Y-171576367D01*
X164835500Y-171584882D01*
X164896247Y-171732252D01*
X164950946Y-171862254D01*
X164996619Y-171968030D01*
X165030291Y-172042726D01*
X165048983Y-172079486D01*
X165051400Y-172082125D01*
X165064287Y-172059553D01*
X165093104Y-171996717D01*
X165134880Y-171900504D01*
X165186639Y-171777801D01*
X165245408Y-171635496D01*
X165265887Y-171585277D01*
X165338206Y-171408758D01*
X165394657Y-171274783D01*
X165437670Y-171178509D01*
X165469675Y-171115089D01*
X165493101Y-171079680D01*
X165510379Y-171067436D01*
X165523008Y-171072541D01*
G37*
G36*
X155866878Y-171091279D02*
G01*
X155874622Y-171162538D01*
X155879566Y-171276204D01*
X155881442Y-171428109D01*
X155881442Y-171453950D01*
X155877780Y-171651628D01*
X155865534Y-171805995D01*
X155841849Y-171924212D01*
X155803876Y-172013444D01*
X155748760Y-172080854D01*
X155673652Y-172133604D01*
X155596136Y-172170531D01*
X155459323Y-172205979D01*
X155325505Y-172193570D01*
X155225874Y-172155098D01*
X155128855Y-172088204D01*
X155049523Y-172000504D01*
X155048074Y-171998337D01*
X155022817Y-171958100D01*
X155004559Y-171919448D01*
X154991956Y-171873224D01*
X154983666Y-171810273D01*
X154978345Y-171721441D01*
X154974651Y-171597572D01*
X154972240Y-171481318D01*
X154970540Y-171317579D01*
X154972379Y-171191607D01*
X154977599Y-171107337D01*
X154986040Y-171068705D01*
X154989059Y-171066600D01*
X154998943Y-171090979D01*
X155007909Y-171160040D01*
X155015446Y-171267664D01*
X155021040Y-171407735D01*
X155022518Y-171466650D01*
X155026462Y-171621205D01*
X155031444Y-171734178D01*
X155038669Y-171814786D01*
X155049344Y-171872246D01*
X155064675Y-171915775D01*
X155085867Y-171954590D01*
X155086495Y-171955600D01*
X155176305Y-172057608D01*
X155287145Y-172120292D01*
X155408886Y-172144155D01*
X155531402Y-172129699D01*
X155644565Y-172077429D01*
X155738249Y-171987847D01*
X155778597Y-171921222D01*
X155799670Y-171871783D01*
X155814322Y-171818501D01*
X155823672Y-171751132D01*
X155828840Y-171659435D01*
X155830943Y-171533165D01*
X155831200Y-171439580D01*
X155832877Y-171286466D01*
X155837706Y-171170319D01*
X155845384Y-171095605D01*
X155855605Y-171066789D01*
X155856600Y-171066600D01*
X155866878Y-171091279D01*
G37*
G36*
X159187798Y-171064108D02*
G01*
X159315680Y-171128063D01*
X159413440Y-171229705D01*
X159430714Y-171257617D01*
X159457674Y-171312347D01*
X159474761Y-171370379D01*
X159484123Y-171445223D01*
X159487907Y-171550388D01*
X159488382Y-171620311D01*
X159484283Y-171780673D01*
X159471291Y-171892486D01*
X159453113Y-171950511D01*
X159370921Y-172060282D01*
X159259227Y-172142997D01*
X159130539Y-172193568D01*
X158997369Y-172206908D01*
X158882887Y-172182423D01*
X158757551Y-172115891D01*
X158667714Y-172027574D01*
X158609789Y-171911026D01*
X158580189Y-171759798D01*
X158574400Y-171628065D01*
X158575137Y-171600714D01*
X158623852Y-171600714D01*
X158630136Y-171732346D01*
X158651274Y-171850024D01*
X158674738Y-171914894D01*
X158756727Y-172032464D01*
X158864705Y-172110223D01*
X158990086Y-172145579D01*
X159124284Y-172135938D01*
X159244844Y-172087031D01*
X159321640Y-172033915D01*
X159374362Y-171971922D01*
X159407680Y-171890269D01*
X159426266Y-171778170D01*
X159433990Y-171650284D01*
X159436796Y-171529502D01*
X159434006Y-171445562D01*
X159423753Y-171384642D01*
X159404166Y-171332920D01*
X159386546Y-171299466D01*
X159300254Y-171191430D01*
X159191199Y-171123115D01*
X159068617Y-171094785D01*
X158941740Y-171106705D01*
X158819803Y-171159140D01*
X158712041Y-171252353D01*
X158690269Y-171279539D01*
X158654303Y-171358565D01*
X158632036Y-171470872D01*
X158623852Y-171600714D01*
X158575137Y-171600714D01*
X158578330Y-171482145D01*
X158592430Y-171374036D01*
X158620160Y-171291195D01*
X158664982Y-171221078D01*
X158696665Y-171184982D01*
X158798637Y-171098826D01*
X158909912Y-171053554D01*
X159036688Y-171041617D01*
X159187798Y-171064108D01*
G37*
G36*
X156536050Y-171066694D02*
G01*
X156671098Y-171068022D01*
X156766534Y-171072876D01*
X156833501Y-171082715D01*
X156883146Y-171098995D01*
X156915816Y-171116371D01*
X157003954Y-171196767D01*
X157057215Y-171301182D01*
X157075916Y-171417775D01*
X157060375Y-171534705D01*
X157010909Y-171640129D01*
X156927836Y-171722206D01*
X156899123Y-171739119D01*
X156847225Y-171769444D01*
X156822207Y-171790917D01*
X156821800Y-171792504D01*
X156835933Y-171817467D01*
X156873835Y-171873275D01*
X156928760Y-171950158D01*
X156961681Y-171995051D01*
X157026856Y-172088071D01*
X157063564Y-172151702D01*
X157069717Y-172182109D01*
X157064644Y-172184200D01*
X157034491Y-172164635D01*
X156984708Y-172112235D01*
X156923827Y-172036443D01*
X156893012Y-171994307D01*
X156758300Y-171804415D01*
X156523350Y-171803807D01*
X156288400Y-171803200D01*
X156288400Y-171993700D01*
X156285248Y-172089688D01*
X156276716Y-172156592D01*
X156264191Y-172184021D01*
X156263000Y-172184200D01*
X156253989Y-172159246D01*
X156246828Y-172086112D01*
X156241632Y-171967388D01*
X156238521Y-171805663D01*
X156237600Y-171625400D01*
X156237600Y-171117400D01*
X156288400Y-171117400D01*
X156288400Y-171422200D01*
X156288400Y-171727000D01*
X156543661Y-171727000D01*
X156693674Y-171723197D01*
X156800058Y-171711274D01*
X156869449Y-171690454D01*
X156873431Y-171688470D01*
X156956610Y-171619173D01*
X157007553Y-171522309D01*
X157022873Y-171412127D01*
X156999184Y-171302871D01*
X156975562Y-171258812D01*
X156929742Y-171199978D01*
X156876774Y-171159986D01*
X156806135Y-171135371D01*
X156707298Y-171122668D01*
X156569740Y-171118412D01*
X156548750Y-171118300D01*
X156288400Y-171117400D01*
X156237600Y-171117400D01*
X156237600Y-171066600D01*
X156536050Y-171066694D01*
G37*
G36*
X162821465Y-171073056D02*
G01*
X162942615Y-171135562D01*
X163031234Y-171235698D01*
X163088499Y-171374819D01*
X163115591Y-171554277D01*
X163116081Y-171562629D01*
X163110751Y-171757753D01*
X163070485Y-171916998D01*
X162994426Y-172042162D01*
X162881716Y-172135040D01*
X162829950Y-172161856D01*
X162688257Y-172203626D01*
X162550397Y-172195945D01*
X162439474Y-172155098D01*
X162342088Y-172087883D01*
X162262677Y-171999729D01*
X162261674Y-171998223D01*
X162231821Y-171949591D01*
X162212297Y-171903465D01*
X162200927Y-171847478D01*
X162195538Y-171769265D01*
X162193956Y-171656457D01*
X162193900Y-171612577D01*
X162193971Y-171599031D01*
X162232141Y-171599031D01*
X162241255Y-171762121D01*
X162270309Y-171887442D01*
X162322343Y-171985129D01*
X162361561Y-172030453D01*
X162474946Y-172110703D01*
X162603869Y-172145234D01*
X162739864Y-172133096D01*
X162854213Y-172085657D01*
X162920364Y-172033923D01*
X162981522Y-171965446D01*
X162987563Y-171956820D01*
X163015033Y-171909401D01*
X163032130Y-171857427D01*
X163041187Y-171787485D01*
X163044534Y-171686165D01*
X163044800Y-171627597D01*
X163038773Y-171468946D01*
X163018062Y-171350150D01*
X162978721Y-171261413D01*
X162916804Y-171192937D01*
X162851655Y-171148086D01*
X162741496Y-171107336D01*
X162616430Y-171097806D01*
X162496307Y-171118992D01*
X162415096Y-171159164D01*
X162325638Y-171254323D01*
X162264039Y-171384734D01*
X162234291Y-171540803D01*
X162232141Y-171599031D01*
X162193971Y-171599031D01*
X162194551Y-171487953D01*
X162198036Y-171402169D01*
X162206655Y-171343267D01*
X162222706Y-171299290D01*
X162248487Y-171258280D01*
X162266692Y-171233910D01*
X162357144Y-171132835D01*
X162449425Y-171073248D01*
X162559284Y-171047781D01*
X162666602Y-171046827D01*
X162821465Y-171073056D01*
G37*
G36*
X161568627Y-171054671D02*
G01*
X161700336Y-171103367D01*
X161800287Y-171191191D01*
X161867376Y-171317439D01*
X161876429Y-171346102D01*
X161886769Y-171400600D01*
X161873010Y-171420966D01*
X161861926Y-171422200D01*
X161832305Y-171401091D01*
X161825600Y-171372283D01*
X161806115Y-171314846D01*
X161756288Y-171245235D01*
X161689057Y-171177870D01*
X161617364Y-171127170D01*
X161596822Y-171117326D01*
X161495613Y-171096365D01*
X161376325Y-171101436D01*
X161262734Y-171129783D01*
X161196976Y-171163659D01*
X161127217Y-171226977D01*
X161079886Y-171306493D01*
X161051711Y-171411857D01*
X161039420Y-171552717D01*
X161038200Y-171631832D01*
X161039832Y-171750509D01*
X161046328Y-171832064D01*
X161060087Y-171890115D01*
X161083506Y-171938280D01*
X161095436Y-171956820D01*
X161187966Y-172056565D01*
X161298171Y-172117596D01*
X161417157Y-172141979D01*
X161536030Y-172131780D01*
X161645894Y-172089067D01*
X161737855Y-172015905D01*
X161803017Y-171914362D01*
X161832488Y-171786503D01*
X161832544Y-171785574D01*
X161838300Y-171688900D01*
X161641450Y-171681481D01*
X161528650Y-171673697D01*
X161465012Y-171662251D01*
X161449246Y-171649420D01*
X161480063Y-171637483D01*
X161556172Y-171628717D01*
X161673200Y-171625400D01*
X161901800Y-171625400D01*
X161901800Y-171904800D01*
X161899592Y-172030867D01*
X161893361Y-172123122D01*
X161883698Y-172175073D01*
X161876400Y-172184200D01*
X161860815Y-172161594D01*
X161851851Y-172104811D01*
X161851000Y-172077445D01*
X161851000Y-171970690D01*
X161755750Y-172063232D01*
X161645062Y-172151359D01*
X161531140Y-172197507D01*
X161400349Y-172205487D01*
X161296930Y-172191462D01*
X161224876Y-172158231D01*
X161144946Y-172092000D01*
X161069588Y-172006328D01*
X161011250Y-171914772D01*
X160987087Y-171854000D01*
X160970310Y-171749761D01*
X160966031Y-171623008D01*
X160973205Y-171491422D01*
X160990787Y-171372683D01*
X161017731Y-171284472D01*
X161021184Y-171277463D01*
X161107954Y-171162306D01*
X161227489Y-171085595D01*
X161378417Y-171048156D01*
X161406265Y-171045809D01*
X161568627Y-171054671D01*
G37*
G36*
X157864796Y-171067028D02*
G01*
X157953831Y-171069696D01*
X158013740Y-171076678D01*
X158055361Y-171090046D01*
X158089532Y-171111875D01*
X158123149Y-171140716D01*
X158174510Y-171193589D01*
X158198948Y-171246058D01*
X158205955Y-171321142D01*
X158206100Y-171341870D01*
X158199167Y-171433768D01*
X158173773Y-171497872D01*
X158144948Y-171534000D01*
X158083796Y-171599093D01*
X158150686Y-171651709D01*
X158223092Y-171738745D01*
X158255929Y-171846716D01*
X158245374Y-171960464D01*
X158235512Y-171988014D01*
X158195055Y-172063572D01*
X158141200Y-172117679D01*
X158065736Y-172153520D01*
X157960451Y-172174280D01*
X157817135Y-172183141D01*
X157729850Y-172184105D01*
X157431400Y-172184200D01*
X157431400Y-171954654D01*
X157485592Y-171954654D01*
X157487184Y-172040141D01*
X157491858Y-172093854D01*
X157493869Y-172101772D01*
X157525577Y-172120418D01*
X157595118Y-172131423D01*
X157690187Y-172135345D01*
X157798483Y-172132738D01*
X157907702Y-172124160D01*
X158005542Y-172110167D01*
X158079700Y-172091314D01*
X158112981Y-172073784D01*
X158176783Y-171986742D01*
X158198885Y-171888469D01*
X158180762Y-171791761D01*
X158123888Y-171709411D01*
X158066400Y-171669422D01*
X158008532Y-171646817D01*
X157937284Y-171634141D01*
X157839292Y-171629852D01*
X157736200Y-171631322D01*
X157494900Y-171638100D01*
X157487454Y-171851876D01*
X157485592Y-171954654D01*
X157431400Y-171954654D01*
X157431400Y-171625400D01*
X157431400Y-171117400D01*
X157478854Y-171117400D01*
X157485751Y-171346000D01*
X157492647Y-171574600D01*
X157752707Y-171574600D01*
X157872725Y-171573598D01*
X157953939Y-171569126D01*
X158008326Y-171558981D01*
X158047865Y-171540962D01*
X158083456Y-171513795D01*
X158141498Y-171433784D01*
X158158911Y-171339089D01*
X158135696Y-171245523D01*
X158083456Y-171178204D01*
X158047415Y-171150743D01*
X158008305Y-171133047D01*
X157954388Y-171123000D01*
X157873928Y-171118490D01*
X157755186Y-171117402D01*
X157745810Y-171117399D01*
X157478854Y-171117400D01*
X157431400Y-171117400D01*
X157431400Y-171066600D01*
X157735799Y-171066600D01*
X157864796Y-171067028D01*
G37*
%TD*%
D10*
%TO.C,_5*%
X142209773Y-124661613D03*
X143140848Y-123808440D03*
X142154688Y-125923266D03*
X144402501Y-123863525D03*
D11*
X143705181Y-125358933D03*
D10*
X143007861Y-126854341D03*
X145255674Y-124794600D03*
X144269514Y-126909426D03*
X145200589Y-126056253D03*
%TD*%
D12*
%TO.C,S44*%
X245382279Y-136857553D03*
D13*
X247852393Y-129140622D03*
D14*
X250366972Y-134533153D03*
D13*
X253313692Y-129021407D03*
D12*
X255351665Y-132208753D03*
%TD*%
D15*
%TO.C,D9*%
X90382003Y-124216557D03*
D16*
X92339628Y-125129413D03*
X95330444Y-126524053D03*
D17*
X97288069Y-127436909D03*
%TD*%
D10*
%TO.C,_4*%
X99017231Y-132105052D03*
X99948306Y-131251879D03*
X98962146Y-133366705D03*
X101209959Y-131306964D03*
D11*
X100512639Y-132802372D03*
D10*
X99815319Y-134297780D03*
X102063132Y-132238039D03*
X101076972Y-134352865D03*
X102008047Y-133499692D03*
%TD*%
D12*
%TO.C,S10*%
X98147948Y-103563560D03*
D13*
X105647220Y-100495429D03*
D14*
X103132641Y-105887960D03*
D13*
X109248998Y-104602397D03*
D12*
X108117334Y-108212360D03*
%TD*%
D18*
%TO.C,D23*%
X248435835Y-96815416D03*
D19*
X250393460Y-95902560D03*
X253384276Y-94507920D03*
D17*
X255341901Y-93595064D03*
%TD*%
D12*
%TO.C,S5*%
X72114183Y-116801507D03*
D13*
X79613455Y-113733376D03*
D14*
X77098876Y-119125907D03*
D13*
X83215233Y-117840344D03*
D12*
X82083569Y-121450307D03*
%TD*%
%TO.C,S4*%
X64929679Y-132208747D03*
D13*
X72428951Y-129140616D03*
D14*
X69914372Y-134533147D03*
D13*
X76030729Y-133247584D03*
D12*
X74899065Y-136857547D03*
%TD*%
%TO.C,S23*%
X244791080Y-92998107D03*
D13*
X247261194Y-85281176D03*
D14*
X249775773Y-90673707D03*
D13*
X252722493Y-85161961D03*
D12*
X254760466Y-88349307D03*
%TD*%
%TO.C,S56*%
X183340486Y-131583391D03*
D13*
X185810600Y-123866460D03*
D14*
X188325179Y-129258991D03*
D13*
X191271899Y-123747245D03*
D12*
X193309872Y-126934591D03*
%TD*%
D10*
%TO.C,_2*%
X66390154Y-116890794D03*
X67321229Y-116037621D03*
X66335069Y-118152447D03*
X68582882Y-116092706D03*
D11*
X67885562Y-117588114D03*
D10*
X67188242Y-119083522D03*
X69436055Y-117023781D03*
X68449895Y-119138607D03*
X69380970Y-118285434D03*
%TD*%
D18*
%TO.C,D51*%
X208624239Y-96622443D03*
D19*
X210581864Y-95709587D03*
X213572680Y-94314947D03*
D17*
X215530305Y-93402091D03*
%TD*%
D18*
%TO.C,D46*%
X234658006Y-109860394D03*
D19*
X236615631Y-108947538D03*
X239606447Y-107552898D03*
D17*
X241564072Y-106640042D03*
%TD*%
D12*
%TO.C,S6*%
X79298702Y-101394276D03*
D13*
X86797974Y-98326145D03*
D14*
X84283395Y-103718676D03*
D13*
X90399752Y-102433113D03*
D12*
X89268088Y-106043076D03*
%TD*%
D18*
%TO.C,D47*%
X227473487Y-94453158D03*
D19*
X229431112Y-93540302D03*
X232421928Y-92145662D03*
D17*
X234379553Y-91232806D03*
%TD*%
D12*
%TO.C,S73*%
X111925781Y-116608535D03*
D13*
X119425053Y-113540404D03*
D14*
X116910474Y-118932935D03*
D13*
X123026831Y-117647372D03*
D12*
X121895167Y-121257335D03*
%TD*%
D18*
%TO.C,D41*%
X262804852Y-127629890D03*
D19*
X264762477Y-126717034D03*
X267753293Y-125322394D03*
D17*
X269710918Y-124409538D03*
%TD*%
D10*
%TO.C,_12*%
X189449768Y-156870728D03*
X189394683Y-155609075D03*
X190380843Y-157723901D03*
X190247856Y-154678000D03*
D11*
X190945176Y-156173408D03*
D10*
X191642496Y-157668816D03*
X191509509Y-154622915D03*
X192495669Y-156737741D03*
X192440584Y-155476088D03*
%TD*%
D12*
%TO.C,S27*%
X223828738Y-90635848D03*
D13*
X226298852Y-82918917D03*
D14*
X228813431Y-88311448D03*
D13*
X231760151Y-82799702D03*
D12*
X233798124Y-85987048D03*
%TD*%
D10*
%TO.C,_6*%
X127840751Y-155476085D03*
X128771826Y-154622912D03*
X127785666Y-156737738D03*
X130033479Y-154677997D03*
D11*
X129336159Y-156173405D03*
D10*
X128638839Y-157668813D03*
X130886652Y-155609072D03*
X129900492Y-157723898D03*
X130831567Y-156870725D03*
%TD*%
D18*
%TO.C,D32*%
X209215425Y-140481884D03*
D19*
X211173050Y-139569028D03*
X214163866Y-138174388D03*
D17*
X216121491Y-137261532D03*
%TD*%
D10*
%TO.C,_3*%
X113386250Y-101290589D03*
X114317325Y-100437416D03*
X113331165Y-102552242D03*
X115578978Y-100492501D03*
D11*
X114881658Y-101987909D03*
D10*
X114184338Y-103483317D03*
X116432151Y-101423576D03*
X115445991Y-103538402D03*
X116377066Y-102685229D03*
%TD*%
D12*
%TO.C,S53*%
X198386175Y-121257331D03*
D13*
X200856289Y-113540400D03*
D14*
X203370868Y-118932931D03*
D13*
X206317588Y-113421185D03*
D12*
X208355561Y-116608531D03*
%TD*%
D20*
%TO.C,MCU1*%
X152520659Y-113881757D03*
D21*
X152520659Y-116421757D03*
X152520659Y-118961757D03*
X152520659Y-121501757D03*
X152520659Y-124041757D03*
X152520659Y-126581757D03*
X152520659Y-129121757D03*
X152520659Y-131661757D03*
X152520659Y-134201757D03*
X152520659Y-136741757D03*
X152520659Y-139281757D03*
X152520659Y-141821757D03*
X167760659Y-113881757D03*
X167760659Y-116421757D03*
X167760659Y-118961757D03*
X167760659Y-121501757D03*
X167760659Y-124041757D03*
X167760659Y-126581757D03*
X167760659Y-129121757D03*
X167760659Y-131661757D03*
X167760659Y-134201757D03*
X167760659Y-136741757D03*
X167760659Y-139281757D03*
X167760659Y-141821757D03*
%TD*%
D15*
%TO.C,D14*%
X118528853Y-106447062D03*
D16*
X120486478Y-107359918D03*
X123477294Y-108754558D03*
D17*
X125434919Y-109667414D03*
%TD*%
D22*
%TO.C,*%
X148640664Y-135151757D03*
X148640664Y-138551757D03*
%TD*%
D12*
%TO.C,S55*%
X190524993Y-146990617D03*
D13*
X192995107Y-139273686D03*
D14*
X195509686Y-144666217D03*
D13*
X198456406Y-139154471D03*
D12*
X200494379Y-142341817D03*
%TD*%
%TO.C,S39*%
X195152954Y-168050402D03*
D13*
X195541612Y-159957106D03*
D14*
X199366198Y-164515070D03*
D13*
X200785967Y-158428465D03*
D12*
X203579442Y-160979738D03*
%TD*%
D23*
%TO.C,D20*%
X128189722Y-179055414D03*
D24*
X129428647Y-180824782D03*
X131321449Y-183527984D03*
D17*
X132560374Y-185297352D03*
%TD*%
D15*
%TO.C,D15*%
X119205520Y-147587586D03*
D16*
X121163145Y-148500442D03*
X124153961Y-149895082D03*
D17*
X126111586Y-150807938D03*
%TD*%
D12*
%TO.C,S18*%
X99007827Y-151409780D03*
D13*
X106507099Y-148341649D03*
D14*
X103992520Y-153734180D03*
D13*
X110108877Y-152448617D03*
D12*
X108977213Y-156058580D03*
%TD*%
D15*
%TO.C,D64*%
X64348247Y-137454510D03*
D16*
X66305872Y-138367366D03*
X69296688Y-139762006D03*
D17*
X71254313Y-140674862D03*
%TD*%
D12*
%TO.C,S46*%
X231013250Y-106043076D03*
D13*
X233483364Y-98326145D03*
D14*
X235997943Y-103718676D03*
D13*
X238944663Y-98206930D03*
D12*
X240982636Y-101394276D03*
%TD*%
D10*
%TO.C,_10*%
X218273287Y-133499694D03*
X218218202Y-132238041D03*
X219204362Y-134352867D03*
X219071375Y-131306966D03*
D11*
X219768695Y-132802374D03*
D10*
X220466015Y-134297782D03*
X220333028Y-131251881D03*
X221319188Y-133366707D03*
X221264103Y-132105054D03*
%TD*%
D15*
%TO.C,D71*%
X104751029Y-93402083D03*
D16*
X106708654Y-94314939D03*
X109699470Y-95709579D03*
D17*
X111657095Y-96622435D03*
%TD*%
D12*
%TO.C,S74*%
X119110283Y-101201305D03*
D13*
X126609555Y-98133174D03*
D14*
X124094976Y-103525705D03*
D13*
X130211333Y-102240142D03*
D12*
X129079669Y-105850105D03*
%TD*%
D25*
%TO.C,DISP1*%
X155060664Y-147551749D03*
X157600664Y-147551749D03*
X160140664Y-147551749D03*
X162680664Y-147551749D03*
D26*
X165220664Y-147551749D03*
%TD*%
D18*
%TO.C,D38*%
X214948874Y-159875893D03*
D19*
X216906499Y-158963037D03*
X219897315Y-157568397D03*
D17*
X221854940Y-156655541D03*
%TD*%
D12*
%TO.C,S72*%
X104741266Y-132015766D03*
D13*
X112240538Y-128947635D03*
D14*
X109725959Y-134340166D03*
D13*
X115842316Y-133054603D03*
D12*
X114710652Y-136664566D03*
%TD*%
D10*
%TO.C,_11*%
X175080742Y-126056259D03*
X175025657Y-124794606D03*
X176011817Y-126909432D03*
X175878830Y-123863531D03*
D11*
X176576150Y-125358939D03*
D10*
X177273470Y-126854347D03*
X177140483Y-123808446D03*
X178126643Y-125923272D03*
X178071558Y-124661619D03*
%TD*%
D18*
%TO.C,D22*%
X255620345Y-112222654D03*
D19*
X257577970Y-111309798D03*
X260568786Y-109915158D03*
D17*
X262526411Y-109002302D03*
%TD*%
D18*
%TO.C,D50*%
X215808756Y-112029680D03*
D19*
X217766381Y-111116824D03*
X220757197Y-109722184D03*
D17*
X222714822Y-108809328D03*
%TD*%
D10*
%TO.C,_1*%
X73574671Y-101483561D03*
X74505746Y-100630388D03*
X73519586Y-102745214D03*
X75767399Y-100685473D03*
D11*
X75070079Y-102180881D03*
D10*
X74372759Y-103676289D03*
X76620572Y-101616548D03*
X75634412Y-103731374D03*
X76565487Y-102878201D03*
%TD*%
D12*
%TO.C,S80*%
X131316145Y-174803172D03*
D13*
X139344770Y-175895728D03*
D14*
X134470815Y-179308508D03*
D13*
X140410517Y-181253357D03*
D12*
X137625485Y-183813844D03*
%TD*%
D18*
%TO.C,D44*%
X249027026Y-140674860D03*
D19*
X250984651Y-139762004D03*
X253975467Y-138367364D03*
D17*
X255933092Y-137454508D03*
%TD*%
D12*
%TO.C,S48*%
X226533023Y-139026824D03*
D13*
X229003137Y-131309893D03*
D14*
X231517716Y-136702424D03*
D13*
X234464436Y-131190678D03*
D12*
X236502409Y-134378024D03*
%TD*%
D15*
%TO.C,D78*%
X98426389Y-156655541D03*
D16*
X100384014Y-157568397D03*
X103374830Y-158963037D03*
D17*
X105332455Y-159875893D03*
%TD*%
D12*
%TO.C,S67*%
X86483195Y-85987048D03*
D13*
X93982467Y-82918917D03*
D14*
X91467888Y-88311448D03*
D13*
X97584245Y-87025885D03*
D12*
X96452581Y-90635848D03*
%TD*%
%TO.C,S3*%
X65520854Y-88349304D03*
D13*
X73020126Y-85281173D03*
D14*
X70505547Y-90673704D03*
D13*
X76621904Y-89388141D03*
D12*
X75490240Y-92998104D03*
%TD*%
%TO.C,S31*%
X204979490Y-92805129D03*
D13*
X207449604Y-85088198D03*
D14*
X209964183Y-90480729D03*
D13*
X212910903Y-84968983D03*
D12*
X214948876Y-88156329D03*
%TD*%
D18*
%TO.C,D49*%
X222993264Y-127436908D03*
D19*
X224950889Y-126524052D03*
X227941705Y-125129412D03*
D17*
X229899330Y-124216556D03*
%TD*%
D12*
%TO.C,S58*%
X211304123Y-156058585D03*
D13*
X213774237Y-148341654D03*
D14*
X216288816Y-153734185D03*
D13*
X219235536Y-148222439D03*
D12*
X221273509Y-151409785D03*
%TD*%
%TO.C,S45*%
X238197757Y-121450311D03*
D13*
X240667871Y-113733380D03*
D14*
X243182450Y-119125911D03*
D13*
X246129170Y-113614165D03*
D12*
X248167143Y-116801511D03*
%TD*%
D10*
%TO.C,_8*%
X250900361Y-118285426D03*
X250845276Y-117023773D03*
X251831436Y-119138599D03*
X251698449Y-116092698D03*
D11*
X252395769Y-117588106D03*
D10*
X253093089Y-119083514D03*
X252960102Y-116037613D03*
X253946262Y-118152439D03*
X253891177Y-116890786D03*
%TD*%
D18*
%TO.C,D33*%
X202030912Y-125074647D03*
D19*
X203988537Y-124161791D03*
X206979353Y-122767151D03*
D17*
X208936978Y-121854295D03*
%TD*%
D12*
%TO.C,S32*%
X205570682Y-136664564D03*
D13*
X208040796Y-128947633D03*
D14*
X210555375Y-134340164D03*
D13*
X213502095Y-128828418D03*
D12*
X215540068Y-132015764D03*
%TD*%
%TO.C,S60*%
X182655853Y-183813843D03*
D13*
X180936568Y-175895727D03*
D14*
X185810523Y-179308507D03*
D13*
X185606585Y-173061835D03*
D12*
X188965193Y-174803171D03*
%TD*%
D15*
%TO.C,D70*%
X97566520Y-108809324D03*
D16*
X99524145Y-109722180D03*
X102514961Y-111116820D03*
D17*
X104472586Y-112029676D03*
%TD*%
D12*
%TO.C,S57*%
X176155978Y-116176160D03*
D13*
X178626092Y-108459229D03*
D14*
X181140671Y-113851760D03*
D13*
X184087391Y-108340014D03*
D12*
X186125364Y-111527360D03*
%TD*%
%TO.C,S71*%
X105332449Y-88156326D03*
D13*
X112831721Y-85088195D03*
D14*
X110317142Y-90480726D03*
D13*
X116433499Y-89195163D03*
D12*
X115301835Y-92805126D03*
%TD*%
D18*
%TO.C,D37*%
X179800724Y-119993471D03*
D19*
X181758349Y-119080615D03*
X184749165Y-117685975D03*
D17*
X186706790Y-116773119D03*
%TD*%
D15*
%TO.C,D61*%
X50570422Y-124409534D03*
D16*
X52528047Y-125322390D03*
X55518863Y-126717030D03*
D17*
X57476488Y-127629886D03*
%TD*%
D18*
%TO.C,D28*%
X230177770Y-142844149D03*
D19*
X232135395Y-141931293D03*
X235126211Y-140536653D03*
D17*
X237083836Y-139623797D03*
%TD*%
D12*
%TO.C,S2*%
X58336356Y-103756534D03*
D13*
X65835628Y-100688403D03*
D14*
X63321049Y-106080934D03*
D13*
X69437406Y-104795371D03*
D12*
X68305742Y-108405334D03*
%TD*%
D15*
%TO.C,D65*%
X71532755Y-122047277D03*
D16*
X73490380Y-122960133D03*
X76481196Y-124354773D03*
D17*
X78438821Y-125267629D03*
%TD*%
D12*
%TO.C,S8*%
X83778928Y-134378024D03*
D13*
X91278200Y-131309893D03*
D14*
X88763621Y-136702424D03*
D13*
X94879978Y-135416861D03*
D12*
X93748314Y-139026824D03*
%TD*%
%TO.C,S34*%
X191201663Y-105850096D03*
D13*
X193671777Y-98133165D03*
D14*
X196186356Y-103525696D03*
D13*
X199133076Y-98013950D03*
D12*
X201171049Y-101201296D03*
%TD*%
D27*
%TO.C,JST1*%
X171340664Y-134351753D03*
D28*
X173340664Y-134351753D03*
%TD*%
D15*
%TO.C,D16*%
X126390037Y-132180353D03*
D16*
X128347662Y-133093209D03*
X131338478Y-134487849D03*
D17*
X133296103Y-135400705D03*
%TD*%
D15*
%TO.C,D67*%
X85901780Y-91232811D03*
D16*
X87859405Y-92145667D03*
X90850221Y-93540307D03*
D17*
X92807846Y-94453163D03*
%TD*%
D12*
%TO.C,S68*%
X83778928Y-134378024D03*
D13*
X91278200Y-131309893D03*
D14*
X88763621Y-136702424D03*
D13*
X94879978Y-135416861D03*
D12*
X93748314Y-139026824D03*
%TD*%
D15*
%TO.C,D62*%
X57754933Y-109002291D03*
D16*
X59712558Y-109915147D03*
X62703374Y-111309787D03*
D17*
X64660999Y-112222643D03*
%TD*%
D12*
%TO.C,S15*%
X119786950Y-142341819D03*
D13*
X127286222Y-139273688D03*
D14*
X124771643Y-144666219D03*
D13*
X130888000Y-143380656D03*
D12*
X129756336Y-146990619D03*
%TD*%
%TO.C,S77*%
X134155975Y-111527360D03*
D13*
X141655247Y-108459229D03*
D14*
X139140668Y-113851760D03*
D13*
X145257025Y-112566197D03*
D12*
X144125361Y-116176160D03*
%TD*%
%TO.C,S41*%
X259160107Y-123812576D03*
D13*
X261630221Y-116095645D03*
D14*
X264144800Y-121488176D03*
D13*
X267091520Y-115976430D03*
D12*
X269129493Y-119163776D03*
%TD*%
D15*
%TO.C,D13*%
X111344353Y-121854304D03*
D16*
X113301978Y-122767160D03*
X116292794Y-124161800D03*
D17*
X118250419Y-125074656D03*
%TD*%
D12*
%TO.C,S9*%
X90963432Y-118970795D03*
D13*
X98462704Y-115902664D03*
D14*
X95948125Y-121295195D03*
D13*
X102064482Y-120009632D03*
D12*
X100932818Y-123619595D03*
%TD*%
%TO.C,S42*%
X251975586Y-108405333D03*
D13*
X254445700Y-100688402D03*
D14*
X256960279Y-106080933D03*
D13*
X259906999Y-100569187D03*
D12*
X261944972Y-103756533D03*
%TD*%
%TO.C,S19*%
X116701886Y-160979734D03*
D13*
X124739716Y-159957102D03*
D14*
X120915130Y-164515066D03*
D13*
X127155806Y-164856337D03*
D12*
X125128374Y-168050398D03*
%TD*%
D18*
%TO.C,D55*%
X194169745Y-150807937D03*
D19*
X196127370Y-149895081D03*
X199118186Y-148500441D03*
D17*
X201075811Y-147587585D03*
%TD*%
D29*
%TO.C,D79*%
X114782559Y-165896266D03*
D30*
X116437215Y-167284687D03*
X118965161Y-169405887D03*
D17*
X120619817Y-170794308D03*
%TD*%
D12*
%TO.C,S29*%
X219348508Y-123619588D03*
D13*
X221818622Y-115902657D03*
D14*
X224333201Y-121295188D03*
D13*
X227279921Y-115783442D03*
D12*
X229317894Y-118970788D03*
%TD*%
D15*
%TO.C,D77*%
X133574543Y-116773116D03*
D16*
X135532168Y-117685972D03*
X138522984Y-119080612D03*
D17*
X140480609Y-119993468D03*
%TD*%
D29*
%TO.C,D19*%
X114782559Y-165896266D03*
D30*
X116437215Y-167284687D03*
X118965161Y-169405887D03*
D17*
X120619817Y-170794308D03*
%TD*%
D10*
%TO.C,_7*%
X243715850Y-102878197D03*
X243660765Y-101616544D03*
X244646925Y-103731370D03*
X244513938Y-100685469D03*
D11*
X245211258Y-102180877D03*
D10*
X245908578Y-103676285D03*
X245775591Y-100630384D03*
X246761751Y-102745210D03*
X246706666Y-101483557D03*
%TD*%
D31*
%TO.C,D60*%
X187720954Y-185297358D03*
D32*
X188959879Y-183527990D03*
X190852681Y-180824788D03*
D17*
X192091606Y-179055420D03*
%TD*%
D18*
%TO.C,D25*%
X241842513Y-125267628D03*
D19*
X243800138Y-124354772D03*
X246790954Y-122960132D03*
D17*
X248748579Y-122047276D03*
%TD*%
D15*
%TO.C,D3*%
X64939442Y-93595066D03*
D16*
X66897067Y-94507922D03*
X69887883Y-95902562D03*
D17*
X71845508Y-96815418D03*
%TD*%
D18*
%TO.C,D54*%
X194846413Y-109667415D03*
D19*
X196804038Y-108754559D03*
X199794854Y-107359919D03*
D17*
X201752479Y-106447063D03*
%TD*%
D12*
%TO.C,S52*%
X205570682Y-136664564D03*
D13*
X208040796Y-128947633D03*
D14*
X210555375Y-134340164D03*
D13*
X213502095Y-128828418D03*
D12*
X215540068Y-132015764D03*
%TD*%
D15*
%TO.C,D12*%
X104159838Y-137261531D03*
D16*
X106117463Y-138174387D03*
X109108279Y-139569027D03*
D17*
X111065904Y-140481883D03*
%TD*%
D18*
%TO.C,D56*%
X186985235Y-135400710D03*
D19*
X188942860Y-134487854D03*
X191933676Y-133093214D03*
D17*
X193891301Y-132180358D03*
%TD*%
D12*
%TO.C,S61*%
X51151849Y-119163764D03*
D13*
X58651121Y-116095633D03*
D14*
X56136542Y-121488164D03*
D13*
X62252899Y-120202601D03*
D12*
X61121235Y-123812564D03*
%TD*%
%TO.C,S30*%
X212164000Y-108212358D03*
D13*
X214634114Y-100495427D03*
D14*
X217148693Y-105887958D03*
D13*
X220095413Y-100376212D03*
D12*
X222133386Y-103563558D03*
%TD*%
D33*
%TO.C,*%
X156490670Y-179128508D03*
X156490670Y-181338508D03*
D34*
X158640670Y-180238508D03*
X158640670Y-180238508D03*
X161640670Y-180238508D03*
X161640670Y-180238508D03*
D33*
X163790670Y-179128508D03*
X163790670Y-181338508D03*
D35*
X157890670Y-178478508D03*
X160890670Y-178478508D03*
X162390670Y-178478508D03*
%TD*%
D12*
%TO.C,S16*%
X126971456Y-126934594D03*
D13*
X134470728Y-123866463D03*
D14*
X131956149Y-129258994D03*
D13*
X138072506Y-127973431D03*
D12*
X136940842Y-131583394D03*
%TD*%
D10*
%TO.C,_9*%
X203904256Y-102685236D03*
X203849171Y-101423583D03*
X204835331Y-103538409D03*
X204702344Y-100492508D03*
D11*
X205399664Y-101987916D03*
D10*
X206096984Y-103483324D03*
X205963997Y-100437423D03*
X206950157Y-102552249D03*
X206895072Y-101290596D03*
%TD*%
D15*
%TO.C,D66*%
X78717267Y-106640044D03*
D16*
X80674892Y-107552900D03*
X83665708Y-108947540D03*
D17*
X85623333Y-109860396D03*
%TD*%
D18*
%TO.C,D34*%
X194846413Y-109667415D03*
D19*
X196804038Y-108754559D03*
X199794854Y-107359919D03*
D17*
X201752479Y-106447063D03*
%TD*%
D18*
%TO.C,D48*%
X230177770Y-142844149D03*
D19*
X232135395Y-141931293D03*
X235126211Y-140536653D03*
D17*
X237083836Y-139623797D03*
%TD*%
D15*
%TO.C,D8*%
X83197494Y-139623794D03*
D16*
X85155119Y-140536650D03*
X88145935Y-141931290D03*
D17*
X90103560Y-142844146D03*
%TD*%
D36*
%TO.C,D59*%
X199661508Y-170794309D03*
D37*
X201316164Y-169405888D03*
X203844110Y-167284688D03*
D17*
X205498766Y-165896267D03*
%TD*%
M02*
