%TF.GenerationSoftware,KiCad,Pcbnew,7.0.10*%
%TF.CreationDate,2024-01-18T08:47:23+01:00*%
%TF.ProjectId,turbo_go_2,74757262-6f5f-4676-9f5f-322e6b696361,v1.0.0*%
%TF.SameCoordinates,Original*%
%TF.FileFunction,Copper,L1,Top*%
%TF.FilePolarity,Positive*%
%FSLAX46Y46*%
G04 Gerber Fmt 4.6, Leading zero omitted, Abs format (unit mm)*
G04 Created by KiCad (PCBNEW 7.0.10) date 2024-01-18 08:47:23*
%MOMM*%
%LPD*%
G01*
G04 APERTURE LIST*
G04 Aperture macros list*
%AMRotRect*
0 Rectangle, with rotation*
0 The origin of the aperture is its center*
0 $1 length*
0 $2 width*
0 $3 Rotation angle, in degrees counterclockwise*
0 Add horizontal line*
21,1,$1,$2,0,0,$3*%
G04 Aperture macros list end*
%TA.AperFunction,ComponentPad*%
%ADD10C,0.700000*%
%TD*%
%TA.AperFunction,ComponentPad*%
%ADD11C,4.400000*%
%TD*%
%TA.AperFunction,ComponentPad*%
%ADD12RotRect,1.778000X1.778000X335.000000*%
%TD*%
%TA.AperFunction,SMDPad,CuDef*%
%ADD13RotRect,0.900000X1.200000X335.000000*%
%TD*%
%TA.AperFunction,ComponentPad*%
%ADD14C,1.905000*%
%TD*%
%TA.AperFunction,ComponentPad*%
%ADD15RotRect,1.778000X1.778000X25.000000*%
%TD*%
%TA.AperFunction,SMDPad,CuDef*%
%ADD16RotRect,0.900000X1.200000X25.000000*%
%TD*%
%TA.AperFunction,ComponentPad*%
%ADD17R,1.752600X1.752600*%
%TD*%
%TA.AperFunction,ComponentPad*%
%ADD18C,1.752600*%
%TD*%
%TA.AperFunction,SMDPad,CuDef*%
%ADD19R,0.900000X1.700000*%
%TD*%
%TA.AperFunction,ComponentPad*%
%ADD20RotRect,1.778000X1.778000X305.000000*%
%TD*%
%TA.AperFunction,SMDPad,CuDef*%
%ADD21RotRect,0.900000X1.200000X305.000000*%
%TD*%
%TA.AperFunction,ComponentPad*%
%ADD22O,1.700000X1.700000*%
%TD*%
%TA.AperFunction,ComponentPad*%
%ADD23C,1.700000*%
%TD*%
%TA.AperFunction,ComponentPad*%
%ADD24R,1.200000X1.700000*%
%TD*%
%TA.AperFunction,ComponentPad*%
%ADD25O,1.200000X1.700000*%
%TD*%
%TA.AperFunction,ComponentPad*%
%ADD26RotRect,1.778000X1.778000X320.000000*%
%TD*%
%TA.AperFunction,SMDPad,CuDef*%
%ADD27RotRect,0.900000X1.200000X320.000000*%
%TD*%
%TA.AperFunction,ComponentPad*%
%ADD28RotRect,1.778000X1.778000X55.000000*%
%TD*%
%TA.AperFunction,SMDPad,CuDef*%
%ADD29RotRect,0.900000X1.200000X55.000000*%
%TD*%
%TA.AperFunction,SMDPad,CuDef*%
%ADD30R,1.000000X0.800000*%
%TD*%
%TA.AperFunction,SMDPad,CuDef*%
%ADD31R,0.700000X1.500000*%
%TD*%
%TA.AperFunction,ComponentPad*%
%ADD32RotRect,1.778000X1.778000X40.000000*%
%TD*%
%TA.AperFunction,SMDPad,CuDef*%
%ADD33RotRect,0.900000X1.200000X40.000000*%
%TD*%
%TA.AperFunction,ViaPad*%
%ADD34C,0.800000*%
%TD*%
%TA.AperFunction,Conductor*%
%ADD35C,0.200000*%
%TD*%
%TA.AperFunction,Conductor*%
%ADD36C,0.250000*%
%TD*%
G04 APERTURE END LIST*
D10*
%TO.P,_5,1*%
%TO.N,N/C*%
X142209773Y-124661613D03*
X143140848Y-123808440D03*
X142154688Y-125923266D03*
X144402501Y-123863525D03*
D11*
X143705181Y-125358933D03*
D10*
X143007861Y-126854341D03*
X145255674Y-124794600D03*
X144269514Y-126909426D03*
X145200589Y-126056253D03*
%TD*%
D12*
%TO.P,D9,1*%
%TO.N,P18*%
X90382003Y-124216557D03*
D13*
X92339628Y-125129413D03*
%TO.P,D9,2*%
%TO.N,middle_bottom*%
X95330444Y-126524053D03*
D14*
X97288069Y-127436909D03*
%TD*%
D10*
%TO.P,_4,1*%
%TO.N,N/C*%
X99017231Y-132105052D03*
X99948306Y-131251879D03*
X98962146Y-133366705D03*
X101209959Y-131306964D03*
D11*
X100512639Y-132802372D03*
D10*
X99815319Y-134297780D03*
X102063132Y-132238039D03*
X101076972Y-134352865D03*
X102008047Y-133499692D03*
%TD*%
D15*
%TO.P,D23,1*%
%TO.N,P4*%
X248435835Y-96815416D03*
D16*
X250393460Y-95902560D03*
%TO.P,D23,2*%
%TO.N,mirror_pinky_top*%
X253384276Y-94507920D03*
D14*
X255341901Y-93595064D03*
%TD*%
D10*
%TO.P,_2,1*%
%TO.N,N/C*%
X66390154Y-116890794D03*
X67321229Y-116037621D03*
X66335069Y-118152447D03*
X68582882Y-116092706D03*
D11*
X67885562Y-117588114D03*
D10*
X67188242Y-119083522D03*
X69436055Y-117023781D03*
X68449895Y-119138607D03*
X69380970Y-118285434D03*
%TD*%
D15*
%TO.P,D51,1*%
%TO.N,P4*%
X208624239Y-96622443D03*
D16*
X210581864Y-95709587D03*
%TO.P,D51,2*%
%TO.N,mirror_middle_top*%
X213572680Y-94314947D03*
D14*
X215530305Y-93402091D03*
%TD*%
D15*
%TO.P,D46,1*%
%TO.N,P5*%
X234658006Y-109860394D03*
D16*
X236615631Y-108947538D03*
%TO.P,D46,2*%
%TO.N,mirror_ring_home*%
X239606447Y-107552898D03*
D14*
X241564072Y-106640042D03*
%TD*%
D15*
%TO.P,D47,1*%
%TO.N,P4*%
X227473487Y-94453158D03*
D16*
X229431112Y-93540302D03*
%TO.P,D47,2*%
%TO.N,mirror_ring_top*%
X232421928Y-92145662D03*
D14*
X234379553Y-91232806D03*
%TD*%
D15*
%TO.P,D41,1*%
%TO.N,P6*%
X262804852Y-127629890D03*
D16*
X264762477Y-126717034D03*
%TO.P,D41,2*%
%TO.N,mirror_pinky_bottom*%
X267753293Y-125322394D03*
D14*
X269710918Y-124409538D03*
%TD*%
D10*
%TO.P,_12,1*%
%TO.N,N/C*%
X189449768Y-156870728D03*
X189394683Y-155609075D03*
X190380843Y-157723901D03*
X190247856Y-154678000D03*
D11*
X190945176Y-156173408D03*
D10*
X191642496Y-157668816D03*
X191509509Y-154622915D03*
X192495669Y-156737741D03*
X192440584Y-155476088D03*
%TD*%
%TO.P,_6,1*%
%TO.N,N/C*%
X127840751Y-155476085D03*
X128771826Y-154622912D03*
X127785666Y-156737738D03*
X130033479Y-154677997D03*
D11*
X129336159Y-156173405D03*
D10*
X128638839Y-157668813D03*
X130886652Y-155609072D03*
X129900492Y-157723898D03*
X130831567Y-156870725D03*
%TD*%
D15*
%TO.P,D32,1*%
%TO.N,P6*%
X209215425Y-140481884D03*
D16*
X211173050Y-139569028D03*
%TO.P,D32,2*%
%TO.N,mirror_index_bottom*%
X214163866Y-138174388D03*
D14*
X216121491Y-137261532D03*
%TD*%
D10*
%TO.P,_3,1*%
%TO.N,N/C*%
X113386250Y-101290589D03*
X114317325Y-100437416D03*
X113331165Y-102552242D03*
X115578978Y-100492501D03*
D11*
X114881658Y-101987909D03*
D10*
X114184338Y-103483317D03*
X116432151Y-101423576D03*
X115445991Y-103538402D03*
X116377066Y-102685229D03*
%TD*%
D17*
%TO.P,MCU1,1*%
%TO.N,RAW*%
X152520659Y-113881757D03*
D18*
%TO.P,MCU1,2*%
%TO.N,GND*%
X152520659Y-116421757D03*
%TO.P,MCU1,3*%
%TO.N,RST*%
X152520659Y-118961757D03*
%TO.P,MCU1,4*%
%TO.N,VCC*%
X152520659Y-121501757D03*
%TO.P,MCU1,5*%
%TO.N,P21*%
X152520659Y-124041757D03*
%TO.P,MCU1,6*%
%TO.N,P20*%
X152520659Y-126581757D03*
%TO.P,MCU1,7*%
%TO.N,P19*%
X152520659Y-129121757D03*
%TO.P,MCU1,8*%
%TO.N,P18*%
X152520659Y-131661757D03*
%TO.P,MCU1,9*%
%TO.N,P15*%
X152520659Y-134201757D03*
%TO.P,MCU1,10*%
%TO.N,P14*%
X152520659Y-136741757D03*
%TO.P,MCU1,11*%
%TO.N,P16*%
X152520659Y-139281757D03*
%TO.P,MCU1,12*%
%TO.N,P10*%
X152520659Y-141821757D03*
%TO.P,MCU1,13*%
%TO.N,P1*%
X167760659Y-113881757D03*
%TO.P,MCU1,14*%
%TO.N,P0*%
X167760659Y-116421757D03*
%TO.P,MCU1,15*%
%TO.N,GND*%
X167760659Y-118961757D03*
%TO.P,MCU1,16*%
X167760659Y-121501757D03*
%TO.P,MCU1,17*%
%TO.N,P2*%
X167760659Y-124041757D03*
%TO.P,MCU1,18*%
%TO.N,P3*%
X167760659Y-126581757D03*
%TO.P,MCU1,19*%
%TO.N,P4*%
X167760659Y-129121757D03*
%TO.P,MCU1,20*%
%TO.N,P5*%
X167760659Y-131661757D03*
%TO.P,MCU1,21*%
%TO.N,P6*%
X167760659Y-134201757D03*
%TO.P,MCU1,22*%
%TO.N,P7*%
X167760659Y-136741757D03*
%TO.P,MCU1,23*%
%TO.N,P8*%
X167760659Y-139281757D03*
%TO.P,MCU1,24*%
%TO.N,P9*%
X167760659Y-141821757D03*
%TD*%
D12*
%TO.P,D14,1*%
%TO.N,P20*%
X118528853Y-106447062D03*
D13*
X120486478Y-107359918D03*
%TO.P,D14,2*%
%TO.N,index_top*%
X123477294Y-108754558D03*
D14*
X125434919Y-109667414D03*
%TD*%
D19*
%TO.P,,1*%
%TO.N,RST*%
X148640664Y-135151757D03*
%TO.P,,2*%
%TO.N,GND*%
X148640664Y-138551757D03*
%TD*%
D20*
%TO.P,D20,1*%
%TO.N,P15*%
X128189722Y-179055414D03*
D21*
X129428647Y-180824782D03*
%TO.P,D20,2*%
%TO.N,far_cluster*%
X131321449Y-183527984D03*
D14*
X132560374Y-185297352D03*
%TD*%
D12*
%TO.P,D15,1*%
%TO.N,P18*%
X119205520Y-147587586D03*
D13*
X121163145Y-148500442D03*
%TO.P,D15,2*%
%TO.N,inner_bottom*%
X124153961Y-149895082D03*
D14*
X126111586Y-150807938D03*
%TD*%
D12*
%TO.P,D64,1*%
%TO.N,P15*%
X64348247Y-137454510D03*
D13*
X66305872Y-138367366D03*
%TO.P,D64,2*%
%TO.N,ring_mod*%
X69296688Y-139762006D03*
D14*
X71254313Y-140674862D03*
%TD*%
D10*
%TO.P,_10,1*%
%TO.N,N/C*%
X218273287Y-133499694D03*
X218218202Y-132238041D03*
X219204362Y-134352867D03*
X219071375Y-131306966D03*
D11*
X219768695Y-132802374D03*
D10*
X220466015Y-134297782D03*
X220333028Y-131251881D03*
X221319188Y-133366707D03*
X221264103Y-132105054D03*
%TD*%
D12*
%TO.P,D71,1*%
%TO.N,P20*%
X104751029Y-93402083D03*
D13*
X106708654Y-94314939D03*
%TO.P,D71,2*%
%TO.N,middle_top*%
X109699470Y-95709579D03*
D14*
X111657095Y-96622435D03*
%TD*%
D22*
%TO.P,DISP1,1*%
%TO.N,P2*%
X155060664Y-147551749D03*
%TO.P,DISP1,2*%
%TO.N,P3*%
X157600664Y-147551749D03*
%TO.P,DISP1,3*%
%TO.N,VCC*%
X160140664Y-147551749D03*
%TO.P,DISP1,4*%
%TO.N,GND*%
X162680664Y-147551749D03*
D23*
%TO.P,DISP1,5*%
%TO.N,CS*%
X165220664Y-147551749D03*
%TD*%
D15*
%TO.P,D38,1*%
%TO.N,P7*%
X214948874Y-159875893D03*
D16*
X216906499Y-158963037D03*
%TO.P,D38,2*%
%TO.N,mirror_near_cluster*%
X219897315Y-157568397D03*
D14*
X221854940Y-156655541D03*
%TD*%
D10*
%TO.P,_11,1*%
%TO.N,N/C*%
X175080742Y-126056259D03*
X175025657Y-124794606D03*
X176011817Y-126909432D03*
X175878830Y-123863531D03*
D11*
X176576150Y-125358939D03*
D10*
X177273470Y-126854347D03*
X177140483Y-123808446D03*
X178126643Y-125923272D03*
X178071558Y-124661619D03*
%TD*%
D15*
%TO.P,D22,1*%
%TO.N,P5*%
X255620345Y-112222654D03*
D16*
X257577970Y-111309798D03*
%TO.P,D22,2*%
%TO.N,mirror_pinky_home*%
X260568786Y-109915158D03*
D14*
X262526411Y-109002302D03*
%TD*%
D15*
%TO.P,D50,1*%
%TO.N,P5*%
X215808756Y-112029680D03*
D16*
X217766381Y-111116824D03*
%TO.P,D50,2*%
%TO.N,mirror_middle_home*%
X220757197Y-109722184D03*
D14*
X222714822Y-108809328D03*
%TD*%
D10*
%TO.P,_1,1*%
%TO.N,N/C*%
X73574671Y-101483561D03*
X74505746Y-100630388D03*
X73519586Y-102745214D03*
X75767399Y-100685473D03*
D11*
X75070079Y-102180881D03*
D10*
X74372759Y-103676289D03*
X76620572Y-101616548D03*
X75634412Y-103731374D03*
X76565487Y-102878201D03*
%TD*%
D15*
%TO.P,D44,1*%
%TO.N,P7*%
X249027026Y-140674860D03*
D16*
X250984651Y-139762004D03*
%TO.P,D44,2*%
%TO.N,mirror_ring_mod*%
X253975467Y-138367364D03*
D14*
X255933092Y-137454508D03*
%TD*%
D12*
%TO.P,D78,1*%
%TO.N,P15*%
X98426389Y-156655541D03*
D13*
X100384014Y-157568397D03*
%TO.P,D78,2*%
%TO.N,near_cluster*%
X103374830Y-158963037D03*
D14*
X105332455Y-159875893D03*
%TD*%
D15*
%TO.P,D49,1*%
%TO.N,P6*%
X222993264Y-127436908D03*
D16*
X224950889Y-126524052D03*
%TO.P,D49,2*%
%TO.N,mirror_middle_bottom*%
X227941705Y-125129412D03*
D14*
X229899330Y-124216556D03*
%TD*%
D10*
%TO.P,_8,1*%
%TO.N,N/C*%
X250900361Y-118285426D03*
X250845276Y-117023773D03*
X251831436Y-119138599D03*
X251698449Y-116092698D03*
D11*
X252395769Y-117588106D03*
D10*
X253093089Y-119083514D03*
X252960102Y-116037613D03*
X253946262Y-118152439D03*
X253891177Y-116890786D03*
%TD*%
D15*
%TO.P,D33,1*%
%TO.N,P5*%
X202030912Y-125074647D03*
D16*
X203988537Y-124161791D03*
%TO.P,D33,2*%
%TO.N,mirror_index_home*%
X206979353Y-122767151D03*
D14*
X208936978Y-121854295D03*
%TD*%
D12*
%TO.P,D70,1*%
%TO.N,P19*%
X97566520Y-108809324D03*
D13*
X99524145Y-109722180D03*
%TO.P,D70,2*%
%TO.N,middle_home*%
X102514961Y-111116820D03*
D14*
X104472586Y-112029676D03*
%TD*%
D15*
%TO.P,D37,1*%
%TO.N,P4*%
X179800724Y-119993471D03*
D16*
X181758349Y-119080615D03*
%TO.P,D37,2*%
%TO.N,mirror_inner_top*%
X184749165Y-117685975D03*
D14*
X186706790Y-116773119D03*
%TD*%
D12*
%TO.P,D61,1*%
%TO.N,P18*%
X50570422Y-124409534D03*
D13*
X52528047Y-125322390D03*
%TO.P,D61,2*%
%TO.N,pinky_bottom*%
X55518863Y-126717030D03*
D14*
X57476488Y-127629886D03*
%TD*%
D15*
%TO.P,D28,1*%
%TO.N,P7*%
X230177770Y-142844149D03*
D16*
X232135395Y-141931293D03*
%TO.P,D28,2*%
%TO.N,mirror_middle_mod*%
X235126211Y-140536653D03*
D14*
X237083836Y-139623797D03*
%TD*%
D12*
%TO.P,D65,1*%
%TO.N,P18*%
X71532755Y-122047277D03*
D13*
X73490380Y-122960133D03*
%TO.P,D65,2*%
%TO.N,ring_bottom*%
X76481196Y-124354773D03*
D14*
X78438821Y-125267629D03*
%TD*%
D24*
%TO.P,JST1,1*%
%TO.N,pos*%
X171340664Y-134351753D03*
D25*
%TO.P,JST1,2*%
%TO.N,GND*%
X173340664Y-134351753D03*
%TD*%
D12*
%TO.P,D16,1*%
%TO.N,P19*%
X126390037Y-132180353D03*
D13*
X128347662Y-133093209D03*
%TO.P,D16,2*%
%TO.N,inner_home*%
X131338478Y-134487849D03*
D14*
X133296103Y-135400705D03*
%TD*%
D12*
%TO.P,D67,1*%
%TO.N,P20*%
X85901780Y-91232811D03*
D13*
X87859405Y-92145667D03*
%TO.P,D67,2*%
%TO.N,ring_top*%
X90850221Y-93540307D03*
D14*
X92807846Y-94453163D03*
%TD*%
D12*
%TO.P,D62,1*%
%TO.N,P19*%
X57754933Y-109002291D03*
D13*
X59712558Y-109915147D03*
%TO.P,D62,2*%
%TO.N,pinky_home*%
X62703374Y-111309787D03*
D14*
X64660999Y-112222643D03*
%TD*%
D12*
%TO.P,D13,1*%
%TO.N,P19*%
X111344353Y-121854304D03*
D13*
X113301978Y-122767160D03*
%TO.P,D13,2*%
%TO.N,index_home*%
X116292794Y-124161800D03*
D14*
X118250419Y-125074656D03*
%TD*%
D15*
%TO.P,D55,1*%
%TO.N,P6*%
X194169745Y-150807937D03*
D16*
X196127370Y-149895081D03*
%TO.P,D55,2*%
%TO.N,mirror_inner_bottom*%
X199118186Y-148500441D03*
D14*
X201075811Y-147587585D03*
%TD*%
D26*
%TO.P,D79,1*%
%TO.N,P15*%
X114782559Y-165896266D03*
D27*
X116437215Y-167284687D03*
%TO.P,D79,2*%
%TO.N,home_cluster*%
X118965161Y-169405887D03*
D14*
X120619817Y-170794308D03*
%TD*%
D12*
%TO.P,D77,1*%
%TO.N,P20*%
X133574543Y-116773116D03*
D13*
X135532168Y-117685972D03*
%TO.P,D77,2*%
%TO.N,inner_top*%
X138522984Y-119080612D03*
D14*
X140480609Y-119993468D03*
%TD*%
D26*
%TO.P,D19,1*%
%TO.N,P15*%
X114782559Y-165896266D03*
D27*
X116437215Y-167284687D03*
%TO.P,D19,2*%
%TO.N,home_cluster*%
X118965161Y-169405887D03*
D14*
X120619817Y-170794308D03*
%TD*%
D10*
%TO.P,_7,1*%
%TO.N,N/C*%
X243715850Y-102878197D03*
X243660765Y-101616544D03*
X244646925Y-103731370D03*
X244513938Y-100685469D03*
D11*
X245211258Y-102180877D03*
D10*
X245908578Y-103676285D03*
X245775591Y-100630384D03*
X246761751Y-102745210D03*
X246706666Y-101483557D03*
%TD*%
D28*
%TO.P,D60,1*%
%TO.N,P7*%
X187720954Y-185297358D03*
D29*
X188959879Y-183527990D03*
%TO.P,D60,2*%
%TO.N,mirror_far_cluster*%
X190852681Y-180824788D03*
D14*
X192091606Y-179055420D03*
%TD*%
D15*
%TO.P,D25,1*%
%TO.N,P6*%
X241842513Y-125267628D03*
D16*
X243800138Y-124354772D03*
%TO.P,D25,2*%
%TO.N,mirror_ring_bottom*%
X246790954Y-122960132D03*
D14*
X248748579Y-122047276D03*
%TD*%
D12*
%TO.P,D3,1*%
%TO.N,P20*%
X64939442Y-93595066D03*
D13*
X66897067Y-94507922D03*
%TO.P,D3,2*%
%TO.N,pinky_top*%
X69887883Y-95902562D03*
D14*
X71845508Y-96815418D03*
%TD*%
D15*
%TO.P,D54,1*%
%TO.N,P4*%
X194846413Y-109667415D03*
D16*
X196804038Y-108754559D03*
%TO.P,D54,2*%
%TO.N,mirror_index_top*%
X199794854Y-107359919D03*
D14*
X201752479Y-106447063D03*
%TD*%
D12*
%TO.P,D12,1*%
%TO.N,P18*%
X104159838Y-137261531D03*
D13*
X106117463Y-138174387D03*
%TO.P,D12,2*%
%TO.N,index_bottom*%
X109108279Y-139569027D03*
D14*
X111065904Y-140481883D03*
%TD*%
D15*
%TO.P,D56,1*%
%TO.N,P5*%
X186985235Y-135400710D03*
D16*
X188942860Y-134487854D03*
%TO.P,D56,2*%
%TO.N,mirror_inner_home*%
X191933676Y-133093214D03*
D14*
X193891301Y-132180358D03*
%TD*%
D30*
%TO.P,,*%
%TO.N,*%
X156490670Y-179128508D03*
X156490670Y-181338508D03*
X163790670Y-179128508D03*
X163790670Y-181338508D03*
D31*
%TO.P,,1*%
%TO.N,pos*%
X157890670Y-178478508D03*
%TO.P,,2*%
%TO.N,RAW*%
X160890670Y-178478508D03*
%TO.P,,3*%
%TO.N,N/C*%
X162390670Y-178478508D03*
%TD*%
D10*
%TO.P,_9,1*%
%TO.N,N/C*%
X203904256Y-102685236D03*
X203849171Y-101423583D03*
X204835331Y-103538409D03*
X204702344Y-100492508D03*
D11*
X205399664Y-101987916D03*
D10*
X206096984Y-103483324D03*
X205963997Y-100437423D03*
X206950157Y-102552249D03*
X206895072Y-101290596D03*
%TD*%
D12*
%TO.P,D66,1*%
%TO.N,P19*%
X78717267Y-106640044D03*
D13*
X80674892Y-107552900D03*
%TO.P,D66,2*%
%TO.N,ring_home*%
X83665708Y-108947540D03*
D14*
X85623333Y-109860396D03*
%TD*%
D15*
%TO.P,D34,1*%
%TO.N,P4*%
X194846413Y-109667415D03*
D16*
X196804038Y-108754559D03*
%TO.P,D34,2*%
%TO.N,mirror_index_top*%
X199794854Y-107359919D03*
D14*
X201752479Y-106447063D03*
%TD*%
D15*
%TO.P,D48,1*%
%TO.N,P7*%
X230177770Y-142844149D03*
D16*
X232135395Y-141931293D03*
%TO.P,D48,2*%
%TO.N,mirror_middle_mod*%
X235126211Y-140536653D03*
D14*
X237083836Y-139623797D03*
%TD*%
D12*
%TO.P,D8,1*%
%TO.N,P15*%
X83197494Y-139623794D03*
D13*
X85155119Y-140536650D03*
%TO.P,D8,2*%
%TO.N,middle_mod*%
X88145935Y-141931290D03*
D14*
X90103560Y-142844146D03*
%TD*%
D32*
%TO.P,D59,1*%
%TO.N,P7*%
X199661508Y-170794309D03*
D33*
X201316164Y-169405888D03*
%TO.P,D59,2*%
%TO.N,mirror_home_cluster*%
X203844110Y-167284688D03*
D14*
X205498766Y-165896267D03*
%TD*%
D34*
%TO.N,P10*%
X173058589Y-181783652D03*
X147245558Y-181834293D03*
%TO.N,P9*%
X173655627Y-180981440D03*
X146671985Y-181015143D03*
%TO.N,P16*%
X174238272Y-180168708D03*
X146098405Y-180195994D03*
%TO.N,P8*%
X174858593Y-179383659D03*
X145524833Y-179376834D03*
%TO.N,P14*%
X144951249Y-178557687D03*
X175413291Y-178551608D03*
%TO.N,RAW*%
X160183079Y-176202800D03*
%TO.N,RST*%
X146563189Y-135170535D03*
%TO.N,pos*%
X162383077Y-175402802D03*
%TD*%
D35*
%TO.N,P10*%
X165977735Y-174702802D02*
X154377046Y-174702795D01*
X154377046Y-174702795D02*
X147245558Y-181834293D01*
X173058589Y-181783652D02*
X165977735Y-174702802D01*
D36*
%TO.N,pinky_bottom*%
X57476476Y-127629880D02*
X55518852Y-126717024D01*
%TO.N,pinky_home*%
X64660991Y-112222645D02*
X62703362Y-111309789D01*
%TO.N,pinky_top*%
X71845497Y-96815416D02*
X69887873Y-95902563D01*
%TO.N,ring_mod*%
X71254310Y-140674854D02*
X69296682Y-139762007D01*
%TO.N,P9*%
X146671985Y-181015143D02*
X153409324Y-174277798D01*
X166951985Y-174277797D02*
X173655627Y-180981440D01*
X153409324Y-174277798D02*
X166951985Y-174277797D01*
%TO.N,ring_bottom*%
X78438823Y-125267619D02*
X76481194Y-124354765D01*
%TO.N,ring_home*%
X85623335Y-109860389D02*
X83665707Y-108947540D01*
%TO.N,ring_top*%
X92807836Y-94453164D02*
X90850213Y-93540307D01*
%TO.N,middle_mod*%
X90103556Y-142844137D02*
X88145935Y-141931283D01*
%TO.N,P16*%
X146098405Y-180195994D02*
X146183085Y-180002794D01*
D35*
X167922360Y-173852798D02*
X152441597Y-173852799D01*
D36*
X144226251Y-147576163D02*
X144226251Y-179103560D01*
X144226251Y-179103560D02*
X145318683Y-180195990D01*
X152520660Y-139281757D02*
X144226251Y-147576163D01*
D35*
X152441597Y-173852799D02*
X146098405Y-180195994D01*
D36*
X145318683Y-180195990D02*
X146098405Y-180195994D01*
D35*
X174238272Y-180168708D02*
X167922360Y-173852798D01*
D36*
%TO.N,middle_bottom*%
X97288078Y-127436915D02*
X95330442Y-126524047D01*
%TO.N,middle_home*%
X104472592Y-112029672D02*
X102514955Y-111116812D01*
%TO.N,middle_top*%
X111657102Y-96622440D02*
X109699476Y-95709593D01*
%TO.N,P8*%
X151473864Y-173427801D02*
X168902731Y-173427799D01*
X168902731Y-173427799D02*
X174858593Y-179383659D01*
X145524833Y-179376834D02*
X151473864Y-173427801D01*
X167760659Y-139281758D02*
X176138290Y-147659393D01*
X176138290Y-147659393D02*
X176138292Y-178851911D01*
X175606545Y-179383658D02*
X174858593Y-179383659D01*
X176138292Y-178851911D02*
X175606545Y-179383658D01*
%TO.N,index_bottom*%
X111065900Y-140481887D02*
X109108279Y-139569026D01*
%TO.N,index_home*%
X118250409Y-125074660D02*
X116292784Y-124161789D01*
%TO.N,index_top*%
X125434919Y-109667413D02*
X123477299Y-108754558D01*
%TO.N,P14*%
X169839484Y-172977800D02*
X150531146Y-172977798D01*
X175413291Y-178551608D02*
X169839484Y-172977800D01*
X150531146Y-172977798D02*
X144951249Y-178557687D01*
%TO.N,inner_bottom*%
X126111591Y-150807936D02*
X124153960Y-149895078D01*
%TO.N,inner_home*%
X133296099Y-135400701D02*
X131338484Y-134487850D01*
%TO.N,inner_top*%
X140480603Y-119993475D02*
X138522983Y-119080620D01*
%TO.N,near_cluster*%
X103374835Y-158963041D02*
X105332475Y-159875888D01*
%TO.N,home_cluster*%
X118965170Y-169405897D02*
X120619825Y-170794312D01*
%TO.N,far_cluster*%
X132560385Y-185297357D02*
X131321454Y-183527993D01*
%TO.N,mirror_pinky_bottom*%
X269710916Y-124409539D02*
X267753292Y-125322393D01*
%TO.N,mirror_pinky_home*%
X262526415Y-109002299D02*
X260568788Y-109915154D01*
%TO.N,mirror_pinky_top*%
X255341899Y-93595068D02*
X253384269Y-94507920D01*
%TO.N,mirror_ring_mod*%
X255933089Y-137454496D02*
X253975460Y-138367364D01*
%TO.N,mirror_ring_bottom*%
X248748588Y-122047283D02*
X246790953Y-122960133D01*
%TO.N,mirror_ring_home*%
X241564069Y-106640047D02*
X239606442Y-107552899D01*
%TO.N,mirror_ring_top*%
X234379555Y-91232813D02*
X232421932Y-92145675D01*
%TO.N,mirror_middle_mod*%
X235126215Y-140536644D02*
X237083833Y-139623793D01*
%TO.N,mirror_middle_bottom*%
X229899327Y-124216558D02*
X227941698Y-125129410D01*
%TO.N,mirror_middle_home*%
X222714819Y-108809318D02*
X220757190Y-109722183D01*
%TO.N,mirror_middle_top*%
X215530315Y-93402099D02*
X213572686Y-94314944D01*
%TO.N,mirror_index_bottom*%
X214163872Y-138174387D02*
X216121494Y-137261529D01*
%TO.N,mirror_index_home*%
X206979357Y-122767158D02*
X208936988Y-121854297D01*
%TO.N,mirror_index_top*%
X201752474Y-106447067D02*
X199794852Y-107359918D01*
%TO.N,mirror_inner_bottom*%
X199118190Y-148500434D02*
X201075810Y-147587587D01*
%TO.N,mirror_inner_home*%
X191933669Y-133093209D02*
X193891303Y-132180351D01*
%TO.N,mirror_inner_top*%
X186706790Y-116773118D02*
X184749164Y-117685979D01*
%TO.N,mirror_near_cluster*%
X221854931Y-156655542D02*
X219897315Y-157568393D01*
%TO.N,mirror_home_cluster*%
X205498768Y-165896275D02*
X203844111Y-167284693D01*
%TO.N,mirror_far_cluster*%
X190852682Y-180824783D02*
X192091608Y-179055419D01*
%TO.N,P18*%
X73490390Y-122960141D02*
X75188084Y-122342219D01*
X95253862Y-133136188D02*
X104126617Y-137273624D01*
X84106143Y-126500777D02*
X90381999Y-124216557D01*
X90381999Y-124216557D02*
X92339634Y-125129415D01*
X145887716Y-131661755D02*
X135747384Y-141802102D01*
X107568527Y-142161161D02*
X119205531Y-147587582D01*
X133657985Y-142603490D02*
X135724402Y-141851372D01*
X152520667Y-131661750D02*
X145887716Y-131661755D01*
X71532757Y-122047276D02*
X73490390Y-122960141D01*
X129516909Y-141884361D02*
X130976534Y-141353102D01*
X121163147Y-148500438D02*
X127508768Y-146190824D01*
X50570422Y-124409531D02*
X52528049Y-125322381D01*
X135724402Y-141851372D02*
X135747384Y-141802102D01*
X61664400Y-121997014D02*
X66050934Y-124042496D01*
X106117459Y-138174388D02*
X107568527Y-142161161D01*
X66050934Y-124042496D02*
X71532757Y-122047276D01*
X130976534Y-141353102D02*
X133657985Y-142603490D01*
X119205531Y-147587582D02*
X121163147Y-148500438D01*
X127508768Y-146190824D02*
X129516909Y-141884361D01*
X52528049Y-125322381D02*
X61664400Y-121997014D01*
X104126617Y-137273624D02*
X104159835Y-137261538D01*
X92339634Y-125129415D02*
X95253862Y-133136188D01*
X75188084Y-122342219D02*
X84106143Y-126500777D01*
X104159835Y-137261538D02*
X106117459Y-138174388D01*
%TO.N,P19*%
X126390034Y-132180346D02*
X128347659Y-133093211D01*
X57754925Y-109002302D02*
X59712555Y-109915151D01*
X113301975Y-122767155D02*
X114753043Y-126753927D01*
X82372589Y-106934985D02*
X91290665Y-111093542D01*
X152520663Y-129121750D02*
X144864124Y-129121757D01*
X99460748Y-109858128D02*
X102290331Y-117632338D01*
X73235443Y-108635267D02*
X78717271Y-106640043D01*
X131283284Y-132024728D02*
X136383073Y-134402797D01*
X59712555Y-109915151D02*
X68848915Y-106589780D01*
X97566517Y-108809327D02*
X99524152Y-109722183D01*
X102290331Y-117632338D02*
X111344347Y-121854297D01*
X80674903Y-107552893D02*
X82372589Y-106934985D01*
X99524152Y-109722183D02*
X99460748Y-109858128D01*
X144864124Y-129121757D02*
X139583078Y-134402792D01*
X68848915Y-106589780D02*
X73235443Y-108635267D01*
X128347659Y-133093211D02*
X131283284Y-132024728D01*
X111344347Y-121854297D02*
X113301975Y-122767155D01*
X78717271Y-106640043D02*
X80674903Y-107552893D01*
X91290665Y-111093542D02*
X97566517Y-108809327D01*
X139583078Y-134402792D02*
X136383073Y-134402797D01*
X114753043Y-126753927D02*
X126390034Y-132180346D01*
%TO.N,P20*%
X80419957Y-93228028D02*
X85901781Y-91232808D01*
X121937554Y-111346699D02*
X133574545Y-116773117D01*
X89557105Y-91527757D02*
X98475175Y-95686319D01*
X120486487Y-107359919D02*
X121937554Y-111346699D01*
X98475175Y-95686319D02*
X104751027Y-93402092D01*
X133574545Y-116773117D02*
X135532165Y-117685974D01*
X85901781Y-91232808D02*
X87859405Y-92145661D01*
X109622875Y-102321728D02*
X118495641Y-106459157D01*
X118495641Y-106459157D02*
X118528858Y-106447069D01*
X106708642Y-94314950D02*
X109622875Y-102321728D01*
X135532165Y-117685974D02*
X138500248Y-116605682D01*
X104751027Y-93402092D02*
X106708642Y-94314950D01*
X87859405Y-92145661D02*
X89557105Y-91527757D01*
X144541714Y-118602796D02*
X152520666Y-126581756D01*
X75182008Y-91492449D02*
X75186931Y-91481897D01*
X75186931Y-91481897D02*
X76022878Y-91177639D01*
X142783081Y-118602800D02*
X144541714Y-118602796D01*
X76022878Y-91177639D02*
X80419957Y-93228028D01*
X66897064Y-94507928D02*
X75182008Y-91492449D01*
X64939439Y-93595067D02*
X66897064Y-94507928D01*
X138500248Y-116605682D02*
X142783081Y-118602800D01*
X118528858Y-106447069D02*
X120486487Y-107359919D01*
%TO.N,P15*%
X144860418Y-133325460D02*
X138983078Y-139202800D01*
X102081719Y-156950486D02*
X113457237Y-162254974D01*
X83197494Y-139623791D02*
X85155122Y-140536643D01*
X152520661Y-134201755D02*
X151644372Y-133325459D01*
X116437213Y-167284690D02*
X118973485Y-167062802D01*
X85155122Y-140536643D02*
X85091723Y-140672581D01*
X138983078Y-139202800D02*
X138983076Y-164002796D01*
X128189724Y-174796145D02*
X128189723Y-179055411D01*
X116437213Y-167284690D02*
X114782571Y-165896275D01*
X113457237Y-162254974D02*
X114782568Y-165896275D01*
X100384014Y-157568396D02*
X102081719Y-156950486D01*
X98426397Y-156655548D02*
X100384014Y-157568396D01*
X89372381Y-152433578D02*
X98426397Y-156655548D01*
X68003575Y-137749443D02*
X76921641Y-141908014D01*
X64348248Y-137454514D02*
X66305874Y-138367363D01*
X138983076Y-164002796D02*
X128189724Y-174796145D01*
X118973485Y-167062802D02*
X128189724Y-174796145D01*
X76921641Y-141908014D02*
X83197494Y-139623791D01*
X129428654Y-180824786D02*
X128189721Y-179055410D01*
X66305874Y-138367363D02*
X68003575Y-137749443D01*
X85091723Y-140672581D02*
X89372381Y-152433578D01*
X151644372Y-133325459D02*
X144860418Y-133325460D01*
%TO.N,P6*%
X183361713Y-149802798D02*
X189357565Y-149802795D01*
X222693052Y-127327645D02*
X222993265Y-127436903D01*
X232924449Y-129426190D02*
X241842518Y-125267630D01*
X190256482Y-149383626D02*
X189357565Y-149802795D01*
X196127369Y-149895083D02*
X194169752Y-150807930D01*
X250769656Y-126891476D02*
X243800137Y-124354781D01*
X262804852Y-127629882D02*
X255156182Y-124845989D01*
X167760658Y-134201756D02*
X183361713Y-149802798D01*
X255156182Y-124845989D02*
X250769656Y-126891476D01*
X224950885Y-126524062D02*
X222993265Y-127436903D01*
X209215428Y-140481884D02*
X197578442Y-145908308D01*
X214184458Y-131295267D02*
X222693052Y-127327645D01*
X264762477Y-126717033D02*
X262804852Y-127629882D01*
X194169752Y-150807930D02*
X190256482Y-149383626D01*
X197578442Y-145908308D02*
X196127369Y-149895083D01*
X211173056Y-139569030D02*
X209215428Y-140481884D01*
X241842518Y-125267630D02*
X243800137Y-124354781D01*
X224950885Y-126524062D02*
X232924449Y-129426190D01*
X211173056Y-139569030D02*
X214184458Y-131295267D01*
%TO.N,P5*%
X203988543Y-124161791D02*
X206999941Y-115888030D01*
X186985232Y-135400707D02*
X188942861Y-134487843D01*
X247440092Y-109245279D02*
X255620346Y-112222652D01*
X190393931Y-130501066D02*
X202030919Y-125074645D01*
X179442042Y-131661746D02*
X182183072Y-134402788D01*
X206999941Y-115888030D02*
X215508549Y-111920413D01*
X215508549Y-111920413D02*
X215808752Y-112029672D01*
X186985232Y-135400707D02*
X186082010Y-135821886D01*
X257577977Y-111309790D02*
X255620346Y-112222652D01*
X188942861Y-134487843D02*
X190393931Y-130501066D01*
X243053573Y-111290760D02*
X247440092Y-109245279D01*
X225739933Y-114018958D02*
X234658000Y-109860389D01*
X217766373Y-111116816D02*
X225739933Y-114018958D01*
X186082010Y-135821886D02*
X182183072Y-134402788D01*
X217766373Y-111116816D02*
X215808752Y-112029672D01*
X234658000Y-109860389D02*
X236615623Y-108947534D01*
X202030919Y-125074645D02*
X203988543Y-124161791D01*
X236615623Y-108947534D02*
X243053573Y-111290760D01*
X167760655Y-131661755D02*
X179442042Y-131661746D01*
%TO.N,P4*%
X196804037Y-108754549D02*
X194846405Y-109667414D01*
X210581870Y-95709583D02*
X208624249Y-96622435D01*
X218555427Y-98611725D02*
X210581870Y-95709583D01*
X167760664Y-129121754D02*
X174731350Y-122151064D01*
X235869047Y-95883533D02*
X240255588Y-93838045D01*
X208624249Y-96622435D02*
X208324035Y-96513187D01*
X199815437Y-100480801D02*
X196804037Y-108754549D01*
X183209423Y-115093833D02*
X181758351Y-119080613D01*
X240255588Y-93838045D02*
X248435832Y-96815415D01*
X227473482Y-94453173D02*
X229431110Y-93540304D01*
X194846405Y-109667414D02*
X183209423Y-115093833D01*
X229431110Y-93540304D02*
X235869047Y-95883533D01*
X227473482Y-94453173D02*
X218555427Y-98611725D01*
X174731350Y-122151064D02*
X176888951Y-119993469D01*
X250393456Y-95902565D02*
X248435832Y-96815415D01*
X208324035Y-96513187D02*
X199815437Y-100480801D01*
X176888951Y-119993469D02*
X179800730Y-119993468D01*
X179800728Y-119993471D02*
X181758351Y-119080613D01*
%TO.N,P7*%
X195025434Y-170388718D02*
X190506976Y-165003837D01*
X187720966Y-185297358D02*
X188959884Y-183527986D01*
X240108957Y-144833417D02*
X232135403Y-141931291D01*
X190506976Y-165003837D02*
X190583087Y-164133977D01*
X216906503Y-158963035D02*
X214948873Y-159875888D01*
X202707101Y-165584322D02*
X201316169Y-169405898D01*
X199661517Y-170794306D02*
X189314320Y-179476630D01*
X232135403Y-141931291D02*
X230177779Y-142844147D01*
X190583083Y-159564171D02*
X190583087Y-164133977D01*
X189314320Y-179476630D02*
X188959879Y-183527982D01*
X214948873Y-159875888D02*
X202707101Y-165584322D01*
X249027023Y-140674855D02*
X240108957Y-144833417D01*
X167760671Y-136741755D02*
X190583083Y-159564171D01*
X230177779Y-142844147D02*
X227650060Y-149788977D01*
X218731982Y-153947538D02*
X216906503Y-158963035D01*
X227650060Y-149788977D02*
X218731982Y-153947538D01*
X201316170Y-169405891D02*
X199661518Y-170794319D01*
X199661517Y-170794306D02*
X195025434Y-170388718D01*
X249027023Y-140674855D02*
X250984644Y-139762002D01*
%TO.N,RAW*%
X160890661Y-178478501D02*
X160890662Y-176910389D01*
X160890662Y-176910389D02*
X160183079Y-176202800D01*
%TO.N,GND*%
X162680671Y-149305198D02*
X162680673Y-147551755D01*
X156783079Y-137402790D02*
X156783077Y-141402793D01*
X151651963Y-135540460D02*
X154920739Y-135540461D01*
X151183077Y-147002793D02*
X151183082Y-149002796D01*
X160783080Y-151202793D02*
X162680671Y-149305198D01*
X153383073Y-151202799D02*
X160783080Y-151202793D01*
X148640666Y-138551759D02*
X151651963Y-135540460D01*
X154920739Y-135540461D02*
X156783079Y-137402790D01*
X156783077Y-141402793D02*
X151183077Y-147002793D01*
X165220671Y-116421758D02*
X167760664Y-118961756D01*
X151183082Y-149002796D02*
X153383073Y-151202799D01*
X152520663Y-116421755D02*
X165220671Y-116421758D01*
%TO.N,RST*%
X146563189Y-135170535D02*
X146581965Y-135151758D01*
X146581965Y-135151758D02*
X148640665Y-135151758D01*
%TO.N,VCC*%
X157583080Y-126564166D02*
X152520666Y-121501754D01*
X153885672Y-148038462D02*
X153885664Y-144936599D01*
X157583081Y-141239189D02*
X157583080Y-126564166D01*
X160140663Y-147551755D02*
X158965681Y-148726763D01*
X153885664Y-144936599D02*
X157583081Y-141239189D01*
X158965681Y-148726763D02*
X154573969Y-148726751D01*
X154573969Y-148726751D02*
X153885672Y-148038462D01*
%TO.N,P2*%
X155060662Y-147551756D02*
X155060669Y-145688808D01*
X160464880Y-131337543D02*
X167760666Y-124041755D01*
X160464877Y-140284598D02*
X160464880Y-131337543D01*
X155060669Y-145688808D02*
X160464877Y-140284598D01*
%TO.N,P3*%
X160983083Y-133359343D02*
X167760671Y-126581757D01*
X157600658Y-143785210D02*
X160983079Y-140402801D01*
X160983079Y-140402801D02*
X160983083Y-133359343D01*
X157600670Y-147551756D02*
X157600658Y-143785210D01*
%TO.N,pos*%
X157890680Y-177469903D02*
X159957769Y-175402800D01*
X157890674Y-178478502D02*
X157890680Y-177469903D01*
X159957769Y-175402800D02*
X162383077Y-175402802D01*
%TD*%
M02*
