%TF.GenerationSoftware,KiCad,Pcbnew,7.0.10*%
%TF.CreationDate,2024-01-18T08:47:23+01:00*%
%TF.ProjectId,turbo_go_2,74757262-6f5f-4676-9f5f-322e6b696361,v1.0.0*%
%TF.SameCoordinates,Original*%
%TF.FileFunction,Legend,Top*%
%TF.FilePolarity,Positive*%
%FSLAX46Y46*%
G04 Gerber Fmt 4.6, Leading zero omitted, Abs format (unit mm)*
G04 Created by KiCad (PCBNEW 7.0.10) date 2024-01-18 08:47:23*
%MOMM*%
%LPD*%
G01*
G04 APERTURE LIST*
%ADD10C,0.150000*%
%ADD11C,0.100000*%
%ADD12C,0.120000*%
%ADD13R,1.752600X1.752600*%
%ADD14C,1.752600*%
G04 APERTURE END LIST*
D10*
X163969230Y-114244052D02*
X163969230Y-113444052D01*
X163969230Y-113444052D02*
X164273992Y-113444052D01*
X164273992Y-113444052D02*
X164350182Y-113482147D01*
X164350182Y-113482147D02*
X164388277Y-113520242D01*
X164388277Y-113520242D02*
X164426373Y-113596433D01*
X164426373Y-113596433D02*
X164426373Y-113710718D01*
X164426373Y-113710718D02*
X164388277Y-113786909D01*
X164388277Y-113786909D02*
X164350182Y-113825004D01*
X164350182Y-113825004D02*
X164273992Y-113863099D01*
X164273992Y-113863099D02*
X163969230Y-113863099D01*
X164921611Y-113444052D02*
X164997801Y-113444052D01*
X164997801Y-113444052D02*
X165073992Y-113482147D01*
X165073992Y-113482147D02*
X165112087Y-113520242D01*
X165112087Y-113520242D02*
X165150182Y-113596433D01*
X165150182Y-113596433D02*
X165188277Y-113748814D01*
X165188277Y-113748814D02*
X165188277Y-113939290D01*
X165188277Y-113939290D02*
X165150182Y-114091671D01*
X165150182Y-114091671D02*
X165112087Y-114167861D01*
X165112087Y-114167861D02*
X165073992Y-114205957D01*
X165073992Y-114205957D02*
X164997801Y-114244052D01*
X164997801Y-114244052D02*
X164921611Y-114244052D01*
X164921611Y-114244052D02*
X164845420Y-114205957D01*
X164845420Y-114205957D02*
X164807325Y-114167861D01*
X164807325Y-114167861D02*
X164769230Y-114091671D01*
X164769230Y-114091671D02*
X164731134Y-113939290D01*
X164731134Y-113939290D02*
X164731134Y-113748814D01*
X164731134Y-113748814D02*
X164769230Y-113596433D01*
X164769230Y-113596433D02*
X164807325Y-113520242D01*
X164807325Y-113520242D02*
X164845420Y-113482147D01*
X164845420Y-113482147D02*
X164921611Y-113444052D01*
X165950182Y-114244052D02*
X165493039Y-114244052D01*
X165721611Y-114244052D02*
X165721611Y-113444052D01*
X165721611Y-113444052D02*
X165645420Y-113558337D01*
X165645420Y-113558337D02*
X165569230Y-113634528D01*
X165569230Y-113634528D02*
X165493039Y-113672623D01*
X154369230Y-142184052D02*
X154369230Y-141384052D01*
X154369230Y-141384052D02*
X154673992Y-141384052D01*
X154673992Y-141384052D02*
X154750182Y-141422147D01*
X154750182Y-141422147D02*
X154788277Y-141460242D01*
X154788277Y-141460242D02*
X154826373Y-141536433D01*
X154826373Y-141536433D02*
X154826373Y-141650718D01*
X154826373Y-141650718D02*
X154788277Y-141726909D01*
X154788277Y-141726909D02*
X154750182Y-141765004D01*
X154750182Y-141765004D02*
X154673992Y-141803099D01*
X154673992Y-141803099D02*
X154369230Y-141803099D01*
X155588277Y-142184052D02*
X155131134Y-142184052D01*
X155359706Y-142184052D02*
X155359706Y-141384052D01*
X155359706Y-141384052D02*
X155283515Y-141498337D01*
X155283515Y-141498337D02*
X155207325Y-141574528D01*
X155207325Y-141574528D02*
X155131134Y-141612623D01*
X156083516Y-141384052D02*
X156159706Y-141384052D01*
X156159706Y-141384052D02*
X156235897Y-141422147D01*
X156235897Y-141422147D02*
X156273992Y-141460242D01*
X156273992Y-141460242D02*
X156312087Y-141536433D01*
X156312087Y-141536433D02*
X156350182Y-141688814D01*
X156350182Y-141688814D02*
X156350182Y-141879290D01*
X156350182Y-141879290D02*
X156312087Y-142031671D01*
X156312087Y-142031671D02*
X156273992Y-142107861D01*
X156273992Y-142107861D02*
X156235897Y-142145957D01*
X156235897Y-142145957D02*
X156159706Y-142184052D01*
X156159706Y-142184052D02*
X156083516Y-142184052D01*
X156083516Y-142184052D02*
X156007325Y-142145957D01*
X156007325Y-142145957D02*
X155969230Y-142107861D01*
X155969230Y-142107861D02*
X155931135Y-142031671D01*
X155931135Y-142031671D02*
X155893039Y-141879290D01*
X155893039Y-141879290D02*
X155893039Y-141688814D01*
X155893039Y-141688814D02*
X155931135Y-141536433D01*
X155931135Y-141536433D02*
X155969230Y-141460242D01*
X155969230Y-141460242D02*
X156007325Y-141422147D01*
X156007325Y-141422147D02*
X156083516Y-141384052D01*
X154369230Y-139644052D02*
X154369230Y-138844052D01*
X154369230Y-138844052D02*
X154673992Y-138844052D01*
X154673992Y-138844052D02*
X154750182Y-138882147D01*
X154750182Y-138882147D02*
X154788277Y-138920242D01*
X154788277Y-138920242D02*
X154826373Y-138996433D01*
X154826373Y-138996433D02*
X154826373Y-139110718D01*
X154826373Y-139110718D02*
X154788277Y-139186909D01*
X154788277Y-139186909D02*
X154750182Y-139225004D01*
X154750182Y-139225004D02*
X154673992Y-139263099D01*
X154673992Y-139263099D02*
X154369230Y-139263099D01*
X155588277Y-139644052D02*
X155131134Y-139644052D01*
X155359706Y-139644052D02*
X155359706Y-138844052D01*
X155359706Y-138844052D02*
X155283515Y-138958337D01*
X155283515Y-138958337D02*
X155207325Y-139034528D01*
X155207325Y-139034528D02*
X155131134Y-139072623D01*
X156273992Y-138844052D02*
X156121611Y-138844052D01*
X156121611Y-138844052D02*
X156045420Y-138882147D01*
X156045420Y-138882147D02*
X156007325Y-138920242D01*
X156007325Y-138920242D02*
X155931135Y-139034528D01*
X155931135Y-139034528D02*
X155893039Y-139186909D01*
X155893039Y-139186909D02*
X155893039Y-139491671D01*
X155893039Y-139491671D02*
X155931135Y-139567861D01*
X155931135Y-139567861D02*
X155969230Y-139605957D01*
X155969230Y-139605957D02*
X156045420Y-139644052D01*
X156045420Y-139644052D02*
X156197801Y-139644052D01*
X156197801Y-139644052D02*
X156273992Y-139605957D01*
X156273992Y-139605957D02*
X156312087Y-139567861D01*
X156312087Y-139567861D02*
X156350182Y-139491671D01*
X156350182Y-139491671D02*
X156350182Y-139301195D01*
X156350182Y-139301195D02*
X156312087Y-139225004D01*
X156312087Y-139225004D02*
X156273992Y-139186909D01*
X156273992Y-139186909D02*
X156197801Y-139148814D01*
X156197801Y-139148814D02*
X156045420Y-139148814D01*
X156045420Y-139148814D02*
X155969230Y-139186909D01*
X155969230Y-139186909D02*
X155931135Y-139225004D01*
X155931135Y-139225004D02*
X155893039Y-139301195D01*
X154273992Y-121064052D02*
X154540659Y-121864052D01*
X154540659Y-121864052D02*
X154807325Y-121064052D01*
X155531135Y-121787861D02*
X155493039Y-121825957D01*
X155493039Y-121825957D02*
X155378754Y-121864052D01*
X155378754Y-121864052D02*
X155302563Y-121864052D01*
X155302563Y-121864052D02*
X155188277Y-121825957D01*
X155188277Y-121825957D02*
X155112087Y-121749766D01*
X155112087Y-121749766D02*
X155073992Y-121673576D01*
X155073992Y-121673576D02*
X155035896Y-121521195D01*
X155035896Y-121521195D02*
X155035896Y-121406909D01*
X155035896Y-121406909D02*
X155073992Y-121254528D01*
X155073992Y-121254528D02*
X155112087Y-121178337D01*
X155112087Y-121178337D02*
X155188277Y-121102147D01*
X155188277Y-121102147D02*
X155302563Y-121064052D01*
X155302563Y-121064052D02*
X155378754Y-121064052D01*
X155378754Y-121064052D02*
X155493039Y-121102147D01*
X155493039Y-121102147D02*
X155531135Y-121140242D01*
X156331135Y-121787861D02*
X156293039Y-121825957D01*
X156293039Y-121825957D02*
X156178754Y-121864052D01*
X156178754Y-121864052D02*
X156102563Y-121864052D01*
X156102563Y-121864052D02*
X155988277Y-121825957D01*
X155988277Y-121825957D02*
X155912087Y-121749766D01*
X155912087Y-121749766D02*
X155873992Y-121673576D01*
X155873992Y-121673576D02*
X155835896Y-121521195D01*
X155835896Y-121521195D02*
X155835896Y-121406909D01*
X155835896Y-121406909D02*
X155873992Y-121254528D01*
X155873992Y-121254528D02*
X155912087Y-121178337D01*
X155912087Y-121178337D02*
X155988277Y-121102147D01*
X155988277Y-121102147D02*
X156102563Y-121064052D01*
X156102563Y-121064052D02*
X156178754Y-121064052D01*
X156178754Y-121064052D02*
X156293039Y-121102147D01*
X156293039Y-121102147D02*
X156331135Y-121140242D01*
X154369230Y-129484052D02*
X154369230Y-128684052D01*
X154369230Y-128684052D02*
X154673992Y-128684052D01*
X154673992Y-128684052D02*
X154750182Y-128722147D01*
X154750182Y-128722147D02*
X154788277Y-128760242D01*
X154788277Y-128760242D02*
X154826373Y-128836433D01*
X154826373Y-128836433D02*
X154826373Y-128950718D01*
X154826373Y-128950718D02*
X154788277Y-129026909D01*
X154788277Y-129026909D02*
X154750182Y-129065004D01*
X154750182Y-129065004D02*
X154673992Y-129103099D01*
X154673992Y-129103099D02*
X154369230Y-129103099D01*
X155588277Y-129484052D02*
X155131134Y-129484052D01*
X155359706Y-129484052D02*
X155359706Y-128684052D01*
X155359706Y-128684052D02*
X155283515Y-128798337D01*
X155283515Y-128798337D02*
X155207325Y-128874528D01*
X155207325Y-128874528D02*
X155131134Y-128912623D01*
X155969230Y-129484052D02*
X156121611Y-129484052D01*
X156121611Y-129484052D02*
X156197801Y-129445957D01*
X156197801Y-129445957D02*
X156235897Y-129407861D01*
X156235897Y-129407861D02*
X156312087Y-129293576D01*
X156312087Y-129293576D02*
X156350182Y-129141195D01*
X156350182Y-129141195D02*
X156350182Y-128836433D01*
X156350182Y-128836433D02*
X156312087Y-128760242D01*
X156312087Y-128760242D02*
X156273992Y-128722147D01*
X156273992Y-128722147D02*
X156197801Y-128684052D01*
X156197801Y-128684052D02*
X156045420Y-128684052D01*
X156045420Y-128684052D02*
X155969230Y-128722147D01*
X155969230Y-128722147D02*
X155931135Y-128760242D01*
X155931135Y-128760242D02*
X155893039Y-128836433D01*
X155893039Y-128836433D02*
X155893039Y-129026909D01*
X155893039Y-129026909D02*
X155931135Y-129103099D01*
X155931135Y-129103099D02*
X155969230Y-129141195D01*
X155969230Y-129141195D02*
X156045420Y-129179290D01*
X156045420Y-129179290D02*
X156197801Y-129179290D01*
X156197801Y-129179290D02*
X156273992Y-129141195D01*
X156273992Y-129141195D02*
X156312087Y-129103099D01*
X156312087Y-129103099D02*
X156350182Y-129026909D01*
X163969230Y-142184052D02*
X163969230Y-141384052D01*
X163969230Y-141384052D02*
X164273992Y-141384052D01*
X164273992Y-141384052D02*
X164350182Y-141422147D01*
X164350182Y-141422147D02*
X164388277Y-141460242D01*
X164388277Y-141460242D02*
X164426373Y-141536433D01*
X164426373Y-141536433D02*
X164426373Y-141650718D01*
X164426373Y-141650718D02*
X164388277Y-141726909D01*
X164388277Y-141726909D02*
X164350182Y-141765004D01*
X164350182Y-141765004D02*
X164273992Y-141803099D01*
X164273992Y-141803099D02*
X163969230Y-141803099D01*
X164921611Y-141384052D02*
X164997801Y-141384052D01*
X164997801Y-141384052D02*
X165073992Y-141422147D01*
X165073992Y-141422147D02*
X165112087Y-141460242D01*
X165112087Y-141460242D02*
X165150182Y-141536433D01*
X165150182Y-141536433D02*
X165188277Y-141688814D01*
X165188277Y-141688814D02*
X165188277Y-141879290D01*
X165188277Y-141879290D02*
X165150182Y-142031671D01*
X165150182Y-142031671D02*
X165112087Y-142107861D01*
X165112087Y-142107861D02*
X165073992Y-142145957D01*
X165073992Y-142145957D02*
X164997801Y-142184052D01*
X164997801Y-142184052D02*
X164921611Y-142184052D01*
X164921611Y-142184052D02*
X164845420Y-142145957D01*
X164845420Y-142145957D02*
X164807325Y-142107861D01*
X164807325Y-142107861D02*
X164769230Y-142031671D01*
X164769230Y-142031671D02*
X164731134Y-141879290D01*
X164731134Y-141879290D02*
X164731134Y-141688814D01*
X164731134Y-141688814D02*
X164769230Y-141536433D01*
X164769230Y-141536433D02*
X164807325Y-141460242D01*
X164807325Y-141460242D02*
X164845420Y-141422147D01*
X164845420Y-141422147D02*
X164921611Y-141384052D01*
X165569230Y-142184052D02*
X165721611Y-142184052D01*
X165721611Y-142184052D02*
X165797801Y-142145957D01*
X165797801Y-142145957D02*
X165835897Y-142107861D01*
X165835897Y-142107861D02*
X165912087Y-141993576D01*
X165912087Y-141993576D02*
X165950182Y-141841195D01*
X165950182Y-141841195D02*
X165950182Y-141536433D01*
X165950182Y-141536433D02*
X165912087Y-141460242D01*
X165912087Y-141460242D02*
X165873992Y-141422147D01*
X165873992Y-141422147D02*
X165797801Y-141384052D01*
X165797801Y-141384052D02*
X165645420Y-141384052D01*
X165645420Y-141384052D02*
X165569230Y-141422147D01*
X165569230Y-141422147D02*
X165531135Y-141460242D01*
X165531135Y-141460242D02*
X165493039Y-141536433D01*
X165493039Y-141536433D02*
X165493039Y-141726909D01*
X165493039Y-141726909D02*
X165531135Y-141803099D01*
X165531135Y-141803099D02*
X165569230Y-141841195D01*
X165569230Y-141841195D02*
X165645420Y-141879290D01*
X165645420Y-141879290D02*
X165797801Y-141879290D01*
X165797801Y-141879290D02*
X165873992Y-141841195D01*
X165873992Y-141841195D02*
X165912087Y-141803099D01*
X165912087Y-141803099D02*
X165950182Y-141726909D01*
X163969230Y-134564052D02*
X163969230Y-133764052D01*
X163969230Y-133764052D02*
X164273992Y-133764052D01*
X164273992Y-133764052D02*
X164350182Y-133802147D01*
X164350182Y-133802147D02*
X164388277Y-133840242D01*
X164388277Y-133840242D02*
X164426373Y-133916433D01*
X164426373Y-133916433D02*
X164426373Y-134030718D01*
X164426373Y-134030718D02*
X164388277Y-134106909D01*
X164388277Y-134106909D02*
X164350182Y-134145004D01*
X164350182Y-134145004D02*
X164273992Y-134183099D01*
X164273992Y-134183099D02*
X163969230Y-134183099D01*
X164921611Y-133764052D02*
X164997801Y-133764052D01*
X164997801Y-133764052D02*
X165073992Y-133802147D01*
X165073992Y-133802147D02*
X165112087Y-133840242D01*
X165112087Y-133840242D02*
X165150182Y-133916433D01*
X165150182Y-133916433D02*
X165188277Y-134068814D01*
X165188277Y-134068814D02*
X165188277Y-134259290D01*
X165188277Y-134259290D02*
X165150182Y-134411671D01*
X165150182Y-134411671D02*
X165112087Y-134487861D01*
X165112087Y-134487861D02*
X165073992Y-134525957D01*
X165073992Y-134525957D02*
X164997801Y-134564052D01*
X164997801Y-134564052D02*
X164921611Y-134564052D01*
X164921611Y-134564052D02*
X164845420Y-134525957D01*
X164845420Y-134525957D02*
X164807325Y-134487861D01*
X164807325Y-134487861D02*
X164769230Y-134411671D01*
X164769230Y-134411671D02*
X164731134Y-134259290D01*
X164731134Y-134259290D02*
X164731134Y-134068814D01*
X164731134Y-134068814D02*
X164769230Y-133916433D01*
X164769230Y-133916433D02*
X164807325Y-133840242D01*
X164807325Y-133840242D02*
X164845420Y-133802147D01*
X164845420Y-133802147D02*
X164921611Y-133764052D01*
X165873992Y-133764052D02*
X165721611Y-133764052D01*
X165721611Y-133764052D02*
X165645420Y-133802147D01*
X165645420Y-133802147D02*
X165607325Y-133840242D01*
X165607325Y-133840242D02*
X165531135Y-133954528D01*
X165531135Y-133954528D02*
X165493039Y-134106909D01*
X165493039Y-134106909D02*
X165493039Y-134411671D01*
X165493039Y-134411671D02*
X165531135Y-134487861D01*
X165531135Y-134487861D02*
X165569230Y-134525957D01*
X165569230Y-134525957D02*
X165645420Y-134564052D01*
X165645420Y-134564052D02*
X165797801Y-134564052D01*
X165797801Y-134564052D02*
X165873992Y-134525957D01*
X165873992Y-134525957D02*
X165912087Y-134487861D01*
X165912087Y-134487861D02*
X165950182Y-134411671D01*
X165950182Y-134411671D02*
X165950182Y-134221195D01*
X165950182Y-134221195D02*
X165912087Y-134145004D01*
X165912087Y-134145004D02*
X165873992Y-134106909D01*
X165873992Y-134106909D02*
X165797801Y-134068814D01*
X165797801Y-134068814D02*
X165645420Y-134068814D01*
X165645420Y-134068814D02*
X165569230Y-134106909D01*
X165569230Y-134106909D02*
X165531135Y-134145004D01*
X165531135Y-134145004D02*
X165493039Y-134221195D01*
X154902564Y-119324052D02*
X154635897Y-118943099D01*
X154445421Y-119324052D02*
X154445421Y-118524052D01*
X154445421Y-118524052D02*
X154750183Y-118524052D01*
X154750183Y-118524052D02*
X154826373Y-118562147D01*
X154826373Y-118562147D02*
X154864468Y-118600242D01*
X154864468Y-118600242D02*
X154902564Y-118676433D01*
X154902564Y-118676433D02*
X154902564Y-118790718D01*
X154902564Y-118790718D02*
X154864468Y-118866909D01*
X154864468Y-118866909D02*
X154826373Y-118905004D01*
X154826373Y-118905004D02*
X154750183Y-118943099D01*
X154750183Y-118943099D02*
X154445421Y-118943099D01*
X155207325Y-119285957D02*
X155321611Y-119324052D01*
X155321611Y-119324052D02*
X155512087Y-119324052D01*
X155512087Y-119324052D02*
X155588278Y-119285957D01*
X155588278Y-119285957D02*
X155626373Y-119247861D01*
X155626373Y-119247861D02*
X155664468Y-119171671D01*
X155664468Y-119171671D02*
X155664468Y-119095480D01*
X155664468Y-119095480D02*
X155626373Y-119019290D01*
X155626373Y-119019290D02*
X155588278Y-118981195D01*
X155588278Y-118981195D02*
X155512087Y-118943099D01*
X155512087Y-118943099D02*
X155359706Y-118905004D01*
X155359706Y-118905004D02*
X155283516Y-118866909D01*
X155283516Y-118866909D02*
X155245421Y-118828814D01*
X155245421Y-118828814D02*
X155207325Y-118752623D01*
X155207325Y-118752623D02*
X155207325Y-118676433D01*
X155207325Y-118676433D02*
X155245421Y-118600242D01*
X155245421Y-118600242D02*
X155283516Y-118562147D01*
X155283516Y-118562147D02*
X155359706Y-118524052D01*
X155359706Y-118524052D02*
X155550183Y-118524052D01*
X155550183Y-118524052D02*
X155664468Y-118562147D01*
X155893040Y-118524052D02*
X156350183Y-118524052D01*
X156121611Y-119324052D02*
X156121611Y-118524052D01*
X163969230Y-126944052D02*
X163969230Y-126144052D01*
X163969230Y-126144052D02*
X164273992Y-126144052D01*
X164273992Y-126144052D02*
X164350182Y-126182147D01*
X164350182Y-126182147D02*
X164388277Y-126220242D01*
X164388277Y-126220242D02*
X164426373Y-126296433D01*
X164426373Y-126296433D02*
X164426373Y-126410718D01*
X164426373Y-126410718D02*
X164388277Y-126486909D01*
X164388277Y-126486909D02*
X164350182Y-126525004D01*
X164350182Y-126525004D02*
X164273992Y-126563099D01*
X164273992Y-126563099D02*
X163969230Y-126563099D01*
X164921611Y-126144052D02*
X164997801Y-126144052D01*
X164997801Y-126144052D02*
X165073992Y-126182147D01*
X165073992Y-126182147D02*
X165112087Y-126220242D01*
X165112087Y-126220242D02*
X165150182Y-126296433D01*
X165150182Y-126296433D02*
X165188277Y-126448814D01*
X165188277Y-126448814D02*
X165188277Y-126639290D01*
X165188277Y-126639290D02*
X165150182Y-126791671D01*
X165150182Y-126791671D02*
X165112087Y-126867861D01*
X165112087Y-126867861D02*
X165073992Y-126905957D01*
X165073992Y-126905957D02*
X164997801Y-126944052D01*
X164997801Y-126944052D02*
X164921611Y-126944052D01*
X164921611Y-126944052D02*
X164845420Y-126905957D01*
X164845420Y-126905957D02*
X164807325Y-126867861D01*
X164807325Y-126867861D02*
X164769230Y-126791671D01*
X164769230Y-126791671D02*
X164731134Y-126639290D01*
X164731134Y-126639290D02*
X164731134Y-126448814D01*
X164731134Y-126448814D02*
X164769230Y-126296433D01*
X164769230Y-126296433D02*
X164807325Y-126220242D01*
X164807325Y-126220242D02*
X164845420Y-126182147D01*
X164845420Y-126182147D02*
X164921611Y-126144052D01*
X165454944Y-126144052D02*
X165950182Y-126144052D01*
X165950182Y-126144052D02*
X165683516Y-126448814D01*
X165683516Y-126448814D02*
X165797801Y-126448814D01*
X165797801Y-126448814D02*
X165873992Y-126486909D01*
X165873992Y-126486909D02*
X165912087Y-126525004D01*
X165912087Y-126525004D02*
X165950182Y-126601195D01*
X165950182Y-126601195D02*
X165950182Y-126791671D01*
X165950182Y-126791671D02*
X165912087Y-126867861D01*
X165912087Y-126867861D02*
X165873992Y-126905957D01*
X165873992Y-126905957D02*
X165797801Y-126944052D01*
X165797801Y-126944052D02*
X165569230Y-126944052D01*
X165569230Y-126944052D02*
X165493039Y-126905957D01*
X165493039Y-126905957D02*
X165454944Y-126867861D01*
X164331135Y-118562147D02*
X164254945Y-118524052D01*
X164254945Y-118524052D02*
X164140659Y-118524052D01*
X164140659Y-118524052D02*
X164026373Y-118562147D01*
X164026373Y-118562147D02*
X163950183Y-118638337D01*
X163950183Y-118638337D02*
X163912088Y-118714528D01*
X163912088Y-118714528D02*
X163873992Y-118866909D01*
X163873992Y-118866909D02*
X163873992Y-118981195D01*
X163873992Y-118981195D02*
X163912088Y-119133576D01*
X163912088Y-119133576D02*
X163950183Y-119209766D01*
X163950183Y-119209766D02*
X164026373Y-119285957D01*
X164026373Y-119285957D02*
X164140659Y-119324052D01*
X164140659Y-119324052D02*
X164216850Y-119324052D01*
X164216850Y-119324052D02*
X164331135Y-119285957D01*
X164331135Y-119285957D02*
X164369231Y-119247861D01*
X164369231Y-119247861D02*
X164369231Y-118981195D01*
X164369231Y-118981195D02*
X164216850Y-118981195D01*
X164712088Y-119324052D02*
X164712088Y-118524052D01*
X164712088Y-118524052D02*
X165169231Y-119324052D01*
X165169231Y-119324052D02*
X165169231Y-118524052D01*
X165550183Y-119324052D02*
X165550183Y-118524052D01*
X165550183Y-118524052D02*
X165740659Y-118524052D01*
X165740659Y-118524052D02*
X165854945Y-118562147D01*
X165854945Y-118562147D02*
X165931135Y-118638337D01*
X165931135Y-118638337D02*
X165969230Y-118714528D01*
X165969230Y-118714528D02*
X166007326Y-118866909D01*
X166007326Y-118866909D02*
X166007326Y-118981195D01*
X166007326Y-118981195D02*
X165969230Y-119133576D01*
X165969230Y-119133576D02*
X165931135Y-119209766D01*
X165931135Y-119209766D02*
X165854945Y-119285957D01*
X165854945Y-119285957D02*
X165740659Y-119324052D01*
X165740659Y-119324052D02*
X165550183Y-119324052D01*
X154369230Y-137104052D02*
X154369230Y-136304052D01*
X154369230Y-136304052D02*
X154673992Y-136304052D01*
X154673992Y-136304052D02*
X154750182Y-136342147D01*
X154750182Y-136342147D02*
X154788277Y-136380242D01*
X154788277Y-136380242D02*
X154826373Y-136456433D01*
X154826373Y-136456433D02*
X154826373Y-136570718D01*
X154826373Y-136570718D02*
X154788277Y-136646909D01*
X154788277Y-136646909D02*
X154750182Y-136685004D01*
X154750182Y-136685004D02*
X154673992Y-136723099D01*
X154673992Y-136723099D02*
X154369230Y-136723099D01*
X155588277Y-137104052D02*
X155131134Y-137104052D01*
X155359706Y-137104052D02*
X155359706Y-136304052D01*
X155359706Y-136304052D02*
X155283515Y-136418337D01*
X155283515Y-136418337D02*
X155207325Y-136494528D01*
X155207325Y-136494528D02*
X155131134Y-136532623D01*
X156273992Y-136570718D02*
X156273992Y-137104052D01*
X156083516Y-136265957D02*
X155893039Y-136837385D01*
X155893039Y-136837385D02*
X156388278Y-136837385D01*
X154788278Y-114244052D02*
X154521611Y-113863099D01*
X154331135Y-114244052D02*
X154331135Y-113444052D01*
X154331135Y-113444052D02*
X154635897Y-113444052D01*
X154635897Y-113444052D02*
X154712087Y-113482147D01*
X154712087Y-113482147D02*
X154750182Y-113520242D01*
X154750182Y-113520242D02*
X154788278Y-113596433D01*
X154788278Y-113596433D02*
X154788278Y-113710718D01*
X154788278Y-113710718D02*
X154750182Y-113786909D01*
X154750182Y-113786909D02*
X154712087Y-113825004D01*
X154712087Y-113825004D02*
X154635897Y-113863099D01*
X154635897Y-113863099D02*
X154331135Y-113863099D01*
X155093039Y-114015480D02*
X155473992Y-114015480D01*
X155016849Y-114244052D02*
X155283516Y-113444052D01*
X155283516Y-113444052D02*
X155550182Y-114244052D01*
X155740658Y-113444052D02*
X155931134Y-114244052D01*
X155931134Y-114244052D02*
X156083515Y-113672623D01*
X156083515Y-113672623D02*
X156235896Y-114244052D01*
X156235896Y-114244052D02*
X156426373Y-113444052D01*
X163969230Y-139644052D02*
X163969230Y-138844052D01*
X163969230Y-138844052D02*
X164273992Y-138844052D01*
X164273992Y-138844052D02*
X164350182Y-138882147D01*
X164350182Y-138882147D02*
X164388277Y-138920242D01*
X164388277Y-138920242D02*
X164426373Y-138996433D01*
X164426373Y-138996433D02*
X164426373Y-139110718D01*
X164426373Y-139110718D02*
X164388277Y-139186909D01*
X164388277Y-139186909D02*
X164350182Y-139225004D01*
X164350182Y-139225004D02*
X164273992Y-139263099D01*
X164273992Y-139263099D02*
X163969230Y-139263099D01*
X164921611Y-138844052D02*
X164997801Y-138844052D01*
X164997801Y-138844052D02*
X165073992Y-138882147D01*
X165073992Y-138882147D02*
X165112087Y-138920242D01*
X165112087Y-138920242D02*
X165150182Y-138996433D01*
X165150182Y-138996433D02*
X165188277Y-139148814D01*
X165188277Y-139148814D02*
X165188277Y-139339290D01*
X165188277Y-139339290D02*
X165150182Y-139491671D01*
X165150182Y-139491671D02*
X165112087Y-139567861D01*
X165112087Y-139567861D02*
X165073992Y-139605957D01*
X165073992Y-139605957D02*
X164997801Y-139644052D01*
X164997801Y-139644052D02*
X164921611Y-139644052D01*
X164921611Y-139644052D02*
X164845420Y-139605957D01*
X164845420Y-139605957D02*
X164807325Y-139567861D01*
X164807325Y-139567861D02*
X164769230Y-139491671D01*
X164769230Y-139491671D02*
X164731134Y-139339290D01*
X164731134Y-139339290D02*
X164731134Y-139148814D01*
X164731134Y-139148814D02*
X164769230Y-138996433D01*
X164769230Y-138996433D02*
X164807325Y-138920242D01*
X164807325Y-138920242D02*
X164845420Y-138882147D01*
X164845420Y-138882147D02*
X164921611Y-138844052D01*
X165645420Y-139186909D02*
X165569230Y-139148814D01*
X165569230Y-139148814D02*
X165531135Y-139110718D01*
X165531135Y-139110718D02*
X165493039Y-139034528D01*
X165493039Y-139034528D02*
X165493039Y-138996433D01*
X165493039Y-138996433D02*
X165531135Y-138920242D01*
X165531135Y-138920242D02*
X165569230Y-138882147D01*
X165569230Y-138882147D02*
X165645420Y-138844052D01*
X165645420Y-138844052D02*
X165797801Y-138844052D01*
X165797801Y-138844052D02*
X165873992Y-138882147D01*
X165873992Y-138882147D02*
X165912087Y-138920242D01*
X165912087Y-138920242D02*
X165950182Y-138996433D01*
X165950182Y-138996433D02*
X165950182Y-139034528D01*
X165950182Y-139034528D02*
X165912087Y-139110718D01*
X165912087Y-139110718D02*
X165873992Y-139148814D01*
X165873992Y-139148814D02*
X165797801Y-139186909D01*
X165797801Y-139186909D02*
X165645420Y-139186909D01*
X165645420Y-139186909D02*
X165569230Y-139225004D01*
X165569230Y-139225004D02*
X165531135Y-139263099D01*
X165531135Y-139263099D02*
X165493039Y-139339290D01*
X165493039Y-139339290D02*
X165493039Y-139491671D01*
X165493039Y-139491671D02*
X165531135Y-139567861D01*
X165531135Y-139567861D02*
X165569230Y-139605957D01*
X165569230Y-139605957D02*
X165645420Y-139644052D01*
X165645420Y-139644052D02*
X165797801Y-139644052D01*
X165797801Y-139644052D02*
X165873992Y-139605957D01*
X165873992Y-139605957D02*
X165912087Y-139567861D01*
X165912087Y-139567861D02*
X165950182Y-139491671D01*
X165950182Y-139491671D02*
X165950182Y-139339290D01*
X165950182Y-139339290D02*
X165912087Y-139263099D01*
X165912087Y-139263099D02*
X165873992Y-139225004D01*
X165873992Y-139225004D02*
X165797801Y-139186909D01*
X163969230Y-124404052D02*
X163969230Y-123604052D01*
X163969230Y-123604052D02*
X164273992Y-123604052D01*
X164273992Y-123604052D02*
X164350182Y-123642147D01*
X164350182Y-123642147D02*
X164388277Y-123680242D01*
X164388277Y-123680242D02*
X164426373Y-123756433D01*
X164426373Y-123756433D02*
X164426373Y-123870718D01*
X164426373Y-123870718D02*
X164388277Y-123946909D01*
X164388277Y-123946909D02*
X164350182Y-123985004D01*
X164350182Y-123985004D02*
X164273992Y-124023099D01*
X164273992Y-124023099D02*
X163969230Y-124023099D01*
X164921611Y-123604052D02*
X164997801Y-123604052D01*
X164997801Y-123604052D02*
X165073992Y-123642147D01*
X165073992Y-123642147D02*
X165112087Y-123680242D01*
X165112087Y-123680242D02*
X165150182Y-123756433D01*
X165150182Y-123756433D02*
X165188277Y-123908814D01*
X165188277Y-123908814D02*
X165188277Y-124099290D01*
X165188277Y-124099290D02*
X165150182Y-124251671D01*
X165150182Y-124251671D02*
X165112087Y-124327861D01*
X165112087Y-124327861D02*
X165073992Y-124365957D01*
X165073992Y-124365957D02*
X164997801Y-124404052D01*
X164997801Y-124404052D02*
X164921611Y-124404052D01*
X164921611Y-124404052D02*
X164845420Y-124365957D01*
X164845420Y-124365957D02*
X164807325Y-124327861D01*
X164807325Y-124327861D02*
X164769230Y-124251671D01*
X164769230Y-124251671D02*
X164731134Y-124099290D01*
X164731134Y-124099290D02*
X164731134Y-123908814D01*
X164731134Y-123908814D02*
X164769230Y-123756433D01*
X164769230Y-123756433D02*
X164807325Y-123680242D01*
X164807325Y-123680242D02*
X164845420Y-123642147D01*
X164845420Y-123642147D02*
X164921611Y-123604052D01*
X165493039Y-123680242D02*
X165531135Y-123642147D01*
X165531135Y-123642147D02*
X165607325Y-123604052D01*
X165607325Y-123604052D02*
X165797801Y-123604052D01*
X165797801Y-123604052D02*
X165873992Y-123642147D01*
X165873992Y-123642147D02*
X165912087Y-123680242D01*
X165912087Y-123680242D02*
X165950182Y-123756433D01*
X165950182Y-123756433D02*
X165950182Y-123832623D01*
X165950182Y-123832623D02*
X165912087Y-123946909D01*
X165912087Y-123946909D02*
X165454944Y-124404052D01*
X165454944Y-124404052D02*
X165950182Y-124404052D01*
X154369230Y-126944052D02*
X154369230Y-126144052D01*
X154369230Y-126144052D02*
X154673992Y-126144052D01*
X154673992Y-126144052D02*
X154750182Y-126182147D01*
X154750182Y-126182147D02*
X154788277Y-126220242D01*
X154788277Y-126220242D02*
X154826373Y-126296433D01*
X154826373Y-126296433D02*
X154826373Y-126410718D01*
X154826373Y-126410718D02*
X154788277Y-126486909D01*
X154788277Y-126486909D02*
X154750182Y-126525004D01*
X154750182Y-126525004D02*
X154673992Y-126563099D01*
X154673992Y-126563099D02*
X154369230Y-126563099D01*
X155131134Y-126220242D02*
X155169230Y-126182147D01*
X155169230Y-126182147D02*
X155245420Y-126144052D01*
X155245420Y-126144052D02*
X155435896Y-126144052D01*
X155435896Y-126144052D02*
X155512087Y-126182147D01*
X155512087Y-126182147D02*
X155550182Y-126220242D01*
X155550182Y-126220242D02*
X155588277Y-126296433D01*
X155588277Y-126296433D02*
X155588277Y-126372623D01*
X155588277Y-126372623D02*
X155550182Y-126486909D01*
X155550182Y-126486909D02*
X155093039Y-126944052D01*
X155093039Y-126944052D02*
X155588277Y-126944052D01*
X156083516Y-126144052D02*
X156159706Y-126144052D01*
X156159706Y-126144052D02*
X156235897Y-126182147D01*
X156235897Y-126182147D02*
X156273992Y-126220242D01*
X156273992Y-126220242D02*
X156312087Y-126296433D01*
X156312087Y-126296433D02*
X156350182Y-126448814D01*
X156350182Y-126448814D02*
X156350182Y-126639290D01*
X156350182Y-126639290D02*
X156312087Y-126791671D01*
X156312087Y-126791671D02*
X156273992Y-126867861D01*
X156273992Y-126867861D02*
X156235897Y-126905957D01*
X156235897Y-126905957D02*
X156159706Y-126944052D01*
X156159706Y-126944052D02*
X156083516Y-126944052D01*
X156083516Y-126944052D02*
X156007325Y-126905957D01*
X156007325Y-126905957D02*
X155969230Y-126867861D01*
X155969230Y-126867861D02*
X155931135Y-126791671D01*
X155931135Y-126791671D02*
X155893039Y-126639290D01*
X155893039Y-126639290D02*
X155893039Y-126448814D01*
X155893039Y-126448814D02*
X155931135Y-126296433D01*
X155931135Y-126296433D02*
X155969230Y-126220242D01*
X155969230Y-126220242D02*
X156007325Y-126182147D01*
X156007325Y-126182147D02*
X156083516Y-126144052D01*
X154369230Y-124404052D02*
X154369230Y-123604052D01*
X154369230Y-123604052D02*
X154673992Y-123604052D01*
X154673992Y-123604052D02*
X154750182Y-123642147D01*
X154750182Y-123642147D02*
X154788277Y-123680242D01*
X154788277Y-123680242D02*
X154826373Y-123756433D01*
X154826373Y-123756433D02*
X154826373Y-123870718D01*
X154826373Y-123870718D02*
X154788277Y-123946909D01*
X154788277Y-123946909D02*
X154750182Y-123985004D01*
X154750182Y-123985004D02*
X154673992Y-124023099D01*
X154673992Y-124023099D02*
X154369230Y-124023099D01*
X155131134Y-123680242D02*
X155169230Y-123642147D01*
X155169230Y-123642147D02*
X155245420Y-123604052D01*
X155245420Y-123604052D02*
X155435896Y-123604052D01*
X155435896Y-123604052D02*
X155512087Y-123642147D01*
X155512087Y-123642147D02*
X155550182Y-123680242D01*
X155550182Y-123680242D02*
X155588277Y-123756433D01*
X155588277Y-123756433D02*
X155588277Y-123832623D01*
X155588277Y-123832623D02*
X155550182Y-123946909D01*
X155550182Y-123946909D02*
X155093039Y-124404052D01*
X155093039Y-124404052D02*
X155588277Y-124404052D01*
X156350182Y-124404052D02*
X155893039Y-124404052D01*
X156121611Y-124404052D02*
X156121611Y-123604052D01*
X156121611Y-123604052D02*
X156045420Y-123718337D01*
X156045420Y-123718337D02*
X155969230Y-123794528D01*
X155969230Y-123794528D02*
X155893039Y-123832623D01*
X163969230Y-116784052D02*
X163969230Y-115984052D01*
X163969230Y-115984052D02*
X164273992Y-115984052D01*
X164273992Y-115984052D02*
X164350182Y-116022147D01*
X164350182Y-116022147D02*
X164388277Y-116060242D01*
X164388277Y-116060242D02*
X164426373Y-116136433D01*
X164426373Y-116136433D02*
X164426373Y-116250718D01*
X164426373Y-116250718D02*
X164388277Y-116326909D01*
X164388277Y-116326909D02*
X164350182Y-116365004D01*
X164350182Y-116365004D02*
X164273992Y-116403099D01*
X164273992Y-116403099D02*
X163969230Y-116403099D01*
X164921611Y-115984052D02*
X164997801Y-115984052D01*
X164997801Y-115984052D02*
X165073992Y-116022147D01*
X165073992Y-116022147D02*
X165112087Y-116060242D01*
X165112087Y-116060242D02*
X165150182Y-116136433D01*
X165150182Y-116136433D02*
X165188277Y-116288814D01*
X165188277Y-116288814D02*
X165188277Y-116479290D01*
X165188277Y-116479290D02*
X165150182Y-116631671D01*
X165150182Y-116631671D02*
X165112087Y-116707861D01*
X165112087Y-116707861D02*
X165073992Y-116745957D01*
X165073992Y-116745957D02*
X164997801Y-116784052D01*
X164997801Y-116784052D02*
X164921611Y-116784052D01*
X164921611Y-116784052D02*
X164845420Y-116745957D01*
X164845420Y-116745957D02*
X164807325Y-116707861D01*
X164807325Y-116707861D02*
X164769230Y-116631671D01*
X164769230Y-116631671D02*
X164731134Y-116479290D01*
X164731134Y-116479290D02*
X164731134Y-116288814D01*
X164731134Y-116288814D02*
X164769230Y-116136433D01*
X164769230Y-116136433D02*
X164807325Y-116060242D01*
X164807325Y-116060242D02*
X164845420Y-116022147D01*
X164845420Y-116022147D02*
X164921611Y-115984052D01*
X165683516Y-115984052D02*
X165759706Y-115984052D01*
X165759706Y-115984052D02*
X165835897Y-116022147D01*
X165835897Y-116022147D02*
X165873992Y-116060242D01*
X165873992Y-116060242D02*
X165912087Y-116136433D01*
X165912087Y-116136433D02*
X165950182Y-116288814D01*
X165950182Y-116288814D02*
X165950182Y-116479290D01*
X165950182Y-116479290D02*
X165912087Y-116631671D01*
X165912087Y-116631671D02*
X165873992Y-116707861D01*
X165873992Y-116707861D02*
X165835897Y-116745957D01*
X165835897Y-116745957D02*
X165759706Y-116784052D01*
X165759706Y-116784052D02*
X165683516Y-116784052D01*
X165683516Y-116784052D02*
X165607325Y-116745957D01*
X165607325Y-116745957D02*
X165569230Y-116707861D01*
X165569230Y-116707861D02*
X165531135Y-116631671D01*
X165531135Y-116631671D02*
X165493039Y-116479290D01*
X165493039Y-116479290D02*
X165493039Y-116288814D01*
X165493039Y-116288814D02*
X165531135Y-116136433D01*
X165531135Y-116136433D02*
X165569230Y-116060242D01*
X165569230Y-116060242D02*
X165607325Y-116022147D01*
X165607325Y-116022147D02*
X165683516Y-115984052D01*
X163969230Y-129484052D02*
X163969230Y-128684052D01*
X163969230Y-128684052D02*
X164273992Y-128684052D01*
X164273992Y-128684052D02*
X164350182Y-128722147D01*
X164350182Y-128722147D02*
X164388277Y-128760242D01*
X164388277Y-128760242D02*
X164426373Y-128836433D01*
X164426373Y-128836433D02*
X164426373Y-128950718D01*
X164426373Y-128950718D02*
X164388277Y-129026909D01*
X164388277Y-129026909D02*
X164350182Y-129065004D01*
X164350182Y-129065004D02*
X164273992Y-129103099D01*
X164273992Y-129103099D02*
X163969230Y-129103099D01*
X164921611Y-128684052D02*
X164997801Y-128684052D01*
X164997801Y-128684052D02*
X165073992Y-128722147D01*
X165073992Y-128722147D02*
X165112087Y-128760242D01*
X165112087Y-128760242D02*
X165150182Y-128836433D01*
X165150182Y-128836433D02*
X165188277Y-128988814D01*
X165188277Y-128988814D02*
X165188277Y-129179290D01*
X165188277Y-129179290D02*
X165150182Y-129331671D01*
X165150182Y-129331671D02*
X165112087Y-129407861D01*
X165112087Y-129407861D02*
X165073992Y-129445957D01*
X165073992Y-129445957D02*
X164997801Y-129484052D01*
X164997801Y-129484052D02*
X164921611Y-129484052D01*
X164921611Y-129484052D02*
X164845420Y-129445957D01*
X164845420Y-129445957D02*
X164807325Y-129407861D01*
X164807325Y-129407861D02*
X164769230Y-129331671D01*
X164769230Y-129331671D02*
X164731134Y-129179290D01*
X164731134Y-129179290D02*
X164731134Y-128988814D01*
X164731134Y-128988814D02*
X164769230Y-128836433D01*
X164769230Y-128836433D02*
X164807325Y-128760242D01*
X164807325Y-128760242D02*
X164845420Y-128722147D01*
X164845420Y-128722147D02*
X164921611Y-128684052D01*
X165873992Y-128950718D02*
X165873992Y-129484052D01*
X165683516Y-128645957D02*
X165493039Y-129217385D01*
X165493039Y-129217385D02*
X165988278Y-129217385D01*
X154731135Y-116022147D02*
X154654945Y-115984052D01*
X154654945Y-115984052D02*
X154540659Y-115984052D01*
X154540659Y-115984052D02*
X154426373Y-116022147D01*
X154426373Y-116022147D02*
X154350183Y-116098337D01*
X154350183Y-116098337D02*
X154312088Y-116174528D01*
X154312088Y-116174528D02*
X154273992Y-116326909D01*
X154273992Y-116326909D02*
X154273992Y-116441195D01*
X154273992Y-116441195D02*
X154312088Y-116593576D01*
X154312088Y-116593576D02*
X154350183Y-116669766D01*
X154350183Y-116669766D02*
X154426373Y-116745957D01*
X154426373Y-116745957D02*
X154540659Y-116784052D01*
X154540659Y-116784052D02*
X154616850Y-116784052D01*
X154616850Y-116784052D02*
X154731135Y-116745957D01*
X154731135Y-116745957D02*
X154769231Y-116707861D01*
X154769231Y-116707861D02*
X154769231Y-116441195D01*
X154769231Y-116441195D02*
X154616850Y-116441195D01*
X155112088Y-116784052D02*
X155112088Y-115984052D01*
X155112088Y-115984052D02*
X155569231Y-116784052D01*
X155569231Y-116784052D02*
X155569231Y-115984052D01*
X155950183Y-116784052D02*
X155950183Y-115984052D01*
X155950183Y-115984052D02*
X156140659Y-115984052D01*
X156140659Y-115984052D02*
X156254945Y-116022147D01*
X156254945Y-116022147D02*
X156331135Y-116098337D01*
X156331135Y-116098337D02*
X156369230Y-116174528D01*
X156369230Y-116174528D02*
X156407326Y-116326909D01*
X156407326Y-116326909D02*
X156407326Y-116441195D01*
X156407326Y-116441195D02*
X156369230Y-116593576D01*
X156369230Y-116593576D02*
X156331135Y-116669766D01*
X156331135Y-116669766D02*
X156254945Y-116745957D01*
X156254945Y-116745957D02*
X156140659Y-116784052D01*
X156140659Y-116784052D02*
X155950183Y-116784052D01*
X163969230Y-137104052D02*
X163969230Y-136304052D01*
X163969230Y-136304052D02*
X164273992Y-136304052D01*
X164273992Y-136304052D02*
X164350182Y-136342147D01*
X164350182Y-136342147D02*
X164388277Y-136380242D01*
X164388277Y-136380242D02*
X164426373Y-136456433D01*
X164426373Y-136456433D02*
X164426373Y-136570718D01*
X164426373Y-136570718D02*
X164388277Y-136646909D01*
X164388277Y-136646909D02*
X164350182Y-136685004D01*
X164350182Y-136685004D02*
X164273992Y-136723099D01*
X164273992Y-136723099D02*
X163969230Y-136723099D01*
X164921611Y-136304052D02*
X164997801Y-136304052D01*
X164997801Y-136304052D02*
X165073992Y-136342147D01*
X165073992Y-136342147D02*
X165112087Y-136380242D01*
X165112087Y-136380242D02*
X165150182Y-136456433D01*
X165150182Y-136456433D02*
X165188277Y-136608814D01*
X165188277Y-136608814D02*
X165188277Y-136799290D01*
X165188277Y-136799290D02*
X165150182Y-136951671D01*
X165150182Y-136951671D02*
X165112087Y-137027861D01*
X165112087Y-137027861D02*
X165073992Y-137065957D01*
X165073992Y-137065957D02*
X164997801Y-137104052D01*
X164997801Y-137104052D02*
X164921611Y-137104052D01*
X164921611Y-137104052D02*
X164845420Y-137065957D01*
X164845420Y-137065957D02*
X164807325Y-137027861D01*
X164807325Y-137027861D02*
X164769230Y-136951671D01*
X164769230Y-136951671D02*
X164731134Y-136799290D01*
X164731134Y-136799290D02*
X164731134Y-136608814D01*
X164731134Y-136608814D02*
X164769230Y-136456433D01*
X164769230Y-136456433D02*
X164807325Y-136380242D01*
X164807325Y-136380242D02*
X164845420Y-136342147D01*
X164845420Y-136342147D02*
X164921611Y-136304052D01*
X165454944Y-136304052D02*
X165988278Y-136304052D01*
X165988278Y-136304052D02*
X165645420Y-137104052D01*
X154369230Y-132024052D02*
X154369230Y-131224052D01*
X154369230Y-131224052D02*
X154673992Y-131224052D01*
X154673992Y-131224052D02*
X154750182Y-131262147D01*
X154750182Y-131262147D02*
X154788277Y-131300242D01*
X154788277Y-131300242D02*
X154826373Y-131376433D01*
X154826373Y-131376433D02*
X154826373Y-131490718D01*
X154826373Y-131490718D02*
X154788277Y-131566909D01*
X154788277Y-131566909D02*
X154750182Y-131605004D01*
X154750182Y-131605004D02*
X154673992Y-131643099D01*
X154673992Y-131643099D02*
X154369230Y-131643099D01*
X155588277Y-132024052D02*
X155131134Y-132024052D01*
X155359706Y-132024052D02*
X155359706Y-131224052D01*
X155359706Y-131224052D02*
X155283515Y-131338337D01*
X155283515Y-131338337D02*
X155207325Y-131414528D01*
X155207325Y-131414528D02*
X155131134Y-131452623D01*
X156045420Y-131566909D02*
X155969230Y-131528814D01*
X155969230Y-131528814D02*
X155931135Y-131490718D01*
X155931135Y-131490718D02*
X155893039Y-131414528D01*
X155893039Y-131414528D02*
X155893039Y-131376433D01*
X155893039Y-131376433D02*
X155931135Y-131300242D01*
X155931135Y-131300242D02*
X155969230Y-131262147D01*
X155969230Y-131262147D02*
X156045420Y-131224052D01*
X156045420Y-131224052D02*
X156197801Y-131224052D01*
X156197801Y-131224052D02*
X156273992Y-131262147D01*
X156273992Y-131262147D02*
X156312087Y-131300242D01*
X156312087Y-131300242D02*
X156350182Y-131376433D01*
X156350182Y-131376433D02*
X156350182Y-131414528D01*
X156350182Y-131414528D02*
X156312087Y-131490718D01*
X156312087Y-131490718D02*
X156273992Y-131528814D01*
X156273992Y-131528814D02*
X156197801Y-131566909D01*
X156197801Y-131566909D02*
X156045420Y-131566909D01*
X156045420Y-131566909D02*
X155969230Y-131605004D01*
X155969230Y-131605004D02*
X155931135Y-131643099D01*
X155931135Y-131643099D02*
X155893039Y-131719290D01*
X155893039Y-131719290D02*
X155893039Y-131871671D01*
X155893039Y-131871671D02*
X155931135Y-131947861D01*
X155931135Y-131947861D02*
X155969230Y-131985957D01*
X155969230Y-131985957D02*
X156045420Y-132024052D01*
X156045420Y-132024052D02*
X156197801Y-132024052D01*
X156197801Y-132024052D02*
X156273992Y-131985957D01*
X156273992Y-131985957D02*
X156312087Y-131947861D01*
X156312087Y-131947861D02*
X156350182Y-131871671D01*
X156350182Y-131871671D02*
X156350182Y-131719290D01*
X156350182Y-131719290D02*
X156312087Y-131643099D01*
X156312087Y-131643099D02*
X156273992Y-131605004D01*
X156273992Y-131605004D02*
X156197801Y-131566909D01*
X154369230Y-134564052D02*
X154369230Y-133764052D01*
X154369230Y-133764052D02*
X154673992Y-133764052D01*
X154673992Y-133764052D02*
X154750182Y-133802147D01*
X154750182Y-133802147D02*
X154788277Y-133840242D01*
X154788277Y-133840242D02*
X154826373Y-133916433D01*
X154826373Y-133916433D02*
X154826373Y-134030718D01*
X154826373Y-134030718D02*
X154788277Y-134106909D01*
X154788277Y-134106909D02*
X154750182Y-134145004D01*
X154750182Y-134145004D02*
X154673992Y-134183099D01*
X154673992Y-134183099D02*
X154369230Y-134183099D01*
X155588277Y-134564052D02*
X155131134Y-134564052D01*
X155359706Y-134564052D02*
X155359706Y-133764052D01*
X155359706Y-133764052D02*
X155283515Y-133878337D01*
X155283515Y-133878337D02*
X155207325Y-133954528D01*
X155207325Y-133954528D02*
X155131134Y-133992623D01*
X156312087Y-133764052D02*
X155931135Y-133764052D01*
X155931135Y-133764052D02*
X155893039Y-134145004D01*
X155893039Y-134145004D02*
X155931135Y-134106909D01*
X155931135Y-134106909D02*
X156007325Y-134068814D01*
X156007325Y-134068814D02*
X156197801Y-134068814D01*
X156197801Y-134068814D02*
X156273992Y-134106909D01*
X156273992Y-134106909D02*
X156312087Y-134145004D01*
X156312087Y-134145004D02*
X156350182Y-134221195D01*
X156350182Y-134221195D02*
X156350182Y-134411671D01*
X156350182Y-134411671D02*
X156312087Y-134487861D01*
X156312087Y-134487861D02*
X156273992Y-134525957D01*
X156273992Y-134525957D02*
X156197801Y-134564052D01*
X156197801Y-134564052D02*
X156007325Y-134564052D01*
X156007325Y-134564052D02*
X155931135Y-134525957D01*
X155931135Y-134525957D02*
X155893039Y-134487861D01*
X163969230Y-132024052D02*
X163969230Y-131224052D01*
X163969230Y-131224052D02*
X164273992Y-131224052D01*
X164273992Y-131224052D02*
X164350182Y-131262147D01*
X164350182Y-131262147D02*
X164388277Y-131300242D01*
X164388277Y-131300242D02*
X164426373Y-131376433D01*
X164426373Y-131376433D02*
X164426373Y-131490718D01*
X164426373Y-131490718D02*
X164388277Y-131566909D01*
X164388277Y-131566909D02*
X164350182Y-131605004D01*
X164350182Y-131605004D02*
X164273992Y-131643099D01*
X164273992Y-131643099D02*
X163969230Y-131643099D01*
X164921611Y-131224052D02*
X164997801Y-131224052D01*
X164997801Y-131224052D02*
X165073992Y-131262147D01*
X165073992Y-131262147D02*
X165112087Y-131300242D01*
X165112087Y-131300242D02*
X165150182Y-131376433D01*
X165150182Y-131376433D02*
X165188277Y-131528814D01*
X165188277Y-131528814D02*
X165188277Y-131719290D01*
X165188277Y-131719290D02*
X165150182Y-131871671D01*
X165150182Y-131871671D02*
X165112087Y-131947861D01*
X165112087Y-131947861D02*
X165073992Y-131985957D01*
X165073992Y-131985957D02*
X164997801Y-132024052D01*
X164997801Y-132024052D02*
X164921611Y-132024052D01*
X164921611Y-132024052D02*
X164845420Y-131985957D01*
X164845420Y-131985957D02*
X164807325Y-131947861D01*
X164807325Y-131947861D02*
X164769230Y-131871671D01*
X164769230Y-131871671D02*
X164731134Y-131719290D01*
X164731134Y-131719290D02*
X164731134Y-131528814D01*
X164731134Y-131528814D02*
X164769230Y-131376433D01*
X164769230Y-131376433D02*
X164807325Y-131300242D01*
X164807325Y-131300242D02*
X164845420Y-131262147D01*
X164845420Y-131262147D02*
X164921611Y-131224052D01*
X165912087Y-131224052D02*
X165531135Y-131224052D01*
X165531135Y-131224052D02*
X165493039Y-131605004D01*
X165493039Y-131605004D02*
X165531135Y-131566909D01*
X165531135Y-131566909D02*
X165607325Y-131528814D01*
X165607325Y-131528814D02*
X165797801Y-131528814D01*
X165797801Y-131528814D02*
X165873992Y-131566909D01*
X165873992Y-131566909D02*
X165912087Y-131605004D01*
X165912087Y-131605004D02*
X165950182Y-131681195D01*
X165950182Y-131681195D02*
X165950182Y-131871671D01*
X165950182Y-131871671D02*
X165912087Y-131947861D01*
X165912087Y-131947861D02*
X165873992Y-131985957D01*
X165873992Y-131985957D02*
X165797801Y-132024052D01*
X165797801Y-132024052D02*
X165607325Y-132024052D01*
X165607325Y-132024052D02*
X165531135Y-131985957D01*
X165531135Y-131985957D02*
X165493039Y-131947861D01*
X164331135Y-121102147D02*
X164254945Y-121064052D01*
X164254945Y-121064052D02*
X164140659Y-121064052D01*
X164140659Y-121064052D02*
X164026373Y-121102147D01*
X164026373Y-121102147D02*
X163950183Y-121178337D01*
X163950183Y-121178337D02*
X163912088Y-121254528D01*
X163912088Y-121254528D02*
X163873992Y-121406909D01*
X163873992Y-121406909D02*
X163873992Y-121521195D01*
X163873992Y-121521195D02*
X163912088Y-121673576D01*
X163912088Y-121673576D02*
X163950183Y-121749766D01*
X163950183Y-121749766D02*
X164026373Y-121825957D01*
X164026373Y-121825957D02*
X164140659Y-121864052D01*
X164140659Y-121864052D02*
X164216850Y-121864052D01*
X164216850Y-121864052D02*
X164331135Y-121825957D01*
X164331135Y-121825957D02*
X164369231Y-121787861D01*
X164369231Y-121787861D02*
X164369231Y-121521195D01*
X164369231Y-121521195D02*
X164216850Y-121521195D01*
X164712088Y-121864052D02*
X164712088Y-121064052D01*
X164712088Y-121064052D02*
X165169231Y-121864052D01*
X165169231Y-121864052D02*
X165169231Y-121064052D01*
X165550183Y-121864052D02*
X165550183Y-121064052D01*
X165550183Y-121064052D02*
X165740659Y-121064052D01*
X165740659Y-121064052D02*
X165854945Y-121102147D01*
X165854945Y-121102147D02*
X165931135Y-121178337D01*
X165931135Y-121178337D02*
X165969230Y-121254528D01*
X165969230Y-121254528D02*
X166007326Y-121406909D01*
X166007326Y-121406909D02*
X166007326Y-121521195D01*
X166007326Y-121521195D02*
X165969230Y-121673576D01*
X165969230Y-121673576D02*
X165931135Y-121749766D01*
X165931135Y-121749766D02*
X165854945Y-121825957D01*
X165854945Y-121825957D02*
X165740659Y-121864052D01*
X165740659Y-121864052D02*
X165550183Y-121864052D01*
D11*
%TO.C,D9*%
X93155305Y-125509769D02*
X93517828Y-125678817D01*
X93517828Y-125678817D02*
X93750268Y-125180347D01*
X93517828Y-125678817D02*
X93285388Y-126177286D01*
X93517828Y-125678817D02*
X94230660Y-125569864D01*
X94230660Y-125569864D02*
X93892566Y-126294911D01*
X94061613Y-125932388D02*
X94514767Y-126143697D01*
X93892566Y-126294911D02*
X93517828Y-125678817D01*
%TO.C,D23*%
X251209137Y-95522204D02*
X251571660Y-95353156D01*
X251571660Y-95353156D02*
X251339220Y-94854687D01*
X251571660Y-95353156D02*
X251804100Y-95851626D01*
X251571660Y-95353156D02*
X251946398Y-94737062D01*
X251946398Y-94737062D02*
X252284492Y-95462109D01*
X252115445Y-95099585D02*
X252568599Y-94888276D01*
X252284492Y-95462109D02*
X251571660Y-95353156D01*
%TO.C,D51*%
X211397541Y-95329231D02*
X211760064Y-95160183D01*
X211760064Y-95160183D02*
X211527624Y-94661714D01*
X211760064Y-95160183D02*
X211992504Y-95658653D01*
X211760064Y-95160183D02*
X212134802Y-94544089D01*
X212134802Y-94544089D02*
X212472896Y-95269136D01*
X212303849Y-94906612D02*
X212757003Y-94695303D01*
X212472896Y-95269136D02*
X211760064Y-95160183D01*
%TO.C,D46*%
X237431308Y-108567182D02*
X237793831Y-108398134D01*
X237793831Y-108398134D02*
X237561391Y-107899665D01*
X237793831Y-108398134D02*
X238026271Y-108896604D01*
X237793831Y-108398134D02*
X238168569Y-107782040D01*
X238168569Y-107782040D02*
X238506663Y-108507087D01*
X238337616Y-108144563D02*
X238790770Y-107933254D01*
X238506663Y-108507087D02*
X237793831Y-108398134D01*
%TO.C,D47*%
X230246789Y-93159946D02*
X230609312Y-92990898D01*
X230609312Y-92990898D02*
X230376872Y-92492429D01*
X230609312Y-92990898D02*
X230841752Y-93489368D01*
X230609312Y-92990898D02*
X230984050Y-92374804D01*
X230984050Y-92374804D02*
X231322144Y-93099851D01*
X231153097Y-92737327D02*
X231606251Y-92526018D01*
X231322144Y-93099851D02*
X230609312Y-92990898D01*
%TO.C,D41*%
X265578154Y-126336678D02*
X265940677Y-126167630D01*
X265940677Y-126167630D02*
X265708237Y-125669161D01*
X265940677Y-126167630D02*
X266173117Y-126666100D01*
X265940677Y-126167630D02*
X266315415Y-125551536D01*
X266315415Y-125551536D02*
X266653509Y-126276583D01*
X266484462Y-125914059D02*
X266937616Y-125702750D01*
X266653509Y-126276583D02*
X265940677Y-126167630D01*
%TO.C,D32*%
X211988727Y-139188672D02*
X212351250Y-139019624D01*
X212351250Y-139019624D02*
X212118810Y-138521155D01*
X212351250Y-139019624D02*
X212583690Y-139518094D01*
X212351250Y-139019624D02*
X212725988Y-138403530D01*
X212725988Y-138403530D02*
X213064082Y-139128577D01*
X212895035Y-138766053D02*
X213348189Y-138554744D01*
X213064082Y-139128577D02*
X212351250Y-139019624D01*
D10*
%TO.C,MCU1*%
X169030659Y-110071757D02*
X151250659Y-110071757D01*
X151250659Y-110071757D02*
X151250659Y-143091757D01*
X153790659Y-112611757D02*
X151250659Y-112611757D01*
X153790659Y-112611757D02*
X153790659Y-115151757D01*
X153790659Y-115151757D02*
X151250659Y-115151757D01*
X169030659Y-143091757D02*
X169030659Y-110071757D01*
X151250659Y-143091757D02*
X169030659Y-143091757D01*
D11*
%TO.C,D14*%
X121302155Y-107740274D02*
X121664678Y-107909322D01*
X121664678Y-107909322D02*
X121897118Y-107410852D01*
X121664678Y-107909322D02*
X121432238Y-108407791D01*
X121664678Y-107909322D02*
X122377510Y-107800369D01*
X122377510Y-107800369D02*
X122039416Y-108525416D01*
X122208463Y-108162893D02*
X122661617Y-108374202D01*
X122039416Y-108525416D02*
X121664678Y-107909322D01*
%TO.C,D20*%
X129944866Y-181562019D02*
X130174296Y-181889680D01*
X130174296Y-181889680D02*
X130624830Y-181574213D01*
X130174296Y-181889680D02*
X129723763Y-182205147D01*
X130174296Y-181889680D02*
X130846103Y-182151740D01*
X130846103Y-182151740D02*
X130190781Y-182610602D01*
X130518442Y-182381171D02*
X130805230Y-182790747D01*
X130190781Y-182610602D02*
X130174296Y-181889680D01*
%TO.C,D15*%
X121978822Y-148880798D02*
X122341345Y-149049846D01*
X122341345Y-149049846D02*
X122573785Y-148551376D01*
X122341345Y-149049846D02*
X122108905Y-149548315D01*
X122341345Y-149049846D02*
X123054177Y-148940893D01*
X123054177Y-148940893D02*
X122716083Y-149665940D01*
X122885130Y-149303417D02*
X123338284Y-149514726D01*
X122716083Y-149665940D02*
X122341345Y-149049846D01*
%TO.C,D64*%
X67121549Y-138747722D02*
X67484072Y-138916770D01*
X67484072Y-138916770D02*
X67716512Y-138418300D01*
X67484072Y-138916770D02*
X67251632Y-139415239D01*
X67484072Y-138916770D02*
X68196904Y-138807817D01*
X68196904Y-138807817D02*
X67858810Y-139532864D01*
X68027857Y-139170341D02*
X68481011Y-139381650D01*
X67858810Y-139532864D02*
X67484072Y-138916770D01*
%TO.C,D71*%
X107524331Y-94695295D02*
X107886854Y-94864343D01*
X107886854Y-94864343D02*
X108119294Y-94365873D01*
X107886854Y-94864343D02*
X107654414Y-95362812D01*
X107886854Y-94864343D02*
X108599686Y-94755390D01*
X108599686Y-94755390D02*
X108261592Y-95480437D01*
X108430639Y-95117914D02*
X108883793Y-95329223D01*
X108261592Y-95480437D02*
X107886854Y-94864343D01*
D12*
%TO.C,DISP1*%
X153730664Y-146221749D02*
X153730664Y-148881749D01*
X166550664Y-146221749D02*
X153730664Y-146221749D01*
X166550664Y-146221749D02*
X166550664Y-148881749D01*
X166550664Y-148881749D02*
X153730664Y-148881749D01*
D11*
%TO.C,D38*%
X217722176Y-158582681D02*
X218084699Y-158413633D01*
X218084699Y-158413633D02*
X217852259Y-157915164D01*
X218084699Y-158413633D02*
X218317139Y-158912103D01*
X218084699Y-158413633D02*
X218459437Y-157797539D01*
X218459437Y-157797539D02*
X218797531Y-158522586D01*
X218628484Y-158160062D02*
X219081638Y-157948753D01*
X218797531Y-158522586D02*
X218084699Y-158413633D01*
%TO.C,D22*%
X258393647Y-110929442D02*
X258756170Y-110760394D01*
X258756170Y-110760394D02*
X258523730Y-110261925D01*
X258756170Y-110760394D02*
X258988610Y-111258864D01*
X258756170Y-110760394D02*
X259130908Y-110144300D01*
X259130908Y-110144300D02*
X259469002Y-110869347D01*
X259299955Y-110506823D02*
X259753109Y-110295514D01*
X259469002Y-110869347D02*
X258756170Y-110760394D01*
%TO.C,D50*%
X218582058Y-110736468D02*
X218944581Y-110567420D01*
X218944581Y-110567420D02*
X218712141Y-110068951D01*
X218944581Y-110567420D02*
X219177021Y-111065890D01*
X218944581Y-110567420D02*
X219319319Y-109951326D01*
X219319319Y-109951326D02*
X219657413Y-110676373D01*
X219488366Y-110313849D02*
X219941520Y-110102540D01*
X219657413Y-110676373D02*
X218944581Y-110567420D01*
%TO.C,D44*%
X251800328Y-139381648D02*
X252162851Y-139212600D01*
X252162851Y-139212600D02*
X251930411Y-138714131D01*
X252162851Y-139212600D02*
X252395291Y-139711070D01*
X252162851Y-139212600D02*
X252537589Y-138596506D01*
X252537589Y-138596506D02*
X252875683Y-139321553D01*
X252706636Y-138959029D02*
X253159790Y-138747720D01*
X252875683Y-139321553D02*
X252162851Y-139212600D01*
%TO.C,D78*%
X101199691Y-157948753D02*
X101562214Y-158117801D01*
X101562214Y-158117801D02*
X101794654Y-157619331D01*
X101562214Y-158117801D02*
X101329774Y-158616270D01*
X101562214Y-158117801D02*
X102275046Y-158008848D01*
X102275046Y-158008848D02*
X101936952Y-158733895D01*
X102105999Y-158371372D02*
X102559153Y-158582681D01*
X101936952Y-158733895D02*
X101562214Y-158117801D01*
%TO.C,D49*%
X225766566Y-126143696D02*
X226129089Y-125974648D01*
X226129089Y-125974648D02*
X225896649Y-125476179D01*
X226129089Y-125974648D02*
X226361529Y-126473118D01*
X226129089Y-125974648D02*
X226503827Y-125358554D01*
X226503827Y-125358554D02*
X226841921Y-126083601D01*
X226672874Y-125721077D02*
X227126028Y-125509768D01*
X226841921Y-126083601D02*
X226129089Y-125974648D01*
%TO.C,D33*%
X204804214Y-123781435D02*
X205166737Y-123612387D01*
X205166737Y-123612387D02*
X204934297Y-123113918D01*
X205166737Y-123612387D02*
X205399177Y-124110857D01*
X205166737Y-123612387D02*
X205541475Y-122996293D01*
X205541475Y-122996293D02*
X205879569Y-123721340D01*
X205710522Y-123358816D02*
X206163676Y-123147507D01*
X205879569Y-123721340D02*
X205166737Y-123612387D01*
%TO.C,D70*%
X100339822Y-110102536D02*
X100702345Y-110271584D01*
X100702345Y-110271584D02*
X100934785Y-109773114D01*
X100702345Y-110271584D02*
X100469905Y-110770053D01*
X100702345Y-110271584D02*
X101415177Y-110162631D01*
X101415177Y-110162631D02*
X101077083Y-110887678D01*
X101246130Y-110525155D02*
X101699284Y-110736464D01*
X101077083Y-110887678D02*
X100702345Y-110271584D01*
%TO.C,D37*%
X182574026Y-118700259D02*
X182936549Y-118531211D01*
X182936549Y-118531211D02*
X182704109Y-118032742D01*
X182936549Y-118531211D02*
X183168989Y-119029681D01*
X182936549Y-118531211D02*
X183311287Y-117915117D01*
X183311287Y-117915117D02*
X183649381Y-118640164D01*
X183480334Y-118277640D02*
X183933488Y-118066331D01*
X183649381Y-118640164D02*
X182936549Y-118531211D01*
%TO.C,D61*%
X53343724Y-125702746D02*
X53706247Y-125871794D01*
X53706247Y-125871794D02*
X53938687Y-125373324D01*
X53706247Y-125871794D02*
X53473807Y-126370263D01*
X53706247Y-125871794D02*
X54419079Y-125762841D01*
X54419079Y-125762841D02*
X54080985Y-126487888D01*
X54250032Y-126125365D02*
X54703186Y-126336674D01*
X54080985Y-126487888D02*
X53706247Y-125871794D01*
%TO.C,D28*%
X232951072Y-141550937D02*
X233313595Y-141381889D01*
X233313595Y-141381889D02*
X233081155Y-140883420D01*
X233313595Y-141381889D02*
X233546035Y-141880359D01*
X233313595Y-141381889D02*
X233688333Y-140765795D01*
X233688333Y-140765795D02*
X234026427Y-141490842D01*
X233857380Y-141128318D02*
X234310534Y-140917009D01*
X234026427Y-141490842D02*
X233313595Y-141381889D01*
%TO.C,D65*%
X74306057Y-123340489D02*
X74668580Y-123509537D01*
X74668580Y-123509537D02*
X74901020Y-123011067D01*
X74668580Y-123509537D02*
X74436140Y-124008006D01*
X74668580Y-123509537D02*
X75381412Y-123400584D01*
X75381412Y-123400584D02*
X75043318Y-124125631D01*
X75212365Y-123763108D02*
X75665519Y-123974417D01*
X75043318Y-124125631D02*
X74668580Y-123509537D01*
D10*
%TO.C,JST1*%
X169390664Y-133001753D02*
X169390664Y-140601753D01*
X169390664Y-140601753D02*
X175290664Y-140601753D01*
X170090664Y-133001753D02*
X169390664Y-133001753D01*
X170090664Y-134601753D02*
X170090664Y-133001753D01*
X171090664Y-136101753D02*
X171590664Y-136101753D01*
X171340664Y-135851753D02*
X171340664Y-136351753D01*
X174590664Y-133001753D02*
X174590664Y-134601753D01*
X174590664Y-134601753D02*
X170090664Y-134601753D01*
X175290664Y-133001753D02*
X174590664Y-133001753D01*
X175290664Y-140601753D02*
X175290664Y-133001753D01*
D11*
%TO.C,D16*%
X129163339Y-133473565D02*
X129525862Y-133642613D01*
X129525862Y-133642613D02*
X129758302Y-133144143D01*
X129525862Y-133642613D02*
X129293422Y-134141082D01*
X129525862Y-133642613D02*
X130238694Y-133533660D01*
X130238694Y-133533660D02*
X129900600Y-134258707D01*
X130069647Y-133896184D02*
X130522801Y-134107493D01*
X129900600Y-134258707D02*
X129525862Y-133642613D01*
%TO.C,D67*%
X88675082Y-92526023D02*
X89037605Y-92695071D01*
X89037605Y-92695071D02*
X89270045Y-92196601D01*
X89037605Y-92695071D02*
X88805165Y-93193540D01*
X89037605Y-92695071D02*
X89750437Y-92586118D01*
X89750437Y-92586118D02*
X89412343Y-93311165D01*
X89581390Y-92948642D02*
X90034544Y-93159951D01*
X89412343Y-93311165D02*
X89037605Y-92695071D01*
%TO.C,D62*%
X60528235Y-110295503D02*
X60890758Y-110464551D01*
X60890758Y-110464551D02*
X61123198Y-109966081D01*
X60890758Y-110464551D02*
X60658318Y-110963020D01*
X60890758Y-110464551D02*
X61603590Y-110355598D01*
X61603590Y-110355598D02*
X61265496Y-111080645D01*
X61434543Y-110718122D02*
X61887697Y-110929431D01*
X61265496Y-111080645D02*
X60890758Y-110464551D01*
%TO.C,D13*%
X114117655Y-123147516D02*
X114480178Y-123316564D01*
X114480178Y-123316564D02*
X114712618Y-122818094D01*
X114480178Y-123316564D02*
X114247738Y-123815033D01*
X114480178Y-123316564D02*
X115193010Y-123207611D01*
X115193010Y-123207611D02*
X114854916Y-123932658D01*
X115023963Y-123570135D02*
X115477117Y-123781444D01*
X114854916Y-123932658D02*
X114480178Y-123316564D01*
%TO.C,D55*%
X196943047Y-149514725D02*
X197305570Y-149345677D01*
X197305570Y-149345677D02*
X197073130Y-148847208D01*
X197305570Y-149345677D02*
X197538010Y-149844147D01*
X197305570Y-149345677D02*
X197680308Y-148729583D01*
X197680308Y-148729583D02*
X198018402Y-149454630D01*
X197849355Y-149092106D02*
X198302509Y-148880797D01*
X198018402Y-149454630D02*
X197305570Y-149345677D01*
%TO.C,D79*%
X117126655Y-167863196D02*
X117433072Y-168120311D01*
X117433072Y-168120311D02*
X117786606Y-167698987D01*
X117433072Y-168120311D02*
X117079539Y-168541636D01*
X117433072Y-168120311D02*
X118149814Y-168199566D01*
X118149814Y-168199566D02*
X117635584Y-168812402D01*
X117892699Y-168505984D02*
X118275721Y-168827378D01*
X117635584Y-168812402D02*
X117433072Y-168120311D01*
%TO.C,D77*%
X136347845Y-118066328D02*
X136710368Y-118235376D01*
X136710368Y-118235376D02*
X136942808Y-117736906D01*
X136710368Y-118235376D02*
X136477928Y-118733845D01*
X136710368Y-118235376D02*
X137423200Y-118126423D01*
X137423200Y-118126423D02*
X137085106Y-118851470D01*
X137254153Y-118488947D02*
X137707307Y-118700256D01*
X137085106Y-118851470D02*
X136710368Y-118235376D01*
%TO.C,D19*%
X117126655Y-167863196D02*
X117433072Y-168120311D01*
X117433072Y-168120311D02*
X117786606Y-167698987D01*
X117433072Y-168120311D02*
X117079539Y-168541636D01*
X117433072Y-168120311D02*
X118149814Y-168199566D01*
X118149814Y-168199566D02*
X117635584Y-168812402D01*
X117892699Y-168505984D02*
X118275721Y-168827378D01*
X117635584Y-168812402D02*
X117433072Y-168120311D01*
%TO.C,D60*%
X189476098Y-182790753D02*
X189705528Y-182463092D01*
X189705528Y-182463092D02*
X189254995Y-182147625D01*
X189705528Y-182463092D02*
X190156062Y-182778559D01*
X189705528Y-182463092D02*
X189722013Y-181742170D01*
X189722013Y-181742170D02*
X190377335Y-182201032D01*
X190049674Y-181971601D02*
X190336462Y-181562025D01*
X190377335Y-182201032D02*
X189705528Y-182463092D01*
%TO.C,D25*%
X244615815Y-123974416D02*
X244978338Y-123805368D01*
X244978338Y-123805368D02*
X244745898Y-123306899D01*
X244978338Y-123805368D02*
X245210778Y-124303838D01*
X244978338Y-123805368D02*
X245353076Y-123189274D01*
X245353076Y-123189274D02*
X245691170Y-123914321D01*
X245522123Y-123551797D02*
X245975277Y-123340488D01*
X245691170Y-123914321D02*
X244978338Y-123805368D01*
%TO.C,D3*%
X67712744Y-94888278D02*
X68075267Y-95057326D01*
X68075267Y-95057326D02*
X68307707Y-94558856D01*
X68075267Y-95057326D02*
X67842827Y-95555795D01*
X68075267Y-95057326D02*
X68788099Y-94948373D01*
X68788099Y-94948373D02*
X68450005Y-95673420D01*
X68619052Y-95310897D02*
X69072206Y-95522206D01*
X68450005Y-95673420D02*
X68075267Y-95057326D01*
%TO.C,D54*%
X197619715Y-108374203D02*
X197982238Y-108205155D01*
X197982238Y-108205155D02*
X197749798Y-107706686D01*
X197982238Y-108205155D02*
X198214678Y-108703625D01*
X197982238Y-108205155D02*
X198356976Y-107589061D01*
X198356976Y-107589061D02*
X198695070Y-108314108D01*
X198526023Y-107951584D02*
X198979177Y-107740275D01*
X198695070Y-108314108D02*
X197982238Y-108205155D01*
%TO.C,D12*%
X106933140Y-138554743D02*
X107295663Y-138723791D01*
X107295663Y-138723791D02*
X107528103Y-138225321D01*
X107295663Y-138723791D02*
X107063223Y-139222260D01*
X107295663Y-138723791D02*
X108008495Y-138614838D01*
X108008495Y-138614838D02*
X107670401Y-139339885D01*
X107839448Y-138977362D02*
X108292602Y-139188671D01*
X107670401Y-139339885D02*
X107295663Y-138723791D01*
%TO.C,D56*%
X189758537Y-134107498D02*
X190121060Y-133938450D01*
X190121060Y-133938450D02*
X189888620Y-133439981D01*
X190121060Y-133938450D02*
X190353500Y-134436920D01*
X190121060Y-133938450D02*
X190495798Y-133322356D01*
X190495798Y-133322356D02*
X190833892Y-134047403D01*
X190664845Y-133684879D02*
X191117999Y-133473570D01*
X190833892Y-134047403D02*
X190121060Y-133938450D01*
%TO.C,D66*%
X81490569Y-107933256D02*
X81853092Y-108102304D01*
X81853092Y-108102304D02*
X82085532Y-107603834D01*
X81853092Y-108102304D02*
X81620652Y-108600773D01*
X81853092Y-108102304D02*
X82565924Y-107993351D01*
X82565924Y-107993351D02*
X82227830Y-108718398D01*
X82396877Y-108355875D02*
X82850031Y-108567184D01*
X82227830Y-108718398D02*
X81853092Y-108102304D01*
%TO.C,D34*%
X197619715Y-108374203D02*
X197982238Y-108205155D01*
X197982238Y-108205155D02*
X197749798Y-107706686D01*
X197982238Y-108205155D02*
X198214678Y-108703625D01*
X197982238Y-108205155D02*
X198356976Y-107589061D01*
X198356976Y-107589061D02*
X198695070Y-108314108D01*
X198526023Y-107951584D02*
X198979177Y-107740275D01*
X198695070Y-108314108D02*
X197982238Y-108205155D01*
%TO.C,D48*%
X232951072Y-141550937D02*
X233313595Y-141381889D01*
X233313595Y-141381889D02*
X233081155Y-140883420D01*
X233313595Y-141381889D02*
X233546035Y-141880359D01*
X233313595Y-141381889D02*
X233688333Y-140765795D01*
X233688333Y-140765795D02*
X234026427Y-141490842D01*
X233857380Y-141128318D02*
X234310534Y-140917009D01*
X234026427Y-141490842D02*
X233313595Y-141381889D01*
%TO.C,D8*%
X85970796Y-140917006D02*
X86333319Y-141086054D01*
X86333319Y-141086054D02*
X86565759Y-140587584D01*
X86333319Y-141086054D02*
X86100879Y-141584523D01*
X86333319Y-141086054D02*
X87046151Y-140977101D01*
X87046151Y-140977101D02*
X86708057Y-141702148D01*
X86877104Y-141339625D02*
X87330258Y-141550934D01*
X86708057Y-141702148D02*
X86333319Y-141086054D01*
%TO.C,D59*%
X202005604Y-168827379D02*
X202312021Y-168570264D01*
X202312021Y-168570264D02*
X201958488Y-168148939D01*
X202312021Y-168570264D02*
X202665555Y-168991588D01*
X202312021Y-168570264D02*
X202514533Y-167878173D01*
X202514533Y-167878173D02*
X203028763Y-168491009D01*
X202771648Y-168184591D02*
X203154670Y-167863197D01*
X203028763Y-168491009D02*
X202312021Y-168570264D01*
%TD*%
D13*
%TO.C,MCU1*%
X152520659Y-113881757D03*
D14*
X152520659Y-116421757D03*
X152520659Y-118961757D03*
X152520659Y-121501757D03*
X152520659Y-124041757D03*
X152520659Y-126581757D03*
X152520659Y-129121757D03*
X152520659Y-131661757D03*
X152520659Y-134201757D03*
X152520659Y-136741757D03*
X152520659Y-139281757D03*
X152520659Y-141821757D03*
X167760659Y-113881757D03*
X167760659Y-116421757D03*
X167760659Y-118961757D03*
X167760659Y-121501757D03*
X167760659Y-124041757D03*
X167760659Y-126581757D03*
X167760659Y-129121757D03*
X167760659Y-131661757D03*
X167760659Y-134201757D03*
X167760659Y-136741757D03*
X167760659Y-139281757D03*
X167760659Y-141821757D03*
%TD*%
M02*
