%TF.GenerationSoftware,KiCad,Pcbnew,7.0.10*%
%TF.CreationDate,2024-01-18T08:47:23+01:00*%
%TF.ProjectId,turbo_go_2,74757262-6f5f-4676-9f5f-322e6b696361,v1.0.0*%
%TF.SameCoordinates,Original*%
%TF.FileFunction,Soldermask,Bot*%
%TF.FilePolarity,Negative*%
%FSLAX46Y46*%
G04 Gerber Fmt 4.6, Leading zero omitted, Abs format (unit mm)*
G04 Created by KiCad (PCBNEW 7.0.10) date 2024-01-18 08:47:23*
%MOMM*%
%LPD*%
G01*
G04 APERTURE LIST*
G04 Aperture macros list*
%AMRoundRect*
0 Rectangle with rounded corners*
0 $1 Rounding radius*
0 $2 $3 $4 $5 $6 $7 $8 $9 X,Y pos of 4 corners*
0 Add a 4 corners polygon primitive as box body*
4,1,4,$2,$3,$4,$5,$6,$7,$8,$9,$2,$3,0*
0 Add four circle primitives for the rounded corners*
1,1,$1+$1,$2,$3*
1,1,$1+$1,$4,$5*
1,1,$1+$1,$6,$7*
1,1,$1+$1,$8,$9*
0 Add four rect primitives between the rounded corners*
20,1,$1+$1,$2,$3,$4,$5,0*
20,1,$1+$1,$4,$5,$6,$7,0*
20,1,$1+$1,$6,$7,$8,$9,0*
20,1,$1+$1,$8,$9,$2,$3,0*%
G04 Aperture macros list end*
%ADD10C,0.800000*%
%ADD11C,4.500000*%
%ADD12C,1.801800*%
%ADD13C,3.100000*%
%ADD14C,3.529000*%
%ADD15RoundRect,0.050000X-0.628796X-1.727604X1.727604X-0.628796X0.628796X1.727604X-1.727604X0.628796X0*%
%ADD16RoundRect,0.050000X-1.181415X-0.430000X0.430000X-1.181415X1.181415X0.430000X-0.430000X1.181415X0*%
%ADD17RoundRect,0.050000X-0.661409X-0.353606X0.154268X-0.733963X0.661409X0.353606X-0.154268X0.733963X0*%
%ADD18C,2.005000*%
%ADD19RoundRect,0.050000X-1.727604X-0.628796X0.628796X-1.727604X1.727604X0.628796X-0.628796X1.727604X0*%
%ADD20RoundRect,0.050000X-0.430000X-1.181415X1.181415X-0.430000X0.430000X1.181415X-1.181415X0.430000X0*%
%ADD21RoundRect,0.050000X-0.154268X-0.733963X0.661409X-0.353606X0.154268X0.733963X-0.661409X0.353606X0*%
%ADD22RoundRect,0.050000X-0.876300X0.876300X-0.876300X-0.876300X0.876300X-0.876300X0.876300X0.876300X0*%
%ADD23C,1.852600*%
%ADD24RoundRect,0.050000X-0.450000X-0.850000X0.450000X-0.850000X0.450000X0.850000X-0.450000X0.850000X0*%
%ADD25RoundRect,0.050000X-0.160234X-1.831482X1.831482X-0.160234X0.160234X1.831482X-1.831482X0.160234X0*%
%ADD26RoundRect,0.050000X-1.238136X0.218317X-0.218317X-1.238136X1.238136X-0.218317X0.218317X1.238136X0*%
%ADD27RoundRect,0.050000X-0.749601X0.024473X-0.233382X-0.712764X0.749601X-0.024473X0.233382X0.712764X0*%
%ADD28O,1.800000X1.800000*%
%ADD29C,1.800000*%
%ADD30RoundRect,0.050000X-1.810547X0.319248X-0.319248X-1.810547X1.810547X-0.319248X0.319248X1.810547X0*%
%ADD31RoundRect,0.050000X0.319248X-1.810547X1.810547X0.319248X-0.319248X1.810547X-1.810547X-0.319248X0*%
%ADD32RoundRect,0.050000X-0.600000X-0.850000X0.600000X-0.850000X0.600000X0.850000X-0.600000X0.850000X0*%
%ADD33O,1.300000X1.800000*%
%ADD34RoundRect,0.050000X-1.831482X-0.160234X0.160234X-1.831482X1.831482X0.160234X-0.160234X1.831482X0*%
%ADD35RoundRect,0.050000X-1.252452X-0.109575X0.109575X-1.252452X1.252452X0.109575X-0.109575X1.252452X0*%
%ADD36RoundRect,0.050000X-0.730393X-0.170372X-0.040953X-0.748881X0.730393X0.170372X0.040953X0.748881X0*%
%ADD37RoundRect,0.050000X0.218317X-1.238136X1.238136X0.218317X-0.218317X1.238136X-1.238136X-0.218317X0*%
%ADD38RoundRect,0.050000X0.233382X-0.712764X0.749601X0.024473X-0.233382X0.712764X-0.749601X-0.024473X0*%
%ADD39RoundRect,0.050000X-0.500000X-0.400000X0.500000X-0.400000X0.500000X0.400000X-0.500000X0.400000X0*%
%ADD40C,1.000000*%
%ADD41RoundRect,0.050000X-0.350000X-0.750000X0.350000X-0.750000X0.350000X0.750000X-0.350000X0.750000X0*%
%ADD42RoundRect,0.050000X-0.109575X-1.252452X1.252452X-0.109575X0.109575X1.252452X-1.252452X0.109575X0*%
%ADD43RoundRect,0.050000X0.040953X-0.748881X0.730393X-0.170372X-0.040953X0.748881X-0.730393X0.170372X0*%
G04 APERTURE END LIST*
D10*
%TO.C,_5*%
X142209773Y-124661613D03*
X143140848Y-123808440D03*
X142154688Y-125923266D03*
X144402501Y-123863525D03*
D11*
X143705181Y-125358933D03*
D10*
X143007861Y-126854341D03*
X145255674Y-124794600D03*
X144269514Y-126909426D03*
X145200589Y-126056253D03*
%TD*%
D12*
%TO.C,S44*%
X245382279Y-136857553D03*
D13*
X247852393Y-129140622D03*
D14*
X250366972Y-134533153D03*
D13*
X253313692Y-129021407D03*
D12*
X255351665Y-132208753D03*
D15*
X244884235Y-130524696D03*
X256281850Y-127637333D03*
%TD*%
D16*
%TO.C,D9*%
X90382003Y-124216557D03*
D17*
X92339628Y-125129413D03*
X95330444Y-126524053D03*
D18*
X97288069Y-127436909D03*
%TD*%
D10*
%TO.C,_4*%
X99017231Y-132105052D03*
X99948306Y-131251879D03*
X98962146Y-133366705D03*
X101209959Y-131306964D03*
D11*
X100512639Y-132802372D03*
D10*
X99815319Y-134297780D03*
X102063132Y-132238039D03*
X101076972Y-134352865D03*
X102008047Y-133499692D03*
%TD*%
D12*
%TO.C,S10*%
X98147948Y-103563560D03*
D13*
X105647220Y-100495429D03*
D14*
X103132641Y-105887960D03*
D13*
X109248998Y-104602397D03*
D12*
X108117334Y-108212360D03*
D19*
X102679062Y-99111354D03*
X112217156Y-105986472D03*
%TD*%
D20*
%TO.C,D23*%
X248435835Y-96815416D03*
D21*
X250393460Y-95902560D03*
X253384276Y-94507920D03*
D18*
X255341901Y-93595064D03*
%TD*%
D12*
%TO.C,S5*%
X72114183Y-116801507D03*
D13*
X79613455Y-113733376D03*
D14*
X77098876Y-119125907D03*
D13*
X83215233Y-117840344D03*
D12*
X82083569Y-121450307D03*
D19*
X76645297Y-112349301D03*
X86183391Y-119224419D03*
%TD*%
D12*
%TO.C,S4*%
X64929679Y-132208747D03*
D13*
X72428951Y-129140616D03*
D14*
X69914372Y-134533147D03*
D13*
X76030729Y-133247584D03*
D12*
X74899065Y-136857547D03*
D19*
X69460793Y-127756541D03*
X78998887Y-134631659D03*
%TD*%
D12*
%TO.C,S23*%
X244791080Y-92998107D03*
D13*
X247261194Y-85281176D03*
D14*
X249775773Y-90673707D03*
D13*
X252722493Y-85161961D03*
D12*
X254760466Y-88349307D03*
D15*
X244293036Y-86665250D03*
X255690651Y-83777887D03*
%TD*%
D12*
%TO.C,S56*%
X183340486Y-131583391D03*
D13*
X185810600Y-123866460D03*
D14*
X188325179Y-129258991D03*
D13*
X191271899Y-123747245D03*
D12*
X193309872Y-126934591D03*
D15*
X182842442Y-125250534D03*
X194240057Y-122363171D03*
%TD*%
D10*
%TO.C,_2*%
X66390154Y-116890794D03*
X67321229Y-116037621D03*
X66335069Y-118152447D03*
X68582882Y-116092706D03*
D11*
X67885562Y-117588114D03*
D10*
X67188242Y-119083522D03*
X69436055Y-117023781D03*
X68449895Y-119138607D03*
X69380970Y-118285434D03*
%TD*%
D20*
%TO.C,D51*%
X208624239Y-96622443D03*
D21*
X210581864Y-95709587D03*
X213572680Y-94314947D03*
D18*
X215530305Y-93402091D03*
%TD*%
D20*
%TO.C,D46*%
X234658006Y-109860394D03*
D21*
X236615631Y-108947538D03*
X239606447Y-107552898D03*
D18*
X241564072Y-106640042D03*
%TD*%
D12*
%TO.C,S6*%
X79298702Y-101394276D03*
D13*
X86797974Y-98326145D03*
D14*
X84283395Y-103718676D03*
D13*
X90399752Y-102433113D03*
D12*
X89268088Y-106043076D03*
D19*
X83829816Y-96942070D03*
X93367910Y-103817188D03*
%TD*%
D20*
%TO.C,D47*%
X227473487Y-94453158D03*
D21*
X229431112Y-93540302D03*
X232421928Y-92145662D03*
D18*
X234379553Y-91232806D03*
%TD*%
D12*
%TO.C,S73*%
X111925781Y-116608535D03*
D13*
X119425053Y-113540404D03*
D14*
X116910474Y-118932935D03*
D13*
X123026831Y-117647372D03*
D12*
X121895167Y-121257335D03*
D19*
X116456895Y-112156329D03*
X125994989Y-119031447D03*
%TD*%
D20*
%TO.C,D41*%
X262804852Y-127629890D03*
D21*
X264762477Y-126717034D03*
X267753293Y-125322394D03*
D18*
X269710918Y-124409538D03*
%TD*%
D10*
%TO.C,_12*%
X189449768Y-156870728D03*
X189394683Y-155609075D03*
X190380843Y-157723901D03*
X190247856Y-154678000D03*
D11*
X190945176Y-156173408D03*
D10*
X191642496Y-157668816D03*
X191509509Y-154622915D03*
X192495669Y-156737741D03*
X192440584Y-155476088D03*
%TD*%
D12*
%TO.C,S27*%
X223828738Y-90635848D03*
D13*
X226298852Y-82918917D03*
D14*
X228813431Y-88311448D03*
D13*
X231760151Y-82799702D03*
D12*
X233798124Y-85987048D03*
D15*
X223330694Y-84302991D03*
X234728309Y-81415628D03*
%TD*%
D10*
%TO.C,_6*%
X127840751Y-155476085D03*
X128771826Y-154622912D03*
X127785666Y-156737738D03*
X130033479Y-154677997D03*
D11*
X129336159Y-156173405D03*
D10*
X128638839Y-157668813D03*
X130886652Y-155609072D03*
X129900492Y-157723898D03*
X130831567Y-156870725D03*
%TD*%
D20*
%TO.C,D32*%
X209215425Y-140481884D03*
D21*
X211173050Y-139569028D03*
X214163866Y-138174388D03*
D18*
X216121491Y-137261532D03*
%TD*%
D10*
%TO.C,_3*%
X113386250Y-101290589D03*
X114317325Y-100437416D03*
X113331165Y-102552242D03*
X115578978Y-100492501D03*
D11*
X114881658Y-101987909D03*
D10*
X114184338Y-103483317D03*
X116432151Y-101423576D03*
X115445991Y-103538402D03*
X116377066Y-102685229D03*
%TD*%
D12*
%TO.C,S53*%
X198386175Y-121257331D03*
D13*
X200856289Y-113540400D03*
D14*
X203370868Y-118932931D03*
D13*
X206317588Y-113421185D03*
D12*
X208355561Y-116608531D03*
D15*
X197888131Y-114924474D03*
X209285746Y-112037111D03*
%TD*%
D22*
%TO.C,MCU1*%
X152520659Y-113881757D03*
D23*
X152520659Y-116421757D03*
X152520659Y-118961757D03*
X152520659Y-121501757D03*
X152520659Y-124041757D03*
X152520659Y-126581757D03*
X152520659Y-129121757D03*
X152520659Y-131661757D03*
X152520659Y-134201757D03*
X152520659Y-136741757D03*
X152520659Y-139281757D03*
X152520659Y-141821757D03*
X167760659Y-113881757D03*
X167760659Y-116421757D03*
X167760659Y-118961757D03*
X167760659Y-121501757D03*
X167760659Y-124041757D03*
X167760659Y-126581757D03*
X167760659Y-129121757D03*
X167760659Y-131661757D03*
X167760659Y-134201757D03*
X167760659Y-136741757D03*
X167760659Y-139281757D03*
X167760659Y-141821757D03*
%TD*%
D16*
%TO.C,D14*%
X118528853Y-106447062D03*
D17*
X120486478Y-107359918D03*
X123477294Y-108754558D03*
D18*
X125434919Y-109667414D03*
%TD*%
D24*
%TO.C,*%
X148640664Y-138551757D03*
X148640664Y-135151757D03*
%TD*%
D12*
%TO.C,S55*%
X190524993Y-146990617D03*
D13*
X192995107Y-139273686D03*
D14*
X195509686Y-144666217D03*
D13*
X198456406Y-139154471D03*
D12*
X200494379Y-142341817D03*
D15*
X190026949Y-140657760D03*
X201424564Y-137770397D03*
%TD*%
D12*
%TO.C,S39*%
X195152954Y-168050402D03*
D13*
X195541612Y-159957106D03*
D14*
X199366198Y-164515070D03*
D13*
X200785967Y-158428465D03*
D12*
X203579442Y-160979738D03*
D25*
X193032816Y-162062235D03*
X203294762Y-156323336D03*
%TD*%
D26*
%TO.C,D20*%
X128189722Y-179055414D03*
D27*
X129428647Y-180824782D03*
X131321449Y-183527984D03*
D18*
X132560374Y-185297352D03*
%TD*%
D16*
%TO.C,D15*%
X119205520Y-147587586D03*
D17*
X121163145Y-148500442D03*
X124153961Y-149895082D03*
D18*
X126111586Y-150807938D03*
%TD*%
D12*
%TO.C,S18*%
X99007827Y-151409780D03*
D13*
X106507099Y-148341649D03*
D14*
X103992520Y-153734180D03*
D13*
X110108877Y-152448617D03*
D12*
X108977213Y-156058580D03*
D19*
X103538941Y-146957574D03*
X113077035Y-153832692D03*
%TD*%
D16*
%TO.C,D64*%
X64348247Y-137454510D03*
D17*
X66305872Y-138367366D03*
X69296688Y-139762006D03*
D18*
X71254313Y-140674862D03*
%TD*%
D12*
%TO.C,S46*%
X231013250Y-106043076D03*
D13*
X233483364Y-98326145D03*
D14*
X235997943Y-103718676D03*
D13*
X238944663Y-98206930D03*
D12*
X240982636Y-101394276D03*
D15*
X230515206Y-99710219D03*
X241912821Y-96822856D03*
%TD*%
D10*
%TO.C,_10*%
X218273287Y-133499694D03*
X218218202Y-132238041D03*
X219204362Y-134352867D03*
X219071375Y-131306966D03*
D11*
X219768695Y-132802374D03*
D10*
X220466015Y-134297782D03*
X220333028Y-131251881D03*
X221319188Y-133366707D03*
X221264103Y-132105054D03*
%TD*%
D16*
%TO.C,D71*%
X104751029Y-93402083D03*
D17*
X106708654Y-94314939D03*
X109699470Y-95709579D03*
D18*
X111657095Y-96622435D03*
%TD*%
D12*
%TO.C,S74*%
X119110283Y-101201305D03*
D13*
X126609555Y-98133174D03*
D14*
X124094976Y-103525705D03*
D13*
X130211333Y-102240142D03*
D12*
X129079669Y-105850105D03*
D19*
X123641397Y-96749099D03*
X133179491Y-103624217D03*
%TD*%
D28*
%TO.C,DISP1*%
X155060664Y-147551749D03*
X157600664Y-147551749D03*
X160140664Y-147551749D03*
X162680664Y-147551749D03*
D29*
X165220664Y-147551749D03*
%TD*%
D20*
%TO.C,D38*%
X214948874Y-159875893D03*
D21*
X216906499Y-158963037D03*
X219897315Y-157568397D03*
D18*
X221854940Y-156655541D03*
%TD*%
D12*
%TO.C,S72*%
X104741266Y-132015766D03*
D13*
X112240538Y-128947635D03*
D14*
X109725959Y-134340166D03*
D13*
X115842316Y-133054603D03*
D12*
X114710652Y-136664566D03*
D19*
X109272380Y-127563560D03*
X118810474Y-134438678D03*
%TD*%
D10*
%TO.C,_11*%
X175080742Y-126056259D03*
X175025657Y-124794606D03*
X176011817Y-126909432D03*
X175878830Y-123863531D03*
D11*
X176576150Y-125358939D03*
D10*
X177273470Y-126854347D03*
X177140483Y-123808446D03*
X178126643Y-125923272D03*
X178071558Y-124661619D03*
%TD*%
D20*
%TO.C,D22*%
X255620345Y-112222654D03*
D21*
X257577970Y-111309798D03*
X260568786Y-109915158D03*
D18*
X262526411Y-109002302D03*
%TD*%
D20*
%TO.C,D50*%
X215808756Y-112029680D03*
D21*
X217766381Y-111116824D03*
X220757197Y-109722184D03*
D18*
X222714822Y-108809328D03*
%TD*%
D10*
%TO.C,_1*%
X73574671Y-101483561D03*
X74505746Y-100630388D03*
X73519586Y-102745214D03*
X75767399Y-100685473D03*
D11*
X75070079Y-102180881D03*
D10*
X74372759Y-103676289D03*
X76620572Y-101616548D03*
X75634412Y-103731374D03*
X76565487Y-102878201D03*
%TD*%
D12*
%TO.C,S80*%
X131316145Y-174803172D03*
D13*
X139344770Y-175895728D03*
D14*
X134470815Y-179308508D03*
D13*
X140410517Y-181253357D03*
D12*
X137625485Y-183813844D03*
D30*
X137466307Y-173213005D03*
X142288980Y-183936080D03*
%TD*%
D20*
%TO.C,D44*%
X249027026Y-140674860D03*
D21*
X250984651Y-139762004D03*
X253975467Y-138367364D03*
D18*
X255933092Y-137454508D03*
%TD*%
D12*
%TO.C,S48*%
X226533023Y-139026824D03*
D13*
X229003137Y-131309893D03*
D14*
X231517716Y-136702424D03*
D13*
X234464436Y-131190678D03*
D12*
X236502409Y-134378024D03*
D15*
X226034979Y-132693967D03*
X237432594Y-129806604D03*
%TD*%
D16*
%TO.C,D78*%
X98426389Y-156655541D03*
D17*
X100384014Y-157568397D03*
X103374830Y-158963037D03*
D18*
X105332455Y-159875893D03*
%TD*%
D12*
%TO.C,S67*%
X86483195Y-85987048D03*
D13*
X93982467Y-82918917D03*
D14*
X91467888Y-88311448D03*
D13*
X97584245Y-87025885D03*
D12*
X96452581Y-90635848D03*
D19*
X91014309Y-81534842D03*
X100552403Y-88409960D03*
%TD*%
D12*
%TO.C,S3*%
X65520854Y-88349304D03*
D13*
X73020126Y-85281173D03*
D14*
X70505547Y-90673704D03*
D13*
X76621904Y-89388141D03*
D12*
X75490240Y-92998104D03*
D19*
X70051968Y-83897098D03*
X79590062Y-90772216D03*
%TD*%
D12*
%TO.C,S31*%
X204979490Y-92805129D03*
D13*
X207449604Y-85088198D03*
D14*
X209964183Y-90480729D03*
D13*
X212910903Y-84968983D03*
D12*
X214948876Y-88156329D03*
D15*
X204481446Y-86472272D03*
X215879061Y-83584909D03*
%TD*%
D20*
%TO.C,D49*%
X222993264Y-127436908D03*
D21*
X224950889Y-126524052D03*
X227941705Y-125129412D03*
D18*
X229899330Y-124216556D03*
%TD*%
D12*
%TO.C,S58*%
X211304123Y-156058585D03*
D13*
X213774237Y-148341654D03*
D14*
X216288816Y-153734185D03*
D13*
X219235536Y-148222439D03*
D12*
X221273509Y-151409785D03*
D15*
X210806079Y-149725728D03*
X222203694Y-146838365D03*
%TD*%
D12*
%TO.C,S45*%
X238197757Y-121450311D03*
D13*
X240667871Y-113733380D03*
D14*
X243182450Y-119125911D03*
D13*
X246129170Y-113614165D03*
D12*
X248167143Y-116801511D03*
D15*
X237699713Y-115117454D03*
X249097328Y-112230091D03*
%TD*%
D10*
%TO.C,_8*%
X250900361Y-118285426D03*
X250845276Y-117023773D03*
X251831436Y-119138599D03*
X251698449Y-116092698D03*
D11*
X252395769Y-117588106D03*
D10*
X253093089Y-119083514D03*
X252960102Y-116037613D03*
X253946262Y-118152439D03*
X253891177Y-116890786D03*
%TD*%
D20*
%TO.C,D33*%
X202030912Y-125074647D03*
D21*
X203988537Y-124161791D03*
X206979353Y-122767151D03*
D18*
X208936978Y-121854295D03*
%TD*%
D12*
%TO.C,S32*%
X205570682Y-136664564D03*
D13*
X208040796Y-128947633D03*
D14*
X210555375Y-134340164D03*
D13*
X213502095Y-128828418D03*
D12*
X215540068Y-132015764D03*
D15*
X205072638Y-130331707D03*
X216470253Y-127444344D03*
%TD*%
D12*
%TO.C,S60*%
X182655853Y-183813843D03*
D13*
X180936568Y-175895727D03*
D14*
X185810523Y-179308507D03*
D13*
X185606585Y-173061835D03*
D12*
X188965193Y-174803171D03*
D31*
X179058106Y-178578450D03*
X187485048Y-170379112D03*
%TD*%
D16*
%TO.C,D70*%
X97566520Y-108809324D03*
D17*
X99524145Y-109722180D03*
X102514961Y-111116820D03*
D18*
X104472586Y-112029676D03*
%TD*%
D12*
%TO.C,S57*%
X176155978Y-116176160D03*
D13*
X178626092Y-108459229D03*
D14*
X181140671Y-113851760D03*
D13*
X184087391Y-108340014D03*
D12*
X186125364Y-111527360D03*
D15*
X175657934Y-109843303D03*
X187055549Y-106955940D03*
%TD*%
D12*
%TO.C,S71*%
X105332449Y-88156326D03*
D13*
X112831721Y-85088195D03*
D14*
X110317142Y-90480726D03*
D13*
X116433499Y-89195163D03*
D12*
X115301835Y-92805126D03*
D19*
X109863563Y-83704120D03*
X119401657Y-90579238D03*
%TD*%
D20*
%TO.C,D37*%
X179800724Y-119993471D03*
D21*
X181758349Y-119080615D03*
X184749165Y-117685975D03*
D18*
X186706790Y-116773119D03*
%TD*%
D16*
%TO.C,D61*%
X50570422Y-124409534D03*
D17*
X52528047Y-125322390D03*
X55518863Y-126717030D03*
D18*
X57476488Y-127629886D03*
%TD*%
D20*
%TO.C,D28*%
X230177770Y-142844149D03*
D21*
X232135395Y-141931293D03*
X235126211Y-140536653D03*
D18*
X237083836Y-139623797D03*
%TD*%
D12*
%TO.C,S2*%
X58336356Y-103756534D03*
D13*
X65835628Y-100688403D03*
D14*
X63321049Y-106080934D03*
D13*
X69437406Y-104795371D03*
D12*
X68305742Y-108405334D03*
D19*
X62867470Y-99304328D03*
X72405564Y-106179446D03*
%TD*%
D16*
%TO.C,D65*%
X71532755Y-122047277D03*
D17*
X73490380Y-122960133D03*
X76481196Y-124354773D03*
D18*
X78438821Y-125267629D03*
%TD*%
D12*
%TO.C,S8*%
X83778928Y-134378024D03*
D13*
X91278200Y-131309893D03*
D14*
X88763621Y-136702424D03*
D13*
X94879978Y-135416861D03*
D12*
X93748314Y-139026824D03*
D19*
X88310042Y-129925818D03*
X97848136Y-136800936D03*
%TD*%
D12*
%TO.C,S34*%
X191201663Y-105850096D03*
D13*
X193671777Y-98133165D03*
D14*
X196186356Y-103525696D03*
D13*
X199133076Y-98013950D03*
D12*
X201171049Y-101201296D03*
D15*
X190703619Y-99517239D03*
X202101234Y-96629876D03*
%TD*%
D32*
%TO.C,JST1*%
X171340664Y-134351753D03*
D33*
X173340664Y-134351753D03*
%TD*%
D16*
%TO.C,D16*%
X126390037Y-132180353D03*
D17*
X128347662Y-133093209D03*
X131338478Y-134487849D03*
D18*
X133296103Y-135400705D03*
%TD*%
D16*
%TO.C,D67*%
X85901780Y-91232811D03*
D17*
X87859405Y-92145667D03*
X90850221Y-93540307D03*
D18*
X92807846Y-94453163D03*
%TD*%
D12*
%TO.C,S68*%
X83778928Y-134378024D03*
D13*
X91278200Y-131309893D03*
D14*
X88763621Y-136702424D03*
D13*
X94879978Y-135416861D03*
D12*
X93748314Y-139026824D03*
D19*
X88310042Y-129925818D03*
X97848136Y-136800936D03*
%TD*%
D16*
%TO.C,D62*%
X57754933Y-109002291D03*
D17*
X59712558Y-109915147D03*
X62703374Y-111309787D03*
D18*
X64660999Y-112222643D03*
%TD*%
D12*
%TO.C,S15*%
X119786950Y-142341819D03*
D13*
X127286222Y-139273688D03*
D14*
X124771643Y-144666219D03*
D13*
X130888000Y-143380656D03*
D12*
X129756336Y-146990619D03*
D19*
X124318064Y-137889613D03*
X133856158Y-144764731D03*
%TD*%
D12*
%TO.C,S77*%
X134155975Y-111527360D03*
D13*
X141655247Y-108459229D03*
D14*
X139140668Y-113851760D03*
D13*
X145257025Y-112566197D03*
D12*
X144125361Y-116176160D03*
D19*
X138687089Y-107075154D03*
X148225183Y-113950272D03*
%TD*%
D12*
%TO.C,S41*%
X259160107Y-123812576D03*
D13*
X261630221Y-116095645D03*
D14*
X264144800Y-121488176D03*
D13*
X267091520Y-115976430D03*
D12*
X269129493Y-119163776D03*
D15*
X258662063Y-117479719D03*
X270059678Y-114592356D03*
%TD*%
D16*
%TO.C,D13*%
X111344353Y-121854304D03*
D17*
X113301978Y-122767160D03*
X116292794Y-124161800D03*
D18*
X118250419Y-125074656D03*
%TD*%
D12*
%TO.C,S9*%
X90963432Y-118970795D03*
D13*
X98462704Y-115902664D03*
D14*
X95948125Y-121295195D03*
D13*
X102064482Y-120009632D03*
D12*
X100932818Y-123619595D03*
D19*
X95494546Y-114518589D03*
X105032640Y-121393707D03*
%TD*%
D12*
%TO.C,S42*%
X251975586Y-108405333D03*
D13*
X254445700Y-100688402D03*
D14*
X256960279Y-106080933D03*
D13*
X259906999Y-100569187D03*
D12*
X261944972Y-103756533D03*
D15*
X251477542Y-102072476D03*
X262875157Y-99185113D03*
%TD*%
D12*
%TO.C,S19*%
X116701886Y-160979734D03*
D13*
X124739716Y-159957102D03*
D14*
X120915130Y-164515066D03*
D13*
X127155806Y-164856337D03*
D12*
X125128374Y-168050398D03*
D34*
X122230921Y-157851972D03*
X129664601Y-166961467D03*
%TD*%
D20*
%TO.C,D55*%
X194169745Y-150807937D03*
D21*
X196127370Y-149895081D03*
X199118186Y-148500441D03*
D18*
X201075811Y-147587585D03*
%TD*%
D35*
%TO.C,D79*%
X114782559Y-165896266D03*
D36*
X116437215Y-167284687D03*
X118965161Y-169405887D03*
D18*
X120619817Y-170794308D03*
%TD*%
D12*
%TO.C,S29*%
X219348508Y-123619588D03*
D13*
X221818622Y-115902657D03*
D14*
X224333201Y-121295188D03*
D13*
X227279921Y-115783442D03*
D12*
X229317894Y-118970788D03*
D15*
X218850464Y-117286731D03*
X230248079Y-114399368D03*
%TD*%
D16*
%TO.C,D77*%
X133574543Y-116773116D03*
D17*
X135532168Y-117685972D03*
X138522984Y-119080612D03*
D18*
X140480609Y-119993468D03*
%TD*%
D35*
%TO.C,D19*%
X114782559Y-165896266D03*
D36*
X116437215Y-167284687D03*
X118965161Y-169405887D03*
D18*
X120619817Y-170794308D03*
%TD*%
D10*
%TO.C,_7*%
X243715850Y-102878197D03*
X243660765Y-101616544D03*
X244646925Y-103731370D03*
X244513938Y-100685469D03*
D11*
X245211258Y-102180877D03*
D10*
X245908578Y-103676285D03*
X245775591Y-100630384D03*
X246761751Y-102745210D03*
X246706666Y-101483557D03*
%TD*%
D37*
%TO.C,D60*%
X187720954Y-185297358D03*
D38*
X188959879Y-183527990D03*
X190852681Y-180824788D03*
D18*
X192091606Y-179055420D03*
%TD*%
D20*
%TO.C,D25*%
X241842513Y-125267628D03*
D21*
X243800138Y-124354772D03*
X246790954Y-122960132D03*
D18*
X248748579Y-122047276D03*
%TD*%
D16*
%TO.C,D3*%
X64939442Y-93595066D03*
D17*
X66897067Y-94507922D03*
X69887883Y-95902562D03*
D18*
X71845508Y-96815418D03*
%TD*%
D20*
%TO.C,D54*%
X194846413Y-109667415D03*
D21*
X196804038Y-108754559D03*
X199794854Y-107359919D03*
D18*
X201752479Y-106447063D03*
%TD*%
D12*
%TO.C,S52*%
X205570682Y-136664564D03*
D13*
X208040796Y-128947633D03*
D14*
X210555375Y-134340164D03*
D13*
X213502095Y-128828418D03*
D12*
X215540068Y-132015764D03*
D15*
X205072638Y-130331707D03*
X216470253Y-127444344D03*
%TD*%
D16*
%TO.C,D12*%
X104159838Y-137261531D03*
D17*
X106117463Y-138174387D03*
X109108279Y-139569027D03*
D18*
X111065904Y-140481883D03*
%TD*%
D20*
%TO.C,D56*%
X186985235Y-135400710D03*
D21*
X188942860Y-134487854D03*
X191933676Y-133093214D03*
D18*
X193891301Y-132180358D03*
%TD*%
D12*
%TO.C,S61*%
X51151849Y-119163764D03*
D13*
X58651121Y-116095633D03*
D14*
X56136542Y-121488164D03*
D13*
X62252899Y-120202601D03*
D12*
X61121235Y-123812564D03*
D19*
X55682963Y-114711558D03*
X65221057Y-121586676D03*
%TD*%
D12*
%TO.C,S30*%
X212164000Y-108212358D03*
D13*
X214634114Y-100495427D03*
D14*
X217148693Y-105887958D03*
D13*
X220095413Y-100376212D03*
D12*
X222133386Y-103563558D03*
D15*
X211665956Y-101879501D03*
X223063571Y-98992138D03*
%TD*%
D39*
%TO.C,*%
X156490670Y-179128508D03*
X156490670Y-181338508D03*
D40*
X158640670Y-180238508D03*
X158640670Y-180238508D03*
X161640670Y-180238508D03*
X161640670Y-180238508D03*
D39*
X163790670Y-179128508D03*
X163790670Y-181338508D03*
D41*
X162390670Y-178478508D03*
X159390670Y-178478508D03*
X157890670Y-178478508D03*
%TD*%
D12*
%TO.C,S16*%
X126971456Y-126934594D03*
D13*
X134470728Y-123866463D03*
D14*
X131956149Y-129258994D03*
D13*
X138072506Y-127973431D03*
D12*
X136940842Y-131583394D03*
D19*
X131502570Y-122482388D03*
X141040664Y-129357506D03*
%TD*%
D10*
%TO.C,_9*%
X203904256Y-102685236D03*
X203849171Y-101423583D03*
X204835331Y-103538409D03*
X204702344Y-100492508D03*
D11*
X205399664Y-101987916D03*
D10*
X206096984Y-103483324D03*
X205963997Y-100437423D03*
X206950157Y-102552249D03*
X206895072Y-101290596D03*
%TD*%
D16*
%TO.C,D66*%
X78717267Y-106640044D03*
D17*
X80674892Y-107552900D03*
X83665708Y-108947540D03*
D18*
X85623333Y-109860396D03*
%TD*%
D20*
%TO.C,D34*%
X194846413Y-109667415D03*
D21*
X196804038Y-108754559D03*
X199794854Y-107359919D03*
D18*
X201752479Y-106447063D03*
%TD*%
D20*
%TO.C,D48*%
X230177770Y-142844149D03*
D21*
X232135395Y-141931293D03*
X235126211Y-140536653D03*
D18*
X237083836Y-139623797D03*
%TD*%
D16*
%TO.C,D8*%
X83197494Y-139623794D03*
D17*
X85155119Y-140536650D03*
X88145935Y-141931290D03*
D18*
X90103560Y-142844146D03*
%TD*%
D42*
%TO.C,D59*%
X199661508Y-170794309D03*
D43*
X201316164Y-169405888D03*
X203844110Y-167284688D03*
D18*
X205498766Y-165896267D03*
%TD*%
M02*
