%TF.GenerationSoftware,KiCad,Pcbnew,7.0.10*%
%TF.CreationDate,2024-01-18T08:47:23+01:00*%
%TF.ProjectId,turbo_go_2,74757262-6f5f-4676-9f5f-322e6b696361,v1.0.0*%
%TF.SameCoordinates,Original*%
%TF.FileFunction,Legend,Bot*%
%TF.FilePolarity,Positive*%
%FSLAX46Y46*%
G04 Gerber Fmt 4.6, Leading zero omitted, Abs format (unit mm)*
G04 Created by KiCad (PCBNEW 7.0.10) date 2024-01-18 08:47:23*
%MOMM*%
%LPD*%
G01*
G04 APERTURE LIST*
%ADD10C,0.100000*%
%ADD11R,1.752600X1.752600*%
%ADD12C,1.752600*%
G04 APERTURE END LIST*
D10*
%TO.C,D9*%
X93155305Y-125509769D02*
X93517828Y-125678817D01*
X93517828Y-125678817D02*
X93750268Y-125180347D01*
X93517828Y-125678817D02*
X93285388Y-126177286D01*
X93517828Y-125678817D02*
X94230660Y-125569864D01*
X94230660Y-125569864D02*
X93892566Y-126294911D01*
X94061613Y-125932388D02*
X94514767Y-126143697D01*
X93892566Y-126294911D02*
X93517828Y-125678817D01*
%TO.C,D23*%
X251209137Y-95522204D02*
X251571660Y-95353156D01*
X251571660Y-95353156D02*
X251339220Y-94854687D01*
X251571660Y-95353156D02*
X251804100Y-95851626D01*
X251571660Y-95353156D02*
X251946398Y-94737062D01*
X251946398Y-94737062D02*
X252284492Y-95462109D01*
X252115445Y-95099585D02*
X252568599Y-94888276D01*
X252284492Y-95462109D02*
X251571660Y-95353156D01*
%TO.C,D51*%
X211397541Y-95329231D02*
X211760064Y-95160183D01*
X211760064Y-95160183D02*
X211527624Y-94661714D01*
X211760064Y-95160183D02*
X211992504Y-95658653D01*
X211760064Y-95160183D02*
X212134802Y-94544089D01*
X212134802Y-94544089D02*
X212472896Y-95269136D01*
X212303849Y-94906612D02*
X212757003Y-94695303D01*
X212472896Y-95269136D02*
X211760064Y-95160183D01*
%TO.C,D46*%
X237431308Y-108567182D02*
X237793831Y-108398134D01*
X237793831Y-108398134D02*
X237561391Y-107899665D01*
X237793831Y-108398134D02*
X238026271Y-108896604D01*
X237793831Y-108398134D02*
X238168569Y-107782040D01*
X238168569Y-107782040D02*
X238506663Y-108507087D01*
X238337616Y-108144563D02*
X238790770Y-107933254D01*
X238506663Y-108507087D02*
X237793831Y-108398134D01*
%TO.C,D47*%
X230246789Y-93159946D02*
X230609312Y-92990898D01*
X230609312Y-92990898D02*
X230376872Y-92492429D01*
X230609312Y-92990898D02*
X230841752Y-93489368D01*
X230609312Y-92990898D02*
X230984050Y-92374804D01*
X230984050Y-92374804D02*
X231322144Y-93099851D01*
X231153097Y-92737327D02*
X231606251Y-92526018D01*
X231322144Y-93099851D02*
X230609312Y-92990898D01*
%TO.C,D41*%
X265578154Y-126336678D02*
X265940677Y-126167630D01*
X265940677Y-126167630D02*
X265708237Y-125669161D01*
X265940677Y-126167630D02*
X266173117Y-126666100D01*
X265940677Y-126167630D02*
X266315415Y-125551536D01*
X266315415Y-125551536D02*
X266653509Y-126276583D01*
X266484462Y-125914059D02*
X266937616Y-125702750D01*
X266653509Y-126276583D02*
X265940677Y-126167630D01*
%TO.C,D32*%
X211988727Y-139188672D02*
X212351250Y-139019624D01*
X212351250Y-139019624D02*
X212118810Y-138521155D01*
X212351250Y-139019624D02*
X212583690Y-139518094D01*
X212351250Y-139019624D02*
X212725988Y-138403530D01*
X212725988Y-138403530D02*
X213064082Y-139128577D01*
X212895035Y-138766053D02*
X213348189Y-138554744D01*
X213064082Y-139128577D02*
X212351250Y-139019624D01*
%TO.C,D14*%
X121302155Y-107740274D02*
X121664678Y-107909322D01*
X121664678Y-107909322D02*
X121897118Y-107410852D01*
X121664678Y-107909322D02*
X121432238Y-108407791D01*
X121664678Y-107909322D02*
X122377510Y-107800369D01*
X122377510Y-107800369D02*
X122039416Y-108525416D01*
X122208463Y-108162893D02*
X122661617Y-108374202D01*
X122039416Y-108525416D02*
X121664678Y-107909322D01*
%TO.C,D20*%
X129944866Y-181562019D02*
X130174296Y-181889680D01*
X130174296Y-181889680D02*
X130624830Y-181574213D01*
X130174296Y-181889680D02*
X129723763Y-182205147D01*
X130174296Y-181889680D02*
X130846103Y-182151740D01*
X130846103Y-182151740D02*
X130190781Y-182610602D01*
X130518442Y-182381171D02*
X130805230Y-182790747D01*
X130190781Y-182610602D02*
X130174296Y-181889680D01*
%TO.C,D15*%
X121978822Y-148880798D02*
X122341345Y-149049846D01*
X122341345Y-149049846D02*
X122573785Y-148551376D01*
X122341345Y-149049846D02*
X122108905Y-149548315D01*
X122341345Y-149049846D02*
X123054177Y-148940893D01*
X123054177Y-148940893D02*
X122716083Y-149665940D01*
X122885130Y-149303417D02*
X123338284Y-149514726D01*
X122716083Y-149665940D02*
X122341345Y-149049846D01*
%TO.C,D64*%
X67121549Y-138747722D02*
X67484072Y-138916770D01*
X67484072Y-138916770D02*
X67716512Y-138418300D01*
X67484072Y-138916770D02*
X67251632Y-139415239D01*
X67484072Y-138916770D02*
X68196904Y-138807817D01*
X68196904Y-138807817D02*
X67858810Y-139532864D01*
X68027857Y-139170341D02*
X68481011Y-139381650D01*
X67858810Y-139532864D02*
X67484072Y-138916770D01*
%TO.C,D71*%
X107524331Y-94695295D02*
X107886854Y-94864343D01*
X107886854Y-94864343D02*
X108119294Y-94365873D01*
X107886854Y-94864343D02*
X107654414Y-95362812D01*
X107886854Y-94864343D02*
X108599686Y-94755390D01*
X108599686Y-94755390D02*
X108261592Y-95480437D01*
X108430639Y-95117914D02*
X108883793Y-95329223D01*
X108261592Y-95480437D02*
X107886854Y-94864343D01*
%TO.C,D38*%
X217722176Y-158582681D02*
X218084699Y-158413633D01*
X218084699Y-158413633D02*
X217852259Y-157915164D01*
X218084699Y-158413633D02*
X218317139Y-158912103D01*
X218084699Y-158413633D02*
X218459437Y-157797539D01*
X218459437Y-157797539D02*
X218797531Y-158522586D01*
X218628484Y-158160062D02*
X219081638Y-157948753D01*
X218797531Y-158522586D02*
X218084699Y-158413633D01*
%TO.C,D22*%
X258393647Y-110929442D02*
X258756170Y-110760394D01*
X258756170Y-110760394D02*
X258523730Y-110261925D01*
X258756170Y-110760394D02*
X258988610Y-111258864D01*
X258756170Y-110760394D02*
X259130908Y-110144300D01*
X259130908Y-110144300D02*
X259469002Y-110869347D01*
X259299955Y-110506823D02*
X259753109Y-110295514D01*
X259469002Y-110869347D02*
X258756170Y-110760394D01*
%TO.C,D50*%
X218582058Y-110736468D02*
X218944581Y-110567420D01*
X218944581Y-110567420D02*
X218712141Y-110068951D01*
X218944581Y-110567420D02*
X219177021Y-111065890D01*
X218944581Y-110567420D02*
X219319319Y-109951326D01*
X219319319Y-109951326D02*
X219657413Y-110676373D01*
X219488366Y-110313849D02*
X219941520Y-110102540D01*
X219657413Y-110676373D02*
X218944581Y-110567420D01*
%TO.C,D44*%
X251800328Y-139381648D02*
X252162851Y-139212600D01*
X252162851Y-139212600D02*
X251930411Y-138714131D01*
X252162851Y-139212600D02*
X252395291Y-139711070D01*
X252162851Y-139212600D02*
X252537589Y-138596506D01*
X252537589Y-138596506D02*
X252875683Y-139321553D01*
X252706636Y-138959029D02*
X253159790Y-138747720D01*
X252875683Y-139321553D02*
X252162851Y-139212600D01*
%TO.C,D78*%
X101199691Y-157948753D02*
X101562214Y-158117801D01*
X101562214Y-158117801D02*
X101794654Y-157619331D01*
X101562214Y-158117801D02*
X101329774Y-158616270D01*
X101562214Y-158117801D02*
X102275046Y-158008848D01*
X102275046Y-158008848D02*
X101936952Y-158733895D01*
X102105999Y-158371372D02*
X102559153Y-158582681D01*
X101936952Y-158733895D02*
X101562214Y-158117801D01*
%TO.C,D49*%
X225766566Y-126143696D02*
X226129089Y-125974648D01*
X226129089Y-125974648D02*
X225896649Y-125476179D01*
X226129089Y-125974648D02*
X226361529Y-126473118D01*
X226129089Y-125974648D02*
X226503827Y-125358554D01*
X226503827Y-125358554D02*
X226841921Y-126083601D01*
X226672874Y-125721077D02*
X227126028Y-125509768D01*
X226841921Y-126083601D02*
X226129089Y-125974648D01*
%TO.C,D33*%
X204804214Y-123781435D02*
X205166737Y-123612387D01*
X205166737Y-123612387D02*
X204934297Y-123113918D01*
X205166737Y-123612387D02*
X205399177Y-124110857D01*
X205166737Y-123612387D02*
X205541475Y-122996293D01*
X205541475Y-122996293D02*
X205879569Y-123721340D01*
X205710522Y-123358816D02*
X206163676Y-123147507D01*
X205879569Y-123721340D02*
X205166737Y-123612387D01*
%TO.C,D70*%
X100339822Y-110102536D02*
X100702345Y-110271584D01*
X100702345Y-110271584D02*
X100934785Y-109773114D01*
X100702345Y-110271584D02*
X100469905Y-110770053D01*
X100702345Y-110271584D02*
X101415177Y-110162631D01*
X101415177Y-110162631D02*
X101077083Y-110887678D01*
X101246130Y-110525155D02*
X101699284Y-110736464D01*
X101077083Y-110887678D02*
X100702345Y-110271584D01*
%TO.C,D37*%
X182574026Y-118700259D02*
X182936549Y-118531211D01*
X182936549Y-118531211D02*
X182704109Y-118032742D01*
X182936549Y-118531211D02*
X183168989Y-119029681D01*
X182936549Y-118531211D02*
X183311287Y-117915117D01*
X183311287Y-117915117D02*
X183649381Y-118640164D01*
X183480334Y-118277640D02*
X183933488Y-118066331D01*
X183649381Y-118640164D02*
X182936549Y-118531211D01*
%TO.C,D61*%
X53343724Y-125702746D02*
X53706247Y-125871794D01*
X53706247Y-125871794D02*
X53938687Y-125373324D01*
X53706247Y-125871794D02*
X53473807Y-126370263D01*
X53706247Y-125871794D02*
X54419079Y-125762841D01*
X54419079Y-125762841D02*
X54080985Y-126487888D01*
X54250032Y-126125365D02*
X54703186Y-126336674D01*
X54080985Y-126487888D02*
X53706247Y-125871794D01*
%TO.C,D28*%
X232951072Y-141550937D02*
X233313595Y-141381889D01*
X233313595Y-141381889D02*
X233081155Y-140883420D01*
X233313595Y-141381889D02*
X233546035Y-141880359D01*
X233313595Y-141381889D02*
X233688333Y-140765795D01*
X233688333Y-140765795D02*
X234026427Y-141490842D01*
X233857380Y-141128318D02*
X234310534Y-140917009D01*
X234026427Y-141490842D02*
X233313595Y-141381889D01*
%TO.C,D65*%
X74306057Y-123340489D02*
X74668580Y-123509537D01*
X74668580Y-123509537D02*
X74901020Y-123011067D01*
X74668580Y-123509537D02*
X74436140Y-124008006D01*
X74668580Y-123509537D02*
X75381412Y-123400584D01*
X75381412Y-123400584D02*
X75043318Y-124125631D01*
X75212365Y-123763108D02*
X75665519Y-123974417D01*
X75043318Y-124125631D02*
X74668580Y-123509537D01*
%TO.C,D16*%
X129163339Y-133473565D02*
X129525862Y-133642613D01*
X129525862Y-133642613D02*
X129758302Y-133144143D01*
X129525862Y-133642613D02*
X129293422Y-134141082D01*
X129525862Y-133642613D02*
X130238694Y-133533660D01*
X130238694Y-133533660D02*
X129900600Y-134258707D01*
X130069647Y-133896184D02*
X130522801Y-134107493D01*
X129900600Y-134258707D02*
X129525862Y-133642613D01*
%TO.C,D67*%
X88675082Y-92526023D02*
X89037605Y-92695071D01*
X89037605Y-92695071D02*
X89270045Y-92196601D01*
X89037605Y-92695071D02*
X88805165Y-93193540D01*
X89037605Y-92695071D02*
X89750437Y-92586118D01*
X89750437Y-92586118D02*
X89412343Y-93311165D01*
X89581390Y-92948642D02*
X90034544Y-93159951D01*
X89412343Y-93311165D02*
X89037605Y-92695071D01*
%TO.C,D62*%
X60528235Y-110295503D02*
X60890758Y-110464551D01*
X60890758Y-110464551D02*
X61123198Y-109966081D01*
X60890758Y-110464551D02*
X60658318Y-110963020D01*
X60890758Y-110464551D02*
X61603590Y-110355598D01*
X61603590Y-110355598D02*
X61265496Y-111080645D01*
X61434543Y-110718122D02*
X61887697Y-110929431D01*
X61265496Y-111080645D02*
X60890758Y-110464551D01*
%TO.C,D13*%
X114117655Y-123147516D02*
X114480178Y-123316564D01*
X114480178Y-123316564D02*
X114712618Y-122818094D01*
X114480178Y-123316564D02*
X114247738Y-123815033D01*
X114480178Y-123316564D02*
X115193010Y-123207611D01*
X115193010Y-123207611D02*
X114854916Y-123932658D01*
X115023963Y-123570135D02*
X115477117Y-123781444D01*
X114854916Y-123932658D02*
X114480178Y-123316564D01*
%TO.C,D55*%
X196943047Y-149514725D02*
X197305570Y-149345677D01*
X197305570Y-149345677D02*
X197073130Y-148847208D01*
X197305570Y-149345677D02*
X197538010Y-149844147D01*
X197305570Y-149345677D02*
X197680308Y-148729583D01*
X197680308Y-148729583D02*
X198018402Y-149454630D01*
X197849355Y-149092106D02*
X198302509Y-148880797D01*
X198018402Y-149454630D02*
X197305570Y-149345677D01*
%TO.C,D79*%
X117126655Y-167863196D02*
X117433072Y-168120311D01*
X117433072Y-168120311D02*
X117786606Y-167698987D01*
X117433072Y-168120311D02*
X117079539Y-168541636D01*
X117433072Y-168120311D02*
X118149814Y-168199566D01*
X118149814Y-168199566D02*
X117635584Y-168812402D01*
X117892699Y-168505984D02*
X118275721Y-168827378D01*
X117635584Y-168812402D02*
X117433072Y-168120311D01*
%TO.C,D77*%
X136347845Y-118066328D02*
X136710368Y-118235376D01*
X136710368Y-118235376D02*
X136942808Y-117736906D01*
X136710368Y-118235376D02*
X136477928Y-118733845D01*
X136710368Y-118235376D02*
X137423200Y-118126423D01*
X137423200Y-118126423D02*
X137085106Y-118851470D01*
X137254153Y-118488947D02*
X137707307Y-118700256D01*
X137085106Y-118851470D02*
X136710368Y-118235376D01*
%TO.C,D19*%
X117126655Y-167863196D02*
X117433072Y-168120311D01*
X117433072Y-168120311D02*
X117786606Y-167698987D01*
X117433072Y-168120311D02*
X117079539Y-168541636D01*
X117433072Y-168120311D02*
X118149814Y-168199566D01*
X118149814Y-168199566D02*
X117635584Y-168812402D01*
X117892699Y-168505984D02*
X118275721Y-168827378D01*
X117635584Y-168812402D02*
X117433072Y-168120311D01*
%TO.C,D60*%
X189476098Y-182790753D02*
X189705528Y-182463092D01*
X189705528Y-182463092D02*
X189254995Y-182147625D01*
X189705528Y-182463092D02*
X190156062Y-182778559D01*
X189705528Y-182463092D02*
X189722013Y-181742170D01*
X189722013Y-181742170D02*
X190377335Y-182201032D01*
X190049674Y-181971601D02*
X190336462Y-181562025D01*
X190377335Y-182201032D02*
X189705528Y-182463092D01*
%TO.C,D25*%
X244615815Y-123974416D02*
X244978338Y-123805368D01*
X244978338Y-123805368D02*
X244745898Y-123306899D01*
X244978338Y-123805368D02*
X245210778Y-124303838D01*
X244978338Y-123805368D02*
X245353076Y-123189274D01*
X245353076Y-123189274D02*
X245691170Y-123914321D01*
X245522123Y-123551797D02*
X245975277Y-123340488D01*
X245691170Y-123914321D02*
X244978338Y-123805368D01*
%TO.C,D3*%
X67712744Y-94888278D02*
X68075267Y-95057326D01*
X68075267Y-95057326D02*
X68307707Y-94558856D01*
X68075267Y-95057326D02*
X67842827Y-95555795D01*
X68075267Y-95057326D02*
X68788099Y-94948373D01*
X68788099Y-94948373D02*
X68450005Y-95673420D01*
X68619052Y-95310897D02*
X69072206Y-95522206D01*
X68450005Y-95673420D02*
X68075267Y-95057326D01*
%TO.C,D54*%
X197619715Y-108374203D02*
X197982238Y-108205155D01*
X197982238Y-108205155D02*
X197749798Y-107706686D01*
X197982238Y-108205155D02*
X198214678Y-108703625D01*
X197982238Y-108205155D02*
X198356976Y-107589061D01*
X198356976Y-107589061D02*
X198695070Y-108314108D01*
X198526023Y-107951584D02*
X198979177Y-107740275D01*
X198695070Y-108314108D02*
X197982238Y-108205155D01*
%TO.C,D12*%
X106933140Y-138554743D02*
X107295663Y-138723791D01*
X107295663Y-138723791D02*
X107528103Y-138225321D01*
X107295663Y-138723791D02*
X107063223Y-139222260D01*
X107295663Y-138723791D02*
X108008495Y-138614838D01*
X108008495Y-138614838D02*
X107670401Y-139339885D01*
X107839448Y-138977362D02*
X108292602Y-139188671D01*
X107670401Y-139339885D02*
X107295663Y-138723791D01*
%TO.C,D56*%
X189758537Y-134107498D02*
X190121060Y-133938450D01*
X190121060Y-133938450D02*
X189888620Y-133439981D01*
X190121060Y-133938450D02*
X190353500Y-134436920D01*
X190121060Y-133938450D02*
X190495798Y-133322356D01*
X190495798Y-133322356D02*
X190833892Y-134047403D01*
X190664845Y-133684879D02*
X191117999Y-133473570D01*
X190833892Y-134047403D02*
X190121060Y-133938450D01*
%TO.C,D66*%
X81490569Y-107933256D02*
X81853092Y-108102304D01*
X81853092Y-108102304D02*
X82085532Y-107603834D01*
X81853092Y-108102304D02*
X81620652Y-108600773D01*
X81853092Y-108102304D02*
X82565924Y-107993351D01*
X82565924Y-107993351D02*
X82227830Y-108718398D01*
X82396877Y-108355875D02*
X82850031Y-108567184D01*
X82227830Y-108718398D02*
X81853092Y-108102304D01*
%TO.C,D34*%
X197619715Y-108374203D02*
X197982238Y-108205155D01*
X197982238Y-108205155D02*
X197749798Y-107706686D01*
X197982238Y-108205155D02*
X198214678Y-108703625D01*
X197982238Y-108205155D02*
X198356976Y-107589061D01*
X198356976Y-107589061D02*
X198695070Y-108314108D01*
X198526023Y-107951584D02*
X198979177Y-107740275D01*
X198695070Y-108314108D02*
X197982238Y-108205155D01*
%TO.C,D48*%
X232951072Y-141550937D02*
X233313595Y-141381889D01*
X233313595Y-141381889D02*
X233081155Y-140883420D01*
X233313595Y-141381889D02*
X233546035Y-141880359D01*
X233313595Y-141381889D02*
X233688333Y-140765795D01*
X233688333Y-140765795D02*
X234026427Y-141490842D01*
X233857380Y-141128318D02*
X234310534Y-140917009D01*
X234026427Y-141490842D02*
X233313595Y-141381889D01*
%TO.C,D8*%
X85970796Y-140917006D02*
X86333319Y-141086054D01*
X86333319Y-141086054D02*
X86565759Y-140587584D01*
X86333319Y-141086054D02*
X86100879Y-141584523D01*
X86333319Y-141086054D02*
X87046151Y-140977101D01*
X87046151Y-140977101D02*
X86708057Y-141702148D01*
X86877104Y-141339625D02*
X87330258Y-141550934D01*
X86708057Y-141702148D02*
X86333319Y-141086054D01*
%TO.C,D59*%
X202005604Y-168827379D02*
X202312021Y-168570264D01*
X202312021Y-168570264D02*
X201958488Y-168148939D01*
X202312021Y-168570264D02*
X202665555Y-168991588D01*
X202312021Y-168570264D02*
X202514533Y-167878173D01*
X202514533Y-167878173D02*
X203028763Y-168491009D01*
X202771648Y-168184591D02*
X203154670Y-167863197D01*
X203028763Y-168491009D02*
X202312021Y-168570264D01*
%TD*%
D11*
%TO.C,MCU1*%
X152520659Y-113881757D03*
D12*
X152520659Y-116421757D03*
X152520659Y-118961757D03*
X152520659Y-121501757D03*
X152520659Y-124041757D03*
X152520659Y-126581757D03*
X152520659Y-129121757D03*
X152520659Y-131661757D03*
X152520659Y-134201757D03*
X152520659Y-136741757D03*
X152520659Y-139281757D03*
X152520659Y-141821757D03*
X167760659Y-113881757D03*
X167760659Y-116421757D03*
X167760659Y-118961757D03*
X167760659Y-121501757D03*
X167760659Y-124041757D03*
X167760659Y-126581757D03*
X167760659Y-129121757D03*
X167760659Y-131661757D03*
X167760659Y-134201757D03*
X167760659Y-136741757D03*
X167760659Y-139281757D03*
X167760659Y-141821757D03*
%TD*%
M02*
