%TF.GenerationSoftware,KiCad,Pcbnew,7.0.10*%
%TF.CreationDate,2024-01-18T08:47:23+01:00*%
%TF.ProjectId,turbo_go_2,74757262-6f5f-4676-9f5f-322e6b696361,v1.0.0*%
%TF.SameCoordinates,Original*%
%TF.FileFunction,Paste,Bot*%
%TF.FilePolarity,Positive*%
%FSLAX46Y46*%
G04 Gerber Fmt 4.6, Leading zero omitted, Abs format (unit mm)*
G04 Created by KiCad (PCBNEW 7.0.10) date 2024-01-18 08:47:23*
%MOMM*%
%LPD*%
G01*
G04 APERTURE LIST*
G04 Aperture macros list*
%AMRotRect*
0 Rectangle, with rotation*
0 The origin of the aperture is its center*
0 $1 length*
0 $2 width*
0 $3 Rotation angle, in degrees counterclockwise*
0 Add horizontal line*
21,1,$1,$2,0,0,$3*%
G04 Aperture macros list end*
%ADD10RotRect,2.600000X2.600000X25.000000*%
%ADD11RotRect,0.900000X1.200000X335.000000*%
%ADD12RotRect,2.600000X2.600000X335.000000*%
%ADD13RotRect,0.900000X1.200000X25.000000*%
%ADD14R,0.900000X1.700000*%
%ADD15RotRect,2.600000X2.600000X40.000000*%
%ADD16RotRect,0.900000X1.200000X305.000000*%
%ADD17RotRect,2.600000X2.600000X305.000000*%
%ADD18RotRect,2.600000X2.600000X55.000000*%
%ADD19RotRect,2.600000X2.600000X320.000000*%
%ADD20RotRect,0.900000X1.200000X320.000000*%
%ADD21RotRect,0.900000X1.200000X55.000000*%
%ADD22R,1.000000X0.800000*%
%ADD23R,0.700000X1.500000*%
%ADD24RotRect,0.900000X1.200000X40.000000*%
G04 APERTURE END LIST*
D10*
%TO.C,S44*%
X244884235Y-130524696D03*
X256281850Y-127637333D03*
%TD*%
D11*
%TO.C,D9*%
X92339628Y-125129413D03*
X95330444Y-126524053D03*
%TD*%
D12*
%TO.C,S10*%
X102679062Y-99111354D03*
X112217156Y-105986472D03*
%TD*%
D13*
%TO.C,D23*%
X250393460Y-95902560D03*
X253384276Y-94507920D03*
%TD*%
D12*
%TO.C,S5*%
X76645297Y-112349301D03*
X86183391Y-119224419D03*
%TD*%
%TO.C,S4*%
X69460793Y-127756541D03*
X78998887Y-134631659D03*
%TD*%
D10*
%TO.C,S23*%
X244293036Y-86665250D03*
X255690651Y-83777887D03*
%TD*%
%TO.C,S56*%
X182842442Y-125250534D03*
X194240057Y-122363171D03*
%TD*%
D13*
%TO.C,D51*%
X210581864Y-95709587D03*
X213572680Y-94314947D03*
%TD*%
%TO.C,D46*%
X236615631Y-108947538D03*
X239606447Y-107552898D03*
%TD*%
D12*
%TO.C,S6*%
X83829816Y-96942070D03*
X93367910Y-103817188D03*
%TD*%
D13*
%TO.C,D47*%
X229431112Y-93540302D03*
X232421928Y-92145662D03*
%TD*%
D12*
%TO.C,S73*%
X116456895Y-112156329D03*
X125994989Y-119031447D03*
%TD*%
D13*
%TO.C,D41*%
X264762477Y-126717034D03*
X267753293Y-125322394D03*
%TD*%
D10*
%TO.C,S27*%
X223330694Y-84302991D03*
X234728309Y-81415628D03*
%TD*%
D13*
%TO.C,D32*%
X211173050Y-139569028D03*
X214163866Y-138174388D03*
%TD*%
D10*
%TO.C,S53*%
X197888131Y-114924474D03*
X209285746Y-112037111D03*
%TD*%
D11*
%TO.C,D14*%
X120486478Y-107359918D03*
X123477294Y-108754558D03*
%TD*%
D14*
%TO.C,*%
X148640664Y-138551757D03*
X148640664Y-135151757D03*
%TD*%
D10*
%TO.C,S55*%
X190026949Y-140657760D03*
X201424564Y-137770397D03*
%TD*%
D15*
%TO.C,S39*%
X193032816Y-162062235D03*
X203294762Y-156323336D03*
%TD*%
D16*
%TO.C,D20*%
X129428647Y-180824782D03*
X131321449Y-183527984D03*
%TD*%
D11*
%TO.C,D15*%
X121163145Y-148500442D03*
X124153961Y-149895082D03*
%TD*%
D12*
%TO.C,S18*%
X103538941Y-146957574D03*
X113077035Y-153832692D03*
%TD*%
D11*
%TO.C,D64*%
X66305872Y-138367366D03*
X69296688Y-139762006D03*
%TD*%
D10*
%TO.C,S46*%
X230515206Y-99710219D03*
X241912821Y-96822856D03*
%TD*%
D11*
%TO.C,D71*%
X106708654Y-94314939D03*
X109699470Y-95709579D03*
%TD*%
D12*
%TO.C,S74*%
X123641397Y-96749099D03*
X133179491Y-103624217D03*
%TD*%
D13*
%TO.C,D38*%
X216906499Y-158963037D03*
X219897315Y-157568397D03*
%TD*%
D12*
%TO.C,S72*%
X109272380Y-127563560D03*
X118810474Y-134438678D03*
%TD*%
D13*
%TO.C,D22*%
X257577970Y-111309798D03*
X260568786Y-109915158D03*
%TD*%
%TO.C,D50*%
X217766381Y-111116824D03*
X220757197Y-109722184D03*
%TD*%
D17*
%TO.C,S80*%
X137466307Y-173213005D03*
X142288980Y-183936080D03*
%TD*%
D13*
%TO.C,D44*%
X250984651Y-139762004D03*
X253975467Y-138367364D03*
%TD*%
D10*
%TO.C,S48*%
X226034979Y-132693967D03*
X237432594Y-129806604D03*
%TD*%
D11*
%TO.C,D78*%
X100384014Y-157568397D03*
X103374830Y-158963037D03*
%TD*%
D12*
%TO.C,S67*%
X91014309Y-81534842D03*
X100552403Y-88409960D03*
%TD*%
%TO.C,S3*%
X70051968Y-83897098D03*
X79590062Y-90772216D03*
%TD*%
D10*
%TO.C,S31*%
X204481446Y-86472272D03*
X215879061Y-83584909D03*
%TD*%
D13*
%TO.C,D49*%
X224950889Y-126524052D03*
X227941705Y-125129412D03*
%TD*%
D10*
%TO.C,S58*%
X210806079Y-149725728D03*
X222203694Y-146838365D03*
%TD*%
%TO.C,S45*%
X237699713Y-115117454D03*
X249097328Y-112230091D03*
%TD*%
D13*
%TO.C,D33*%
X203988537Y-124161791D03*
X206979353Y-122767151D03*
%TD*%
D10*
%TO.C,S32*%
X205072638Y-130331707D03*
X216470253Y-127444344D03*
%TD*%
D18*
%TO.C,S60*%
X179058106Y-178578450D03*
X187485048Y-170379112D03*
%TD*%
D11*
%TO.C,D70*%
X99524145Y-109722180D03*
X102514961Y-111116820D03*
%TD*%
D10*
%TO.C,S57*%
X175657934Y-109843303D03*
X187055549Y-106955940D03*
%TD*%
D12*
%TO.C,S71*%
X109863563Y-83704120D03*
X119401657Y-90579238D03*
%TD*%
D13*
%TO.C,D37*%
X181758349Y-119080615D03*
X184749165Y-117685975D03*
%TD*%
D11*
%TO.C,D61*%
X52528047Y-125322390D03*
X55518863Y-126717030D03*
%TD*%
D13*
%TO.C,D28*%
X232135395Y-141931293D03*
X235126211Y-140536653D03*
%TD*%
D12*
%TO.C,S2*%
X62867470Y-99304328D03*
X72405564Y-106179446D03*
%TD*%
D11*
%TO.C,D65*%
X73490380Y-122960133D03*
X76481196Y-124354773D03*
%TD*%
D12*
%TO.C,S8*%
X88310042Y-129925818D03*
X97848136Y-136800936D03*
%TD*%
D10*
%TO.C,S34*%
X190703619Y-99517239D03*
X202101234Y-96629876D03*
%TD*%
D11*
%TO.C,D16*%
X128347662Y-133093209D03*
X131338478Y-134487849D03*
%TD*%
%TO.C,D67*%
X87859405Y-92145667D03*
X90850221Y-93540307D03*
%TD*%
D12*
%TO.C,S68*%
X88310042Y-129925818D03*
X97848136Y-136800936D03*
%TD*%
D11*
%TO.C,D62*%
X59712558Y-109915147D03*
X62703374Y-111309787D03*
%TD*%
D12*
%TO.C,S15*%
X124318064Y-137889613D03*
X133856158Y-144764731D03*
%TD*%
%TO.C,S77*%
X138687089Y-107075154D03*
X148225183Y-113950272D03*
%TD*%
D10*
%TO.C,S41*%
X258662063Y-117479719D03*
X270059678Y-114592356D03*
%TD*%
D11*
%TO.C,D13*%
X113301978Y-122767160D03*
X116292794Y-124161800D03*
%TD*%
D12*
%TO.C,S9*%
X95494546Y-114518589D03*
X105032640Y-121393707D03*
%TD*%
D10*
%TO.C,S42*%
X251477542Y-102072476D03*
X262875157Y-99185113D03*
%TD*%
D19*
%TO.C,S19*%
X122230921Y-157851972D03*
X129664601Y-166961467D03*
%TD*%
D13*
%TO.C,D55*%
X196127370Y-149895081D03*
X199118186Y-148500441D03*
%TD*%
D20*
%TO.C,D79*%
X116437215Y-167284687D03*
X118965161Y-169405887D03*
%TD*%
D10*
%TO.C,S29*%
X218850464Y-117286731D03*
X230248079Y-114399368D03*
%TD*%
D11*
%TO.C,D77*%
X135532168Y-117685972D03*
X138522984Y-119080612D03*
%TD*%
D20*
%TO.C,D19*%
X116437215Y-167284687D03*
X118965161Y-169405887D03*
%TD*%
D21*
%TO.C,D60*%
X188959879Y-183527990D03*
X190852681Y-180824788D03*
%TD*%
D13*
%TO.C,D25*%
X243800138Y-124354772D03*
X246790954Y-122960132D03*
%TD*%
D11*
%TO.C,D3*%
X66897067Y-94507922D03*
X69887883Y-95902562D03*
%TD*%
D13*
%TO.C,D54*%
X196804038Y-108754559D03*
X199794854Y-107359919D03*
%TD*%
D10*
%TO.C,S52*%
X205072638Y-130331707D03*
X216470253Y-127444344D03*
%TD*%
D11*
%TO.C,D12*%
X106117463Y-138174387D03*
X109108279Y-139569027D03*
%TD*%
D13*
%TO.C,D56*%
X188942860Y-134487854D03*
X191933676Y-133093214D03*
%TD*%
D12*
%TO.C,S61*%
X55682963Y-114711558D03*
X65221057Y-121586676D03*
%TD*%
D10*
%TO.C,S30*%
X211665956Y-101879501D03*
X223063571Y-98992138D03*
%TD*%
D22*
%TO.C,*%
X156490670Y-179128508D03*
X156490670Y-181338508D03*
X163790670Y-179128508D03*
X163790670Y-181338508D03*
D23*
X162390670Y-178478508D03*
X159390670Y-178478508D03*
X157890670Y-178478508D03*
%TD*%
D12*
%TO.C,S16*%
X131502570Y-122482388D03*
X141040664Y-129357506D03*
%TD*%
D11*
%TO.C,D66*%
X80674892Y-107552900D03*
X83665708Y-108947540D03*
%TD*%
D13*
%TO.C,D34*%
X196804038Y-108754559D03*
X199794854Y-107359919D03*
%TD*%
%TO.C,D48*%
X232135395Y-141931293D03*
X235126211Y-140536653D03*
%TD*%
D11*
%TO.C,D8*%
X85155119Y-140536650D03*
X88145935Y-141931290D03*
%TD*%
D24*
%TO.C,D59*%
X201316164Y-169405888D03*
X203844110Y-167284688D03*
%TD*%
M02*
