%TF.GenerationSoftware,KiCad,Pcbnew,7.0.10*%
%TF.CreationDate,2024-01-18T08:47:23+01:00*%
%TF.ProjectId,turbo_go_2,74757262-6f5f-4676-9f5f-322e6b696361,v1.0.0*%
%TF.SameCoordinates,Original*%
%TF.FileFunction,Copper,L2,Bot*%
%TF.FilePolarity,Positive*%
%FSLAX46Y46*%
G04 Gerber Fmt 4.6, Leading zero omitted, Abs format (unit mm)*
G04 Created by KiCad (PCBNEW 7.0.10) date 2024-01-18 08:47:23*
%MOMM*%
%LPD*%
G01*
G04 APERTURE LIST*
G04 Aperture macros list*
%AMRotRect*
0 Rectangle, with rotation*
0 The origin of the aperture is its center*
0 $1 length*
0 $2 width*
0 $3 Rotation angle, in degrees counterclockwise*
0 Add horizontal line*
21,1,$1,$2,0,0,$3*%
G04 Aperture macros list end*
%TA.AperFunction,ComponentPad*%
%ADD10C,0.700000*%
%TD*%
%TA.AperFunction,ComponentPad*%
%ADD11C,4.400000*%
%TD*%
%TA.AperFunction,SMDPad,CuDef*%
%ADD12RotRect,2.600000X2.600000X25.000000*%
%TD*%
%TA.AperFunction,ComponentPad*%
%ADD13RotRect,1.778000X1.778000X335.000000*%
%TD*%
%TA.AperFunction,SMDPad,CuDef*%
%ADD14RotRect,0.900000X1.200000X335.000000*%
%TD*%
%TA.AperFunction,ComponentPad*%
%ADD15C,1.905000*%
%TD*%
%TA.AperFunction,SMDPad,CuDef*%
%ADD16RotRect,2.600000X2.600000X335.000000*%
%TD*%
%TA.AperFunction,ComponentPad*%
%ADD17RotRect,1.778000X1.778000X25.000000*%
%TD*%
%TA.AperFunction,SMDPad,CuDef*%
%ADD18RotRect,0.900000X1.200000X25.000000*%
%TD*%
%TA.AperFunction,ComponentPad*%
%ADD19R,1.752600X1.752600*%
%TD*%
%TA.AperFunction,ComponentPad*%
%ADD20C,1.752600*%
%TD*%
%TA.AperFunction,SMDPad,CuDef*%
%ADD21R,0.900000X1.700000*%
%TD*%
%TA.AperFunction,SMDPad,CuDef*%
%ADD22RotRect,2.600000X2.600000X40.000000*%
%TD*%
%TA.AperFunction,ComponentPad*%
%ADD23RotRect,1.778000X1.778000X305.000000*%
%TD*%
%TA.AperFunction,SMDPad,CuDef*%
%ADD24RotRect,0.900000X1.200000X305.000000*%
%TD*%
%TA.AperFunction,ComponentPad*%
%ADD25O,1.700000X1.700000*%
%TD*%
%TA.AperFunction,ComponentPad*%
%ADD26C,1.700000*%
%TD*%
%TA.AperFunction,SMDPad,CuDef*%
%ADD27RotRect,2.600000X2.600000X305.000000*%
%TD*%
%TA.AperFunction,SMDPad,CuDef*%
%ADD28RotRect,2.600000X2.600000X55.000000*%
%TD*%
%TA.AperFunction,ComponentPad*%
%ADD29R,1.200000X1.700000*%
%TD*%
%TA.AperFunction,ComponentPad*%
%ADD30O,1.200000X1.700000*%
%TD*%
%TA.AperFunction,SMDPad,CuDef*%
%ADD31RotRect,2.600000X2.600000X320.000000*%
%TD*%
%TA.AperFunction,ComponentPad*%
%ADD32RotRect,1.778000X1.778000X320.000000*%
%TD*%
%TA.AperFunction,SMDPad,CuDef*%
%ADD33RotRect,0.900000X1.200000X320.000000*%
%TD*%
%TA.AperFunction,ComponentPad*%
%ADD34RotRect,1.778000X1.778000X55.000000*%
%TD*%
%TA.AperFunction,SMDPad,CuDef*%
%ADD35RotRect,0.900000X1.200000X55.000000*%
%TD*%
%TA.AperFunction,SMDPad,CuDef*%
%ADD36R,1.000000X0.800000*%
%TD*%
%TA.AperFunction,SMDPad,CuDef*%
%ADD37R,0.700000X1.500000*%
%TD*%
%TA.AperFunction,ComponentPad*%
%ADD38RotRect,1.778000X1.778000X40.000000*%
%TD*%
%TA.AperFunction,SMDPad,CuDef*%
%ADD39RotRect,0.900000X1.200000X40.000000*%
%TD*%
%TA.AperFunction,ViaPad*%
%ADD40C,0.800000*%
%TD*%
%TA.AperFunction,Conductor*%
%ADD41C,0.250000*%
%TD*%
%TA.AperFunction,Conductor*%
%ADD42C,0.200000*%
%TD*%
G04 APERTURE END LIST*
D10*
%TO.P,_5,1*%
%TO.N,N/C*%
X142209773Y-124661613D03*
X143140848Y-123808440D03*
X142154688Y-125923266D03*
X144402501Y-123863525D03*
D11*
X143705181Y-125358933D03*
D10*
X143007861Y-126854341D03*
X145255674Y-124794600D03*
X144269514Y-126909426D03*
X145200589Y-126056253D03*
%TD*%
D12*
%TO.P,S44,1*%
%TO.N,P10*%
X244884235Y-130524696D03*
%TO.P,S44,2*%
%TO.N,mirror_ring_mod*%
X256281850Y-127637333D03*
%TD*%
D13*
%TO.P,D9,1*%
%TO.N,P18*%
X90382003Y-124216557D03*
D14*
X92339628Y-125129413D03*
%TO.P,D9,2*%
%TO.N,middle_bottom*%
X95330444Y-126524053D03*
D15*
X97288069Y-127436909D03*
%TD*%
D10*
%TO.P,_4,1*%
%TO.N,N/C*%
X99017231Y-132105052D03*
X99948306Y-131251879D03*
X98962146Y-133366705D03*
X101209959Y-131306964D03*
D11*
X100512639Y-132802372D03*
D10*
X99815319Y-134297780D03*
X102063132Y-132238039D03*
X101076972Y-134352865D03*
X102008047Y-133499692D03*
%TD*%
D16*
%TO.P,S10,1*%
%TO.N,P16*%
X102679062Y-99111354D03*
%TO.P,S10,2*%
%TO.N,middle_home*%
X112217156Y-105986472D03*
%TD*%
D17*
%TO.P,D23,1*%
%TO.N,P4*%
X248435835Y-96815416D03*
D18*
X250393460Y-95902560D03*
%TO.P,D23,2*%
%TO.N,mirror_pinky_top*%
X253384276Y-94507920D03*
D15*
X255341901Y-93595064D03*
%TD*%
D16*
%TO.P,S5,1*%
%TO.N,P9*%
X76645297Y-112349301D03*
%TO.P,S5,2*%
%TO.N,ring_bottom*%
X86183391Y-119224419D03*
%TD*%
%TO.P,S4,1*%
%TO.N,P10*%
X69460793Y-127756541D03*
%TO.P,S4,2*%
%TO.N,ring_mod*%
X78998887Y-134631659D03*
%TD*%
D12*
%TO.P,S23,1*%
%TO.N,P10*%
X244293036Y-86665250D03*
%TO.P,S23,2*%
%TO.N,mirror_pinky_top*%
X255690651Y-83777887D03*
%TD*%
%TO.P,S56,1*%
%TO.N,P14*%
X182842442Y-125250534D03*
%TO.P,S56,2*%
%TO.N,mirror_inner_home*%
X194240057Y-122363171D03*
%TD*%
D10*
%TO.P,_2,1*%
%TO.N,N/C*%
X66390154Y-116890794D03*
X67321229Y-116037621D03*
X66335069Y-118152447D03*
X68582882Y-116092706D03*
D11*
X67885562Y-117588114D03*
D10*
X67188242Y-119083522D03*
X69436055Y-117023781D03*
X68449895Y-119138607D03*
X69380970Y-118285434D03*
%TD*%
D17*
%TO.P,D51,1*%
%TO.N,P4*%
X208624239Y-96622443D03*
D18*
X210581864Y-95709587D03*
%TO.P,D51,2*%
%TO.N,mirror_middle_top*%
X213572680Y-94314947D03*
D15*
X215530305Y-93402091D03*
%TD*%
D17*
%TO.P,D46,1*%
%TO.N,P5*%
X234658006Y-109860394D03*
D18*
X236615631Y-108947538D03*
%TO.P,D46,2*%
%TO.N,mirror_ring_home*%
X239606447Y-107552898D03*
D15*
X241564072Y-106640042D03*
%TD*%
D16*
%TO.P,S6,1*%
%TO.N,P9*%
X83829816Y-96942070D03*
%TO.P,S6,2*%
%TO.N,ring_home*%
X93367910Y-103817188D03*
%TD*%
D17*
%TO.P,D47,1*%
%TO.N,P4*%
X227473487Y-94453158D03*
D18*
X229431112Y-93540302D03*
%TO.P,D47,2*%
%TO.N,mirror_ring_top*%
X232421928Y-92145662D03*
D15*
X234379553Y-91232806D03*
%TD*%
D16*
%TO.P,S73,1*%
%TO.N,P8*%
X116456895Y-112156329D03*
%TO.P,S73,2*%
%TO.N,index_home*%
X125994989Y-119031447D03*
%TD*%
D17*
%TO.P,D41,1*%
%TO.N,P6*%
X262804852Y-127629890D03*
D18*
X264762477Y-126717034D03*
%TO.P,D41,2*%
%TO.N,mirror_pinky_bottom*%
X267753293Y-125322394D03*
D15*
X269710918Y-124409538D03*
%TD*%
D10*
%TO.P,_12,1*%
%TO.N,N/C*%
X189449768Y-156870728D03*
X189394683Y-155609075D03*
X190380843Y-157723901D03*
X190247856Y-154678000D03*
D11*
X190945176Y-156173408D03*
D10*
X191642496Y-157668816D03*
X191509509Y-154622915D03*
X192495669Y-156737741D03*
X192440584Y-155476088D03*
%TD*%
D12*
%TO.P,S27,1*%
%TO.N,P9*%
X223330694Y-84302991D03*
%TO.P,S27,2*%
%TO.N,mirror_ring_top*%
X234728309Y-81415628D03*
%TD*%
D10*
%TO.P,_6,1*%
%TO.N,N/C*%
X127840751Y-155476085D03*
X128771826Y-154622912D03*
X127785666Y-156737738D03*
X130033479Y-154677997D03*
D11*
X129336159Y-156173405D03*
D10*
X128638839Y-157668813D03*
X130886652Y-155609072D03*
X129900492Y-157723898D03*
X130831567Y-156870725D03*
%TD*%
D17*
%TO.P,D32,1*%
%TO.N,P6*%
X209215425Y-140481884D03*
D18*
X211173050Y-139569028D03*
%TO.P,D32,2*%
%TO.N,mirror_index_bottom*%
X214163866Y-138174388D03*
D15*
X216121491Y-137261532D03*
%TD*%
D10*
%TO.P,_3,1*%
%TO.N,N/C*%
X113386250Y-101290589D03*
X114317325Y-100437416D03*
X113331165Y-102552242D03*
X115578978Y-100492501D03*
D11*
X114881658Y-101987909D03*
D10*
X114184338Y-103483317D03*
X116432151Y-101423576D03*
X115445991Y-103538402D03*
X116377066Y-102685229D03*
%TD*%
D12*
%TO.P,S53,1*%
%TO.N,P8*%
X197888131Y-114924474D03*
%TO.P,S53,2*%
%TO.N,mirror_index_home*%
X209285746Y-112037111D03*
%TD*%
D19*
%TO.P,MCU1,1*%
%TO.N,RAW*%
X152520659Y-113881757D03*
D20*
%TO.P,MCU1,2*%
%TO.N,GND*%
X152520659Y-116421757D03*
%TO.P,MCU1,3*%
%TO.N,RST*%
X152520659Y-118961757D03*
%TO.P,MCU1,4*%
%TO.N,VCC*%
X152520659Y-121501757D03*
%TO.P,MCU1,5*%
%TO.N,P21*%
X152520659Y-124041757D03*
%TO.P,MCU1,6*%
%TO.N,P20*%
X152520659Y-126581757D03*
%TO.P,MCU1,7*%
%TO.N,P19*%
X152520659Y-129121757D03*
%TO.P,MCU1,8*%
%TO.N,P18*%
X152520659Y-131661757D03*
%TO.P,MCU1,9*%
%TO.N,P15*%
X152520659Y-134201757D03*
%TO.P,MCU1,10*%
%TO.N,P14*%
X152520659Y-136741757D03*
%TO.P,MCU1,11*%
%TO.N,P16*%
X152520659Y-139281757D03*
%TO.P,MCU1,12*%
%TO.N,P10*%
X152520659Y-141821757D03*
%TO.P,MCU1,13*%
%TO.N,P1*%
X167760659Y-113881757D03*
%TO.P,MCU1,14*%
%TO.N,P0*%
X167760659Y-116421757D03*
%TO.P,MCU1,15*%
%TO.N,GND*%
X167760659Y-118961757D03*
%TO.P,MCU1,16*%
X167760659Y-121501757D03*
%TO.P,MCU1,17*%
%TO.N,P2*%
X167760659Y-124041757D03*
%TO.P,MCU1,18*%
%TO.N,P3*%
X167760659Y-126581757D03*
%TO.P,MCU1,19*%
%TO.N,P4*%
X167760659Y-129121757D03*
%TO.P,MCU1,20*%
%TO.N,P5*%
X167760659Y-131661757D03*
%TO.P,MCU1,21*%
%TO.N,P6*%
X167760659Y-134201757D03*
%TO.P,MCU1,22*%
%TO.N,P7*%
X167760659Y-136741757D03*
%TO.P,MCU1,23*%
%TO.N,P8*%
X167760659Y-139281757D03*
%TO.P,MCU1,24*%
%TO.N,P9*%
X167760659Y-141821757D03*
%TD*%
D13*
%TO.P,D14,1*%
%TO.N,P20*%
X118528853Y-106447062D03*
D14*
X120486478Y-107359918D03*
%TO.P,D14,2*%
%TO.N,index_top*%
X123477294Y-108754558D03*
D15*
X125434919Y-109667414D03*
%TD*%
D21*
%TO.P,,1*%
%TO.N,RST*%
X148640664Y-138551757D03*
%TO.P,,2*%
%TO.N,GND*%
X148640664Y-135151757D03*
%TD*%
D12*
%TO.P,S55,1*%
%TO.N,P14*%
X190026949Y-140657760D03*
%TO.P,S55,2*%
%TO.N,mirror_inner_bottom*%
X201424564Y-137770397D03*
%TD*%
D22*
%TO.P,S39,1*%
%TO.N,P8*%
X193032816Y-162062235D03*
%TO.P,S39,2*%
%TO.N,mirror_home_cluster*%
X203294762Y-156323336D03*
%TD*%
D23*
%TO.P,D20,1*%
%TO.N,P15*%
X128189722Y-179055414D03*
D24*
X129428647Y-180824782D03*
%TO.P,D20,2*%
%TO.N,far_cluster*%
X131321449Y-183527984D03*
D15*
X132560374Y-185297352D03*
%TD*%
D13*
%TO.P,D15,1*%
%TO.N,P18*%
X119205520Y-147587586D03*
D14*
X121163145Y-148500442D03*
%TO.P,D15,2*%
%TO.N,inner_bottom*%
X124153961Y-149895082D03*
D15*
X126111586Y-150807938D03*
%TD*%
D16*
%TO.P,S18,1*%
%TO.N,P16*%
X103538941Y-146957574D03*
%TO.P,S18,2*%
%TO.N,near_cluster*%
X113077035Y-153832692D03*
%TD*%
D13*
%TO.P,D64,1*%
%TO.N,P15*%
X64348247Y-137454510D03*
D14*
X66305872Y-138367366D03*
%TO.P,D64,2*%
%TO.N,ring_mod*%
X69296688Y-139762006D03*
D15*
X71254313Y-140674862D03*
%TD*%
D12*
%TO.P,S46,1*%
%TO.N,P9*%
X230515206Y-99710219D03*
%TO.P,S46,2*%
%TO.N,mirror_ring_home*%
X241912821Y-96822856D03*
%TD*%
D10*
%TO.P,_10,1*%
%TO.N,N/C*%
X218273287Y-133499694D03*
X218218202Y-132238041D03*
X219204362Y-134352867D03*
X219071375Y-131306966D03*
D11*
X219768695Y-132802374D03*
D10*
X220466015Y-134297782D03*
X220333028Y-131251881D03*
X221319188Y-133366707D03*
X221264103Y-132105054D03*
%TD*%
D13*
%TO.P,D71,1*%
%TO.N,P20*%
X104751029Y-93402083D03*
D14*
X106708654Y-94314939D03*
%TO.P,D71,2*%
%TO.N,middle_top*%
X109699470Y-95709579D03*
D15*
X111657095Y-96622435D03*
%TD*%
D16*
%TO.P,S74,1*%
%TO.N,P8*%
X123641397Y-96749099D03*
%TO.P,S74,2*%
%TO.N,index_top*%
X133179491Y-103624217D03*
%TD*%
D25*
%TO.P,DISP1,1*%
%TO.N,P2*%
X155060664Y-147551749D03*
%TO.P,DISP1,2*%
%TO.N,P3*%
X157600664Y-147551749D03*
%TO.P,DISP1,3*%
%TO.N,VCC*%
X160140664Y-147551749D03*
%TO.P,DISP1,4*%
%TO.N,GND*%
X162680664Y-147551749D03*
D26*
%TO.P,DISP1,5*%
%TO.N,CS*%
X165220664Y-147551749D03*
%TD*%
D17*
%TO.P,D38,1*%
%TO.N,P7*%
X214948874Y-159875893D03*
D18*
X216906499Y-158963037D03*
%TO.P,D38,2*%
%TO.N,mirror_near_cluster*%
X219897315Y-157568397D03*
D15*
X221854940Y-156655541D03*
%TD*%
D16*
%TO.P,S72,1*%
%TO.N,P8*%
X109272380Y-127563560D03*
%TO.P,S72,2*%
%TO.N,index_bottom*%
X118810474Y-134438678D03*
%TD*%
D10*
%TO.P,_11,1*%
%TO.N,N/C*%
X175080742Y-126056259D03*
X175025657Y-124794606D03*
X176011817Y-126909432D03*
X175878830Y-123863531D03*
D11*
X176576150Y-125358939D03*
D10*
X177273470Y-126854347D03*
X177140483Y-123808446D03*
X178126643Y-125923272D03*
X178071558Y-124661619D03*
%TD*%
D17*
%TO.P,D22,1*%
%TO.N,P5*%
X255620345Y-112222654D03*
D18*
X257577970Y-111309798D03*
%TO.P,D22,2*%
%TO.N,mirror_pinky_home*%
X260568786Y-109915158D03*
D15*
X262526411Y-109002302D03*
%TD*%
D17*
%TO.P,D50,1*%
%TO.N,P5*%
X215808756Y-112029680D03*
D18*
X217766381Y-111116824D03*
%TO.P,D50,2*%
%TO.N,mirror_middle_home*%
X220757197Y-109722184D03*
D15*
X222714822Y-108809328D03*
%TD*%
D10*
%TO.P,_1,1*%
%TO.N,N/C*%
X73574671Y-101483561D03*
X74505746Y-100630388D03*
X73519586Y-102745214D03*
X75767399Y-100685473D03*
D11*
X75070079Y-102180881D03*
D10*
X74372759Y-103676289D03*
X76620572Y-101616548D03*
X75634412Y-103731374D03*
X76565487Y-102878201D03*
%TD*%
D27*
%TO.P,S80,1*%
%TO.N,P14*%
X137466307Y-173213005D03*
%TO.P,S80,2*%
%TO.N,far_cluster*%
X142288980Y-183936080D03*
%TD*%
D17*
%TO.P,D44,1*%
%TO.N,P7*%
X249027026Y-140674860D03*
D18*
X250984651Y-139762004D03*
%TO.P,D44,2*%
%TO.N,mirror_ring_mod*%
X253975467Y-138367364D03*
D15*
X255933092Y-137454508D03*
%TD*%
D12*
%TO.P,S48,1*%
%TO.N,P9*%
X226034979Y-132693967D03*
%TO.P,S48,2*%
%TO.N,mirror_middle_mod*%
X237432594Y-129806604D03*
%TD*%
D13*
%TO.P,D78,1*%
%TO.N,P15*%
X98426389Y-156655541D03*
D14*
X100384014Y-157568397D03*
%TO.P,D78,2*%
%TO.N,near_cluster*%
X103374830Y-158963037D03*
D15*
X105332455Y-159875893D03*
%TD*%
D16*
%TO.P,S67,1*%
%TO.N,P9*%
X91014309Y-81534842D03*
%TO.P,S67,2*%
%TO.N,ring_top*%
X100552403Y-88409960D03*
%TD*%
%TO.P,S3,1*%
%TO.N,P10*%
X70051968Y-83897098D03*
%TO.P,S3,2*%
%TO.N,pinky_top*%
X79590062Y-90772216D03*
%TD*%
D12*
%TO.P,S31,1*%
%TO.N,P16*%
X204481446Y-86472272D03*
%TO.P,S31,2*%
%TO.N,mirror_middle_top*%
X215879061Y-83584909D03*
%TD*%
D17*
%TO.P,D49,1*%
%TO.N,P6*%
X222993264Y-127436908D03*
D18*
X224950889Y-126524052D03*
%TO.P,D49,2*%
%TO.N,mirror_middle_bottom*%
X227941705Y-125129412D03*
D15*
X229899330Y-124216556D03*
%TD*%
D12*
%TO.P,S58,1*%
%TO.N,P16*%
X210806079Y-149725728D03*
%TO.P,S58,2*%
%TO.N,mirror_near_cluster*%
X222203694Y-146838365D03*
%TD*%
%TO.P,S45,1*%
%TO.N,P9*%
X237699713Y-115117454D03*
%TO.P,S45,2*%
%TO.N,mirror_ring_bottom*%
X249097328Y-112230091D03*
%TD*%
D10*
%TO.P,_8,1*%
%TO.N,N/C*%
X250900361Y-118285426D03*
X250845276Y-117023773D03*
X251831436Y-119138599D03*
X251698449Y-116092698D03*
D11*
X252395769Y-117588106D03*
D10*
X253093089Y-119083514D03*
X252960102Y-116037613D03*
X253946262Y-118152439D03*
X253891177Y-116890786D03*
%TD*%
D17*
%TO.P,D33,1*%
%TO.N,P5*%
X202030912Y-125074647D03*
D18*
X203988537Y-124161791D03*
%TO.P,D33,2*%
%TO.N,mirror_index_home*%
X206979353Y-122767151D03*
D15*
X208936978Y-121854295D03*
%TD*%
D12*
%TO.P,S32,1*%
%TO.N,P8*%
X205072638Y-130331707D03*
%TO.P,S32,2*%
%TO.N,mirror_index_bottom*%
X216470253Y-127444344D03*
%TD*%
D28*
%TO.P,S60,1*%
%TO.N,P14*%
X179058106Y-178578450D03*
%TO.P,S60,2*%
%TO.N,mirror_far_cluster*%
X187485048Y-170379112D03*
%TD*%
D13*
%TO.P,D70,1*%
%TO.N,P19*%
X97566520Y-108809324D03*
D14*
X99524145Y-109722180D03*
%TO.P,D70,2*%
%TO.N,middle_home*%
X102514961Y-111116820D03*
D15*
X104472586Y-112029676D03*
%TD*%
D12*
%TO.P,S57,1*%
%TO.N,P14*%
X175657934Y-109843303D03*
%TO.P,S57,2*%
%TO.N,mirror_inner_top*%
X187055549Y-106955940D03*
%TD*%
D16*
%TO.P,S71,1*%
%TO.N,P16*%
X109863563Y-83704120D03*
%TO.P,S71,2*%
%TO.N,middle_top*%
X119401657Y-90579238D03*
%TD*%
D17*
%TO.P,D37,1*%
%TO.N,P4*%
X179800724Y-119993471D03*
D18*
X181758349Y-119080615D03*
%TO.P,D37,2*%
%TO.N,mirror_inner_top*%
X184749165Y-117685975D03*
D15*
X186706790Y-116773119D03*
%TD*%
D13*
%TO.P,D61,1*%
%TO.N,P18*%
X50570422Y-124409534D03*
D14*
X52528047Y-125322390D03*
%TO.P,D61,2*%
%TO.N,pinky_bottom*%
X55518863Y-126717030D03*
D15*
X57476488Y-127629886D03*
%TD*%
D17*
%TO.P,D28,1*%
%TO.N,P7*%
X230177770Y-142844149D03*
D18*
X232135395Y-141931293D03*
%TO.P,D28,2*%
%TO.N,mirror_middle_mod*%
X235126211Y-140536653D03*
D15*
X237083836Y-139623797D03*
%TD*%
D16*
%TO.P,S2,1*%
%TO.N,P10*%
X62867470Y-99304328D03*
%TO.P,S2,2*%
%TO.N,pinky_home*%
X72405564Y-106179446D03*
%TD*%
D13*
%TO.P,D65,1*%
%TO.N,P18*%
X71532755Y-122047277D03*
D14*
X73490380Y-122960133D03*
%TO.P,D65,2*%
%TO.N,ring_bottom*%
X76481196Y-124354773D03*
D15*
X78438821Y-125267629D03*
%TD*%
D16*
%TO.P,S8,1*%
%TO.N,P9*%
X88310042Y-129925818D03*
%TO.P,S8,2*%
%TO.N,middle_mod*%
X97848136Y-136800936D03*
%TD*%
D12*
%TO.P,S34,1*%
%TO.N,P8*%
X190703619Y-99517239D03*
%TO.P,S34,2*%
%TO.N,mirror_index_top*%
X202101234Y-96629876D03*
%TD*%
D29*
%TO.P,JST1,1*%
%TO.N,pos*%
X171340664Y-134351753D03*
D30*
%TO.P,JST1,2*%
%TO.N,GND*%
X173340664Y-134351753D03*
%TD*%
D13*
%TO.P,D16,1*%
%TO.N,P19*%
X126390037Y-132180353D03*
D14*
X128347662Y-133093209D03*
%TO.P,D16,2*%
%TO.N,inner_home*%
X131338478Y-134487849D03*
D15*
X133296103Y-135400705D03*
%TD*%
D13*
%TO.P,D67,1*%
%TO.N,P20*%
X85901780Y-91232811D03*
D14*
X87859405Y-92145667D03*
%TO.P,D67,2*%
%TO.N,ring_top*%
X90850221Y-93540307D03*
D15*
X92807846Y-94453163D03*
%TD*%
D16*
%TO.P,S68,1*%
%TO.N,P9*%
X88310042Y-129925818D03*
%TO.P,S68,2*%
%TO.N,middle_mod*%
X97848136Y-136800936D03*
%TD*%
D13*
%TO.P,D62,1*%
%TO.N,P19*%
X57754933Y-109002291D03*
D14*
X59712558Y-109915147D03*
%TO.P,D62,2*%
%TO.N,pinky_home*%
X62703374Y-111309787D03*
D15*
X64660999Y-112222643D03*
%TD*%
D16*
%TO.P,S15,1*%
%TO.N,P14*%
X124318064Y-137889613D03*
%TO.P,S15,2*%
%TO.N,inner_bottom*%
X133856158Y-144764731D03*
%TD*%
%TO.P,S77,1*%
%TO.N,P14*%
X138687089Y-107075154D03*
%TO.P,S77,2*%
%TO.N,inner_top*%
X148225183Y-113950272D03*
%TD*%
D12*
%TO.P,S41,1*%
%TO.N,P10*%
X258662063Y-117479719D03*
%TO.P,S41,2*%
%TO.N,mirror_pinky_bottom*%
X270059678Y-114592356D03*
%TD*%
D13*
%TO.P,D13,1*%
%TO.N,P19*%
X111344353Y-121854304D03*
D14*
X113301978Y-122767160D03*
%TO.P,D13,2*%
%TO.N,index_home*%
X116292794Y-124161800D03*
D15*
X118250419Y-125074656D03*
%TD*%
D16*
%TO.P,S9,1*%
%TO.N,P16*%
X95494546Y-114518589D03*
%TO.P,S9,2*%
%TO.N,middle_bottom*%
X105032640Y-121393707D03*
%TD*%
D12*
%TO.P,S42,1*%
%TO.N,P10*%
X251477542Y-102072476D03*
%TO.P,S42,2*%
%TO.N,mirror_pinky_home*%
X262875157Y-99185113D03*
%TD*%
D31*
%TO.P,S19,1*%
%TO.N,P8*%
X122230921Y-157851972D03*
%TO.P,S19,2*%
%TO.N,home_cluster*%
X129664601Y-166961467D03*
%TD*%
D17*
%TO.P,D55,1*%
%TO.N,P6*%
X194169745Y-150807937D03*
D18*
X196127370Y-149895081D03*
%TO.P,D55,2*%
%TO.N,mirror_inner_bottom*%
X199118186Y-148500441D03*
D15*
X201075811Y-147587585D03*
%TD*%
D32*
%TO.P,D79,1*%
%TO.N,P15*%
X114782559Y-165896266D03*
D33*
X116437215Y-167284687D03*
%TO.P,D79,2*%
%TO.N,home_cluster*%
X118965161Y-169405887D03*
D15*
X120619817Y-170794308D03*
%TD*%
D12*
%TO.P,S29,1*%
%TO.N,P16*%
X218850464Y-117286731D03*
%TO.P,S29,2*%
%TO.N,mirror_middle_bottom*%
X230248079Y-114399368D03*
%TD*%
D13*
%TO.P,D77,1*%
%TO.N,P20*%
X133574543Y-116773116D03*
D14*
X135532168Y-117685972D03*
%TO.P,D77,2*%
%TO.N,inner_top*%
X138522984Y-119080612D03*
D15*
X140480609Y-119993468D03*
%TD*%
D32*
%TO.P,D19,1*%
%TO.N,P15*%
X114782559Y-165896266D03*
D33*
X116437215Y-167284687D03*
%TO.P,D19,2*%
%TO.N,home_cluster*%
X118965161Y-169405887D03*
D15*
X120619817Y-170794308D03*
%TD*%
D10*
%TO.P,_7,1*%
%TO.N,N/C*%
X243715850Y-102878197D03*
X243660765Y-101616544D03*
X244646925Y-103731370D03*
X244513938Y-100685469D03*
D11*
X245211258Y-102180877D03*
D10*
X245908578Y-103676285D03*
X245775591Y-100630384D03*
X246761751Y-102745210D03*
X246706666Y-101483557D03*
%TD*%
D34*
%TO.P,D60,1*%
%TO.N,P7*%
X187720954Y-185297358D03*
D35*
X188959879Y-183527990D03*
%TO.P,D60,2*%
%TO.N,mirror_far_cluster*%
X190852681Y-180824788D03*
D15*
X192091606Y-179055420D03*
%TD*%
D17*
%TO.P,D25,1*%
%TO.N,P6*%
X241842513Y-125267628D03*
D18*
X243800138Y-124354772D03*
%TO.P,D25,2*%
%TO.N,mirror_ring_bottom*%
X246790954Y-122960132D03*
D15*
X248748579Y-122047276D03*
%TD*%
D13*
%TO.P,D3,1*%
%TO.N,P20*%
X64939442Y-93595066D03*
D14*
X66897067Y-94507922D03*
%TO.P,D3,2*%
%TO.N,pinky_top*%
X69887883Y-95902562D03*
D15*
X71845508Y-96815418D03*
%TD*%
D17*
%TO.P,D54,1*%
%TO.N,P4*%
X194846413Y-109667415D03*
D18*
X196804038Y-108754559D03*
%TO.P,D54,2*%
%TO.N,mirror_index_top*%
X199794854Y-107359919D03*
D15*
X201752479Y-106447063D03*
%TD*%
D12*
%TO.P,S52,1*%
%TO.N,P8*%
X205072638Y-130331707D03*
%TO.P,S52,2*%
%TO.N,mirror_index_bottom*%
X216470253Y-127444344D03*
%TD*%
D13*
%TO.P,D12,1*%
%TO.N,P18*%
X104159838Y-137261531D03*
D14*
X106117463Y-138174387D03*
%TO.P,D12,2*%
%TO.N,index_bottom*%
X109108279Y-139569027D03*
D15*
X111065904Y-140481883D03*
%TD*%
D17*
%TO.P,D56,1*%
%TO.N,P5*%
X186985235Y-135400710D03*
D18*
X188942860Y-134487854D03*
%TO.P,D56,2*%
%TO.N,mirror_inner_home*%
X191933676Y-133093214D03*
D15*
X193891301Y-132180358D03*
%TD*%
D16*
%TO.P,S61,1*%
%TO.N,P10*%
X55682963Y-114711558D03*
%TO.P,S61,2*%
%TO.N,pinky_bottom*%
X65221057Y-121586676D03*
%TD*%
D12*
%TO.P,S30,1*%
%TO.N,P16*%
X211665956Y-101879501D03*
%TO.P,S30,2*%
%TO.N,mirror_middle_home*%
X223063571Y-98992138D03*
%TD*%
D36*
%TO.P,,*%
%TO.N,*%
X156490670Y-179128508D03*
X156490670Y-181338508D03*
X163790670Y-179128508D03*
X163790670Y-181338508D03*
D37*
%TO.P,,1*%
%TO.N,pos*%
X162390670Y-178478508D03*
%TO.P,,2*%
%TO.N,RAW*%
X159390670Y-178478508D03*
%TO.P,,3*%
%TO.N,N/C*%
X157890670Y-178478508D03*
%TD*%
D16*
%TO.P,S16,1*%
%TO.N,P14*%
X131502570Y-122482388D03*
%TO.P,S16,2*%
%TO.N,inner_home*%
X141040664Y-129357506D03*
%TD*%
D10*
%TO.P,_9,1*%
%TO.N,N/C*%
X203904256Y-102685236D03*
X203849171Y-101423583D03*
X204835331Y-103538409D03*
X204702344Y-100492508D03*
D11*
X205399664Y-101987916D03*
D10*
X206096984Y-103483324D03*
X205963997Y-100437423D03*
X206950157Y-102552249D03*
X206895072Y-101290596D03*
%TD*%
D13*
%TO.P,D66,1*%
%TO.N,P19*%
X78717267Y-106640044D03*
D14*
X80674892Y-107552900D03*
%TO.P,D66,2*%
%TO.N,ring_home*%
X83665708Y-108947540D03*
D15*
X85623333Y-109860396D03*
%TD*%
D17*
%TO.P,D34,1*%
%TO.N,P4*%
X194846413Y-109667415D03*
D18*
X196804038Y-108754559D03*
%TO.P,D34,2*%
%TO.N,mirror_index_top*%
X199794854Y-107359919D03*
D15*
X201752479Y-106447063D03*
%TD*%
D17*
%TO.P,D48,1*%
%TO.N,P7*%
X230177770Y-142844149D03*
D18*
X232135395Y-141931293D03*
%TO.P,D48,2*%
%TO.N,mirror_middle_mod*%
X235126211Y-140536653D03*
D15*
X237083836Y-139623797D03*
%TD*%
D13*
%TO.P,D8,1*%
%TO.N,P15*%
X83197494Y-139623794D03*
D14*
X85155119Y-140536650D03*
%TO.P,D8,2*%
%TO.N,middle_mod*%
X88145935Y-141931290D03*
D15*
X90103560Y-142844146D03*
%TD*%
D38*
%TO.P,D59,1*%
%TO.N,P7*%
X199661508Y-170794309D03*
D39*
X201316164Y-169405888D03*
%TO.P,D59,2*%
%TO.N,mirror_home_cluster*%
X203844110Y-167284688D03*
D15*
X205498766Y-165896267D03*
%TD*%
D40*
%TO.N,P10*%
X173058589Y-181783652D03*
X147245558Y-181834293D03*
%TO.N,P9*%
X173655627Y-180981440D03*
X146671985Y-181015143D03*
%TO.N,P16*%
X174238272Y-180168708D03*
X146098405Y-180195994D03*
%TO.N,P8*%
X174858593Y-179383659D03*
X145524833Y-179376834D03*
%TO.N,P14*%
X144951249Y-178557687D03*
X175413291Y-178551608D03*
%TO.N,RAW*%
X160183079Y-176202800D03*
%TO.N,RST*%
X146563189Y-135170535D03*
%TO.N,pos*%
X162383077Y-175402802D03*
%TD*%
D41*
%TO.N,P10*%
X54832231Y-112374204D02*
X55682962Y-114711564D01*
X135956726Y-183146639D02*
X132335629Y-182508148D01*
X249153255Y-101226505D02*
X251477544Y-102072475D01*
X81584181Y-140210997D02*
X85695580Y-151506972D01*
X152520656Y-141821758D02*
X152520660Y-176559196D01*
X64905923Y-116943462D02*
X66090961Y-120199339D01*
X254852996Y-109311164D02*
X254007027Y-111635459D01*
X105160976Y-163452619D02*
X108604948Y-165058573D01*
X85695580Y-151506972D02*
X88858673Y-152981949D01*
X59492023Y-106543005D02*
X57154671Y-107393733D01*
X62016739Y-96966973D02*
X62867471Y-99304326D01*
X244293039Y-86665249D02*
X247515503Y-93575840D01*
X152520660Y-176559196D02*
X147245558Y-181834293D01*
D42*
X188513426Y-190538867D02*
X186155979Y-190954547D01*
D41*
X143362402Y-181867610D02*
X141766579Y-179588548D01*
X128768800Y-177414181D02*
X128487856Y-177364639D01*
D42*
X212742246Y-164613158D02*
X212727969Y-164611909D01*
D41*
X82636529Y-137954210D02*
X81584181Y-140210997D01*
D42*
X212727969Y-164611909D02*
X198034800Y-176940946D01*
D41*
X147245558Y-181834293D02*
X146426403Y-182407872D01*
X122513743Y-176767415D02*
X122449258Y-176675335D01*
X65407694Y-89695068D02*
X62016739Y-96966973D01*
X79952583Y-130580104D02*
X82636529Y-137954210D01*
X128487856Y-177364639D02*
X127967428Y-177729049D01*
X244884231Y-130524686D02*
X237842884Y-149870605D01*
X139971257Y-179271973D02*
X138628147Y-180212431D01*
X69460790Y-127756542D02*
X71952527Y-126849619D01*
D42*
X198034800Y-176940946D02*
X188513426Y-190538867D01*
X186155979Y-190954547D02*
X173058589Y-181783652D01*
D41*
X57154671Y-107393733D02*
X54832231Y-112374204D01*
X67380563Y-120800688D02*
X69714360Y-127212752D01*
X246669534Y-95900147D02*
X249153255Y-101226505D01*
X62867471Y-99304326D02*
X59492023Y-106543005D01*
X108604948Y-165058573D02*
X122449258Y-176675335D01*
X55682962Y-114711564D02*
X58174697Y-113804647D01*
X226094591Y-158386862D02*
X212742246Y-164613158D01*
X71952527Y-126849619D02*
X79952583Y-130580104D01*
X227426325Y-154727931D02*
X226094591Y-158386862D01*
X254007027Y-111635459D02*
X256337770Y-116633742D01*
X93922768Y-158212154D02*
X105160976Y-163452619D01*
X247515503Y-93575840D02*
X246669534Y-95900147D01*
X70051973Y-83897099D02*
X67745040Y-88844352D01*
X69714360Y-127212752D02*
X69460790Y-127756542D01*
X66090961Y-120199339D02*
X67380563Y-120800688D01*
X146426403Y-182407872D02*
X143362402Y-181867610D01*
X138414177Y-181425911D02*
X135956726Y-183146639D01*
X138628147Y-180212431D02*
X138414177Y-181425911D01*
X58174697Y-113804647D02*
X64905923Y-116943462D01*
X258662057Y-117479721D02*
X256666836Y-122961531D01*
X127967428Y-177729049D02*
X122513743Y-176767415D01*
X92665165Y-154756951D02*
X93922768Y-158212154D01*
X251477544Y-102072475D02*
X254852996Y-109311164D01*
X147245558Y-181834293D02*
X147360273Y-181998123D01*
X256337770Y-116633742D02*
X258662057Y-117479721D01*
X67745040Y-88844352D02*
X65407694Y-89695068D01*
X132335629Y-182508148D02*
X128768800Y-177414181D01*
X141766579Y-179588548D02*
X139971257Y-179271973D01*
X245791147Y-128032947D02*
X244884231Y-130524686D01*
X256666836Y-122961531D02*
X245791147Y-128032947D01*
X88858673Y-152981949D02*
X92665165Y-154756951D01*
X237842884Y-149870605D02*
X227426325Y-154727931D01*
%TO.N,pinky_bottom*%
X65221052Y-121586682D02*
X63410137Y-125470206D01*
X57476485Y-127629882D02*
X55518853Y-126717028D01*
X63410137Y-125470206D02*
X57476485Y-127629882D01*
%TO.N,pinky_home*%
X70594652Y-110062968D02*
X64660988Y-112222649D01*
X64660988Y-112222649D02*
X62703368Y-111309798D01*
X72405571Y-106179448D02*
X70594652Y-110062968D01*
%TO.N,pinky_top*%
X79590070Y-90772220D02*
X77779149Y-94655751D01*
X77779149Y-94655751D02*
X71845498Y-96815413D01*
X71845498Y-96815413D02*
X69887872Y-95902563D01*
%TO.N,ring_mod*%
X77187962Y-138515178D02*
X71254313Y-140674854D01*
X71254313Y-140674854D02*
X69296690Y-139762003D01*
X78998884Y-134631651D02*
X77187962Y-138515178D01*
%TO.N,P9*%
X90801781Y-129018902D02*
X97602810Y-132190273D01*
X85976237Y-123513746D02*
X88342894Y-118438434D01*
X122785833Y-176297303D02*
X122765844Y-176268764D01*
D42*
X188759346Y-189490286D02*
X186401320Y-189906070D01*
D41*
X93514546Y-155774884D02*
X94007039Y-157127998D01*
X228190920Y-98864254D02*
X230515208Y-99710230D01*
X220841832Y-135115570D02*
X211114423Y-161841412D01*
X137828405Y-181286721D02*
X135851302Y-182671105D01*
D42*
X197707135Y-176711509D02*
X188759346Y-189490286D01*
D41*
X233044680Y-109273192D02*
X235375429Y-114271487D01*
X237699711Y-115117463D02*
X234687532Y-123393333D01*
X173655627Y-180981440D02*
X186401320Y-189906070D01*
X94007039Y-157127998D02*
X94281866Y-157883090D01*
X105351154Y-163044779D02*
X108749813Y-164629600D01*
X87638864Y-88773524D02*
X85314581Y-89619495D01*
X108768038Y-164628006D02*
X108749813Y-164629600D01*
X97602810Y-132190273D02*
X98787854Y-135446140D01*
X78130064Y-105026724D02*
X75799329Y-110025014D01*
D42*
X210820389Y-165202237D02*
X198677887Y-175391006D01*
D41*
X88342894Y-118438434D02*
X87128398Y-115101611D01*
X226034980Y-132693973D02*
X220841832Y-135115570D01*
D42*
X198625275Y-175400279D02*
X197707152Y-176711502D01*
D41*
X138042376Y-180073251D02*
X137828405Y-181286721D01*
X80454361Y-104180747D02*
X78130064Y-105026724D01*
X94281866Y-157883090D02*
X105351154Y-163044779D01*
X230515208Y-99710230D02*
X233890662Y-106948904D01*
X234687532Y-123393333D02*
X228343387Y-126351665D01*
D42*
X211114423Y-161841412D02*
X210820389Y-165202237D01*
D41*
X146671985Y-181015143D02*
X145554985Y-181797281D01*
X79217988Y-111412923D02*
X76645302Y-112349300D01*
X88310043Y-129925824D02*
X90801781Y-129018902D01*
X228343387Y-126351665D02*
X226034980Y-132693973D01*
X135851302Y-182671105D02*
X132597332Y-182097346D01*
X83829812Y-96942066D02*
X80454361Y-104180747D01*
X87128398Y-115101611D02*
X79217988Y-111412923D01*
X127931769Y-177204678D02*
X122785833Y-176297303D01*
X226706149Y-91541677D02*
X225860175Y-93865968D01*
X88310043Y-129925824D02*
X85976237Y-123513746D01*
X91014324Y-81534841D02*
X87638864Y-88773524D01*
D42*
X197707152Y-176711502D02*
X197707135Y-176711509D01*
D41*
X223330690Y-84302987D02*
X226706149Y-91541677D01*
X101200496Y-139292305D02*
X93514546Y-155774884D01*
X128382434Y-176889107D02*
X127931769Y-177204678D01*
X82983842Y-94617779D02*
X83829812Y-96942066D01*
X108749813Y-164629600D02*
X108795127Y-164650729D01*
X139865835Y-178796445D02*
X138042376Y-180073251D01*
X143624101Y-181456807D02*
X142028288Y-179177748D01*
X233890662Y-106948904D02*
X233044680Y-109273192D01*
X145554985Y-181797281D02*
X143624101Y-181456807D01*
X129030507Y-177003381D02*
X128382434Y-176889107D01*
X122765844Y-176268764D02*
X108881132Y-164618108D01*
X98787854Y-135446140D02*
X100007639Y-136014946D01*
X132597332Y-182097346D02*
X129030507Y-177003381D01*
X225860175Y-93865968D02*
X228190920Y-98864254D01*
X75799329Y-110025014D02*
X76645302Y-112349300D01*
X108795127Y-164650729D02*
X108768038Y-164628006D01*
D42*
X198677887Y-175391006D02*
X198625275Y-175400279D01*
D41*
X85314581Y-89619495D02*
X82983842Y-94617779D01*
X108881132Y-164618108D02*
X108749813Y-164629600D01*
X167760658Y-175086471D02*
X173655627Y-180981440D01*
X167760657Y-141821760D02*
X167760658Y-175086471D01*
X235375429Y-114271487D02*
X237699711Y-115117463D01*
X100007639Y-136014946D02*
X101200496Y-139292305D01*
X142028288Y-179177748D02*
X139865835Y-178796445D01*
%TO.N,ring_bottom*%
X78438822Y-125267630D02*
X76481201Y-124354775D01*
X86183395Y-119224422D02*
X84372471Y-123107965D01*
X84372471Y-123107965D02*
X78438822Y-125267630D01*
%TO.N,ring_home*%
X91556994Y-107700717D02*
X85623335Y-109860391D01*
X85623335Y-109860391D02*
X83665706Y-108947541D01*
X93367906Y-103817191D02*
X91556994Y-107700717D01*
%TO.N,ring_top*%
X92807844Y-94453163D02*
X90850217Y-93540304D01*
X100552419Y-88409961D02*
X98741500Y-92293496D01*
X98741500Y-92293496D02*
X92807844Y-94453163D01*
%TO.N,middle_mod*%
X96037211Y-140684474D02*
X90103560Y-142844142D01*
X90103560Y-142844142D02*
X88145932Y-141931284D01*
X97848136Y-136800935D02*
X96037211Y-140684474D01*
%TO.N,P16*%
X132859047Y-181686550D02*
X135745869Y-182195579D01*
X123295923Y-175930310D02*
X127826341Y-176729147D01*
X94648579Y-112194298D02*
X95494542Y-114518595D01*
X215072313Y-145667520D02*
X218539592Y-136141227D01*
X210806082Y-149725720D02*
X211713002Y-147233991D01*
X103940169Y-134836796D02*
X101237141Y-140633446D01*
X139760409Y-178320917D02*
X142289992Y-178766958D01*
X113195525Y-167455067D02*
X123295923Y-175930310D01*
X102679073Y-99111359D02*
X99303610Y-106350031D01*
X103121727Y-132588155D02*
X103940169Y-134836796D01*
X218539592Y-136141227D02*
X216973119Y-132781912D01*
X101833082Y-96787068D02*
X102679073Y-99111359D01*
X109863573Y-83704122D02*
X106488119Y-90942800D01*
X137266009Y-181131172D02*
X137479978Y-179917698D01*
X99303610Y-106350031D02*
X96979316Y-107196008D01*
X143753495Y-180857053D02*
X144872514Y-181054369D01*
D42*
X198649632Y-174668110D02*
X198683120Y-174662205D01*
D41*
X106030667Y-146050652D02*
X114051504Y-149790829D01*
D42*
X209123783Y-165901451D02*
X209247039Y-164492616D01*
D41*
X137479978Y-179917698D02*
X139760409Y-178320917D01*
X211713002Y-147233991D02*
X215072313Y-145667520D01*
X103538941Y-146957575D02*
X106030667Y-146050652D01*
X135745869Y-182195579D02*
X137266009Y-181131172D01*
X112485387Y-159338205D02*
X113195525Y-167455067D01*
X219294393Y-126404263D02*
X217181299Y-121872723D01*
D42*
X210509567Y-149974532D02*
X210806079Y-149725727D01*
D41*
X218850468Y-117286738D02*
X216526175Y-116440760D01*
X129292209Y-176592590D02*
X132859047Y-181686550D01*
D42*
X209247039Y-164492616D02*
X209240120Y-164484371D01*
D41*
X217181299Y-121872723D02*
X218850468Y-117286738D01*
D42*
X174238272Y-180168708D02*
X184749498Y-187528746D01*
D41*
X209341657Y-101033520D02*
X205942416Y-93743815D01*
X114051504Y-149790829D02*
X115365283Y-153400416D01*
D42*
X198683120Y-174662205D02*
X209123783Y-165901451D01*
D41*
X205942416Y-93743815D02*
X206788383Y-91419522D01*
X106488119Y-90942800D02*
X104163820Y-91788772D01*
X104163820Y-91788772D02*
X101833082Y-96787068D01*
X112735371Y-159040296D02*
X112485387Y-159338205D01*
X216973119Y-132781912D02*
X219294393Y-126404263D01*
X128277002Y-176413578D02*
X129292209Y-176592590D01*
X127826341Y-176729147D02*
X128277002Y-176413578D01*
X206788383Y-91419522D02*
X204481438Y-86472272D01*
X144872514Y-181054369D02*
X146098405Y-180195994D01*
X106007107Y-117351849D02*
X107856786Y-122433789D01*
X115365283Y-153400416D02*
X112735371Y-159040296D01*
X213972896Y-106826751D02*
X211665959Y-101879497D01*
D42*
X190334015Y-186544046D02*
X184749498Y-187528746D01*
X209240120Y-164484371D02*
X210509567Y-149974532D01*
D41*
X211665959Y-101879497D02*
X209341657Y-101033520D01*
X216526175Y-116440760D02*
X213126928Y-109151036D01*
D42*
X190334015Y-186544046D02*
X198649632Y-174668110D01*
D41*
X96979316Y-107196008D02*
X94648579Y-112194298D01*
X142289992Y-178766958D02*
X143753495Y-180857053D01*
X213126928Y-109151036D02*
X213972896Y-106826751D01*
X101237141Y-140633446D02*
X103538941Y-146957575D01*
X97986287Y-113611672D02*
X106007107Y-117351849D01*
X95494542Y-114518595D02*
X97986287Y-113611672D01*
X107856786Y-122433789D02*
X103121727Y-132588155D01*
%TO.N,middle_bottom*%
X97288073Y-127436911D02*
X95330450Y-126524052D01*
X105032649Y-121393707D02*
X103221723Y-125277234D01*
X103221723Y-125277234D02*
X97288073Y-127436911D01*
%TO.N,middle_home*%
X110406241Y-109869997D02*
X104472578Y-112029677D01*
X104472578Y-112029677D02*
X102514960Y-111116822D01*
X112217158Y-105986471D02*
X110406241Y-109869997D01*
%TO.N,middle_top*%
X117590748Y-94462771D02*
X119401664Y-90579243D01*
X109699474Y-95709591D02*
X111657094Y-96622444D01*
X111657094Y-96622444D02*
X117590748Y-94462771D01*
%TO.N,P8*%
X115606165Y-109818981D02*
X116456892Y-112156331D01*
X197888119Y-114924480D02*
X200195064Y-119871724D01*
X195490397Y-114051781D02*
X197888119Y-114924480D01*
X110757143Y-120240988D02*
X108426408Y-125239279D01*
X205072628Y-130331708D02*
X208448076Y-137570392D01*
X131991367Y-163594330D02*
X124872480Y-157620869D01*
X137959265Y-177958818D02*
X132575409Y-170269869D01*
X111764111Y-126656638D02*
X119784941Y-130396819D01*
D42*
X180294412Y-180658095D02*
X177406038Y-181167397D01*
D41*
X202179586Y-154792936D02*
X192862387Y-159137626D01*
X117928604Y-104838499D02*
X115606165Y-109818981D01*
X143439709Y-179509293D02*
X142643621Y-178372363D01*
X116456892Y-112156331D02*
X113081438Y-119395014D01*
X184805585Y-168965711D02*
X184803635Y-168987916D01*
X202748344Y-129485738D02*
X205072628Y-130331708D01*
X120886184Y-157224917D02*
X122230922Y-157851976D01*
X120265949Y-103987768D02*
X117928604Y-104838499D01*
X109272373Y-127563564D02*
X111764111Y-126656638D01*
X113081438Y-119395014D02*
X110757143Y-120240988D01*
X208448076Y-137570392D02*
X202179586Y-154792936D01*
D42*
X183632850Y-175890320D02*
X180294412Y-180658095D01*
D41*
X200195064Y-119871724D02*
X199349094Y-122196021D01*
X132575409Y-170269869D02*
X131991367Y-163594330D01*
X174858593Y-179383659D02*
X177210912Y-181030771D01*
D42*
X177406038Y-181167397D02*
X177210912Y-181030771D01*
D41*
X123641405Y-96749095D02*
X120265949Y-103987768D01*
X190703609Y-99517242D02*
X194079065Y-106755930D01*
X144954270Y-179776350D02*
X143439709Y-179509293D01*
X124872480Y-157620869D02*
X122230918Y-157851979D01*
X193032817Y-162062236D02*
X184805585Y-168965711D01*
X139654984Y-177845386D02*
X139184458Y-178174851D01*
X199349094Y-122196021D02*
X202748344Y-129485738D01*
X142643621Y-178372363D02*
X139654984Y-177845386D01*
X108426408Y-125239279D02*
X109272373Y-127563564D01*
D42*
X182896127Y-171712132D02*
X183632850Y-175890320D01*
D41*
X193206370Y-109153659D02*
X195490397Y-114051781D01*
X121582416Y-135335337D02*
X116716805Y-145769651D01*
X139184458Y-178174851D02*
X137959265Y-177958818D01*
X192339261Y-160574893D02*
X193032824Y-162062234D01*
X119784941Y-130396819D02*
X121582416Y-135335337D01*
X145524833Y-179376834D02*
X144954270Y-179776350D01*
X116716805Y-145769651D02*
X120886184Y-157224917D01*
X192862387Y-159137626D02*
X192339261Y-160574893D01*
D42*
X184803635Y-168987916D02*
X182896127Y-171712132D01*
D41*
X194079065Y-106755930D02*
X193206370Y-109153659D01*
%TO.N,index_bottom*%
X111065899Y-140481879D02*
X109108282Y-139569025D01*
X116999551Y-138322212D02*
X111065899Y-140481879D01*
X118810476Y-134438682D02*
X116999551Y-138322212D01*
%TO.N,index_home*%
X116292787Y-124161800D02*
X118250417Y-125074651D01*
X118250417Y-125074651D02*
X124184069Y-122914979D01*
X124184069Y-122914979D02*
X125994988Y-119031451D01*
%TO.N,index_top*%
X125434916Y-109667408D02*
X123477294Y-108754554D01*
X131368583Y-107507733D02*
X125434916Y-109667408D01*
X133179498Y-103624220D02*
X131368583Y-107507733D01*
%TO.N,P14*%
X135464622Y-113985749D02*
X133140333Y-114831721D01*
X179031254Y-178551604D02*
X179058095Y-178578448D01*
X152520657Y-136741759D02*
X143703561Y-145558856D01*
X176177121Y-179086441D02*
X179058095Y-178578450D01*
X138687091Y-107075152D02*
X135464622Y-113985749D01*
X123472095Y-135565318D02*
X126851657Y-128317815D01*
X185169634Y-130241202D02*
X182842450Y-125250531D01*
X124318069Y-137889611D02*
X123472095Y-135565318D01*
X133140333Y-114831721D02*
X130656601Y-120158088D01*
X129175951Y-127471849D02*
X131502578Y-122482386D01*
X128818835Y-136911387D02*
X125296298Y-136911380D01*
X137466311Y-173213003D02*
X137466308Y-145558856D01*
X179058099Y-151626610D02*
X190026948Y-140657761D01*
X137466308Y-145558856D02*
X128818835Y-136911387D01*
X180518150Y-124404558D02*
X182842450Y-125250531D01*
X125296298Y-136911380D02*
X124318069Y-137889611D01*
X190026949Y-140657773D02*
X187702656Y-139811791D01*
X130656601Y-120158088D02*
X131502578Y-122482386D01*
X141736019Y-173965870D02*
X137466304Y-173213005D01*
X126851657Y-128317815D02*
X129175951Y-127471849D01*
X187702656Y-139811791D02*
X184323652Y-132565493D01*
X144951249Y-178557687D02*
X141736019Y-173965870D01*
X178187417Y-119406272D02*
X180518150Y-124404558D01*
X175657934Y-109843301D02*
X179033388Y-117081983D01*
X143703561Y-145558856D02*
X137466308Y-145558856D01*
X179058098Y-178578449D02*
X179058099Y-151626610D01*
X175413291Y-178551608D02*
X176177121Y-179086441D01*
X179033388Y-117081983D02*
X178187417Y-119406272D01*
X184323652Y-132565493D02*
X185169634Y-130241202D01*
%TO.N,inner_bottom*%
X132045236Y-148648261D02*
X126111588Y-150807934D01*
X133856164Y-144764731D02*
X132045236Y-148648261D01*
X126111588Y-150807934D02*
X124153966Y-149895078D01*
%TO.N,inner_home*%
X139229749Y-133241032D02*
X141040668Y-129357496D01*
X133296094Y-135400713D02*
X139229749Y-133241032D01*
X131338471Y-134487844D02*
X133296094Y-135400713D01*
%TO.N,inner_top*%
X140480615Y-119993472D02*
X138522983Y-119080616D01*
X146414264Y-117833794D02*
X140480615Y-119993472D01*
X148225186Y-113950268D02*
X146414264Y-117833794D01*
%TO.N,near_cluster*%
X105332457Y-159875899D02*
X103374832Y-158963039D01*
X113077027Y-153832692D02*
X111266115Y-157716222D01*
X111266115Y-157716222D02*
X105332457Y-159875899D01*
%TO.N,home_cluster*%
X129664601Y-166961474D02*
X126910262Y-170243972D01*
X120619825Y-170794312D02*
X118965170Y-169405897D01*
X126910262Y-170243972D02*
X120619825Y-170794312D01*
%TO.N,far_cluster*%
X138778914Y-186393854D02*
X132560385Y-185297357D01*
X132560385Y-185297357D02*
X131321454Y-183527993D01*
X142288981Y-183936077D02*
X138778914Y-186393854D01*
%TO.N,mirror_pinky_bottom*%
X269710918Y-124409539D02*
X267753292Y-125322393D01*
X271870586Y-118475880D02*
X269710918Y-124409539D01*
X270059673Y-114592347D02*
X271870586Y-118475880D01*
%TO.N,mirror_pinky_home*%
X264686086Y-103068642D02*
X262526408Y-109002300D01*
X262875161Y-99185121D02*
X264686086Y-103068642D01*
X262526408Y-109002300D02*
X260568785Y-109915164D01*
%TO.N,mirror_pinky_top*%
X255690652Y-83777880D02*
X257501568Y-87661409D01*
X255341897Y-93595070D02*
X253384275Y-94507922D01*
X257501568Y-87661409D02*
X255341897Y-93595070D01*
%TO.N,mirror_ring_mod*%
X256281838Y-127637322D02*
X258092757Y-131520851D01*
X258092757Y-131520851D02*
X255933091Y-137454498D01*
X255933091Y-137454498D02*
X253975461Y-138367365D01*
%TO.N,mirror_ring_bottom*%
X248748586Y-122047279D02*
X246790956Y-122960128D01*
X248082399Y-120618646D02*
X248748586Y-122047279D01*
X250242064Y-114684996D02*
X248082399Y-120618646D01*
X249097323Y-112230096D02*
X250242064Y-114684996D01*
%TO.N,mirror_ring_home*%
X241191779Y-105841686D02*
X241564069Y-106640047D01*
X241912826Y-96822860D02*
X243351458Y-99908030D01*
X243351458Y-99908030D02*
X241191779Y-105841686D01*
X241564069Y-106640047D02*
X239606444Y-107552902D01*
%TO.N,mirror_ring_top*%
X234379560Y-91232821D02*
X232421932Y-92145674D01*
X236539231Y-85299158D02*
X234379560Y-91232821D01*
X234728316Y-81415632D02*
X236539231Y-85299158D01*
%TO.N,mirror_middle_mod*%
X239243512Y-133690134D02*
X237083833Y-139623794D01*
X237083833Y-139623794D02*
X235126212Y-140536648D01*
X237432597Y-129806603D02*
X239243512Y-133690134D01*
%TO.N,mirror_middle_bottom*%
X229899326Y-124216564D02*
X227941699Y-125129413D01*
X230248076Y-114399374D02*
X232058994Y-118282893D01*
X232058994Y-118282893D02*
X229899326Y-124216564D01*
%TO.N,mirror_middle_home*%
X224874489Y-102875663D02*
X223063578Y-98992140D01*
X220757190Y-109722183D02*
X222714820Y-108809328D01*
X222714820Y-108809328D02*
X224874489Y-102875663D01*
%TO.N,mirror_middle_top*%
X217689984Y-87468433D02*
X215879063Y-83584909D01*
X215530315Y-93402097D02*
X217689984Y-87468433D01*
X213572685Y-94314945D02*
X215530315Y-93402097D01*
%TO.N,mirror_index_bottom*%
X216121494Y-137261529D02*
X214163870Y-138174388D01*
X213989946Y-132690408D02*
X216121494Y-137261529D01*
X214561771Y-131119327D02*
X213989946Y-132690408D01*
X216470242Y-127444346D02*
X215249369Y-130798699D01*
X215249369Y-130798699D02*
X214561771Y-131119327D01*
%TO.N,mirror_index_home*%
X209285739Y-112037119D02*
X211096653Y-115920641D01*
X208936988Y-121854297D02*
X206979356Y-122767157D01*
X211096653Y-115920641D02*
X208936988Y-121854297D01*
%TO.N,mirror_index_top*%
X201086300Y-105018438D02*
X201752478Y-106447069D01*
X202101234Y-96629882D02*
X203245970Y-99084780D01*
X201752478Y-106447069D02*
X199794852Y-107359924D01*
X203245970Y-99084780D02*
X201086300Y-105018438D01*
%TO.N,mirror_inner_bottom*%
X203235487Y-141653930D02*
X201075817Y-147587587D01*
X201424565Y-137770400D02*
X203235487Y-141653930D01*
X201075817Y-147587587D02*
X199118190Y-148500434D01*
%TO.N,mirror_inner_home*%
X191933669Y-133093209D02*
X193891303Y-132180360D01*
X196050975Y-126246690D02*
X194240058Y-122363169D01*
X193891303Y-132180360D02*
X196050975Y-126246690D01*
%TO.N,mirror_inner_top*%
X188866467Y-110839472D02*
X186706789Y-116773117D01*
X187055541Y-106955932D02*
X188866467Y-110839472D01*
X186706789Y-116773117D02*
X184749164Y-117685982D01*
%TO.N,mirror_near_cluster*%
X224014616Y-150721895D02*
X221854945Y-156655550D01*
X222203693Y-146838362D02*
X224014616Y-150721895D01*
X221854945Y-156655550D02*
X219897320Y-157568395D01*
%TO.N,mirror_home_cluster*%
X203844111Y-167284693D02*
X205498768Y-165896275D01*
X205498768Y-165896275D02*
X206049109Y-159605830D01*
X206049109Y-159605830D02*
X203294777Y-156323336D01*
%TO.N,mirror_far_cluster*%
X187485038Y-170379111D02*
X190995114Y-172836893D01*
X192091608Y-179055419D02*
X190852682Y-180824783D01*
X190995114Y-172836893D02*
X192091608Y-179055419D01*
%TO.N,P18*%
X92339632Y-125129404D02*
X90382007Y-124216558D01*
X106117461Y-138174386D02*
X104159834Y-137261533D01*
X121163145Y-148500432D02*
X119205525Y-147587583D01*
X52528042Y-125322390D02*
X50570414Y-124409532D01*
X73490384Y-122960131D02*
X71532754Y-122047279D01*
%TO.N,P19*%
X59712553Y-109915151D02*
X57754932Y-109002295D01*
X113301969Y-122767162D02*
X111344354Y-121854307D01*
X99524136Y-109722182D02*
X97566518Y-108809323D01*
X80674889Y-107552900D02*
X78717263Y-106640039D01*
X126390036Y-132180348D02*
X128347656Y-133093207D01*
%TO.N,P20*%
X120486488Y-107359916D02*
X118528857Y-106447062D01*
X104751031Y-93402094D02*
X106708657Y-94314940D01*
X87859405Y-92145661D02*
X85901783Y-91232812D01*
X135532169Y-117685972D02*
X133574546Y-116773116D01*
X66897060Y-94507920D02*
X64939437Y-93595062D01*
%TO.N,P15*%
X85155126Y-140536645D02*
X83197494Y-139623791D01*
X116437213Y-167284690D02*
X114782571Y-165896275D01*
X66305869Y-138367370D02*
X64348249Y-137454515D01*
X129428654Y-180824786D02*
X128189721Y-179055410D01*
X100384016Y-157568407D02*
X98426390Y-156655540D01*
%TO.N,P6*%
X211173056Y-139569030D02*
X209215434Y-140481886D01*
X224950886Y-126524052D02*
X222993256Y-127436910D01*
X243800137Y-124354781D02*
X241842516Y-125267631D01*
X264762477Y-126717033D02*
X262804856Y-127629881D01*
X196127371Y-149895082D02*
X194169737Y-150807936D01*
%TO.N,P5*%
X236615627Y-108947544D02*
X234657992Y-109860398D01*
X215808750Y-112029677D02*
X217766373Y-111116816D01*
X186985230Y-135400710D02*
X188942857Y-134487847D01*
X257577970Y-111309791D02*
X255620336Y-112222656D01*
X203988542Y-124161802D02*
X202030923Y-125074649D01*
%TO.N,P4*%
X208624243Y-96622442D02*
X210581867Y-95709587D01*
X250393460Y-95902566D02*
X248435832Y-96815414D01*
X181758354Y-119080613D02*
X179800730Y-119993468D01*
X229431116Y-93540305D02*
X227473495Y-94453171D01*
X196804033Y-108754554D02*
X194846415Y-109667415D01*
%TO.N,P7*%
X216906498Y-158963034D02*
X214948872Y-159875891D01*
X250984649Y-139762005D02*
X249027023Y-140674858D01*
X232135391Y-141931288D02*
X230177775Y-142844142D01*
X199661518Y-170794319D02*
X201316170Y-169405891D01*
X188959884Y-183527986D02*
X187720966Y-185297358D01*
%TO.N,RAW*%
X158965664Y-120326759D02*
X152520674Y-113881750D01*
X159390669Y-176995212D02*
X160183079Y-176202800D01*
X158965663Y-174985388D02*
X158965664Y-120326759D01*
X160183079Y-176202800D02*
X158965663Y-174985388D01*
X159390667Y-178478507D02*
X159390669Y-176995212D01*
%TO.N,GND*%
X152023063Y-120300459D02*
X148640664Y-123682855D01*
X173340673Y-134351762D02*
X173340666Y-127081761D01*
X148640664Y-123682855D02*
X148640665Y-135151758D01*
X153721956Y-119596753D02*
X153018251Y-120300458D01*
X153018251Y-120300458D02*
X152023063Y-120300459D01*
X152520658Y-116421760D02*
X153721956Y-117623060D01*
X173340664Y-134351755D02*
X169449367Y-130460459D01*
X162680667Y-134853052D02*
X162680665Y-147551752D01*
X167073263Y-130460457D02*
X162680667Y-134853052D01*
X173340666Y-127081761D02*
X167760668Y-121501761D01*
X169449367Y-130460459D02*
X167073263Y-130460457D01*
X167760664Y-118961756D02*
X167760668Y-121501761D01*
X153721956Y-117623060D02*
X153721956Y-119596753D01*
%TO.N,RST*%
X146563188Y-136474279D02*
X146563189Y-135170535D01*
X148640666Y-138551757D02*
X146563188Y-136474279D01*
X146563189Y-135170535D02*
X146563188Y-124919227D01*
X146563188Y-124919227D02*
X152520658Y-118961758D01*
%TO.N,pos*%
X162390672Y-178478513D02*
X162390665Y-175410384D01*
X166122816Y-132863060D02*
X169851964Y-132863052D01*
X163855665Y-173930200D02*
X163855666Y-135130202D01*
X169851964Y-132863052D02*
X171340669Y-134351748D01*
X162390665Y-175410384D02*
X162383077Y-175402802D01*
X162383077Y-175402802D02*
X163855665Y-173930200D01*
X163855666Y-135130202D02*
X166122816Y-132863060D01*
%TD*%
M02*
